<?xml version="1.0" encoding="UTF-8"?>
<svg id="Layer_1" data-name="Layer 1" xmlns="http://www.w3.org/2000/svg" viewBox="0 0 1836.19 1836.19">
  <defs>
    <style>
      .cls-1 {
        fill: none;
        stroke: #707070;
        stroke-miterlimit: 4;
        stroke-width: 2px;
      }
    </style>
  </defs>
  <g id="bg_lines_left_thick" data-name="bg lines left thick">
    <line id="Line_73" data-name="Line 73" class="cls-1" x1="1517.29" y1=".71" x2=".71" y2="1517.29"/>
    <line id="Line_74" data-name="Line 74" class="cls-1" x1="1588" y1="71.42" x2="71.42" y2="1588"/>
    <line id="Line_75" data-name="Line 75" class="cls-1" x1="1623.35" y1="106.77" x2="106.77" y2="1623.35"/>
    <line id="Line_76" data-name="Line 76" class="cls-1" x1="1552.64" y1="36.06" x2="36.06" y2="1552.64"/>
    <line id="Line_77" data-name="Line 77" class="cls-1" x1="1694.06" y1="177.48" x2="177.48" y2="1694.06"/>
    <line id="Line_78" data-name="Line 78" class="cls-1" x1="1729.42" y1="212.84" x2="212.84" y2="1729.42"/>
    <line id="Line_79" data-name="Line 79" class="cls-1" x1="1658.71" y1="142.13" x2="142.13" y2="1658.71"/>
    <line id="Line_80" data-name="Line 80" class="cls-1" x1="1800.13" y1="283.55" x2="283.55" y2="1800.13"/>
    <line id="Line_81" data-name="Line 81" class="cls-1" x1="1835.48" y1="318.91" x2="318.91" y2="1835.48"/>
    <line id="Line_82" data-name="Line 82" class="cls-1" x1="1764.77" y1="248.19" x2="248.2" y2="1764.77"/>
    <line id="Line_83" data-name="Line 83" class="cls-1" x1="1517.29" y1=".71" x2=".71" y2="1517.29"/>
    <line id="Line_84" data-name="Line 84" class="cls-1" x1="1588" y1="71.42" x2="71.42" y2="1588"/>
    <line id="Line_85" data-name="Line 85" class="cls-1" x1="1623.35" y1="106.77" x2="106.77" y2="1623.35"/>
    <line id="Line_86" data-name="Line 86" class="cls-1" x1="1552.64" y1="36.06" x2="36.06" y2="1552.64"/>
    <line id="Line_87" data-name="Line 87" class="cls-1" x1="1694.06" y1="177.48" x2="177.48" y2="1694.06"/>
    <line id="Line_88" data-name="Line 88" class="cls-1" x1="1729.42" y1="212.84" x2="212.84" y2="1729.42"/>
    <line id="Line_89" data-name="Line 89" class="cls-1" x1="1658.71" y1="142.13" x2="142.13" y2="1658.71"/>
    <line id="Line_90" data-name="Line 90" class="cls-1" x1="1800.13" y1="283.55" x2="283.55" y2="1800.13"/>
    <line id="Line_91" data-name="Line 91" class="cls-1" x1="1835.48" y1="318.91" x2="318.91" y2="1835.48"/>
    <line id="Line_92" data-name="Line 92" class="cls-1" x1="1764.77" y1="248.19" x2="248.2" y2="1764.77"/>
  </g>
</svg>