<?xml version="1.0" encoding="UTF-8"?>
<svg id="Layer_1" data-name="Layer 1" xmlns="http://www.w3.org/2000/svg" viewBox="0 0 2004.75 2004.75">
  <defs>
    <style>
      .cls-1 {
        fill: none;
        isolation: isolate;
        opacity: .5;
        stroke: #707070;
        stroke-miterlimit: 4;
        stroke-width: 2px;
      }
    </style>
  </defs>
  <g id="bg_lines_left_" data-name="bg lines left ">
    <line id="Line_37" data-name="Line 37" class="cls-1" x1="1700.02" y1="395.93" x2="395.93" y2="1700.02"/>
    <line id="Line_38" data-name="Line 38" class="cls-1" x1="1730.42" y1="426.33" x2="426.33" y2="1730.42"/>
    <line id="Line_39" data-name="Line 39" class="cls-1" x1="1669.62" y1="365.53" x2="365.53" y2="1669.62"/>
    <line id="Line_40" data-name="Line 40" class="cls-1" x1="1791.23" y1="487.14" x2="487.13" y2="1791.23"/>
    <line id="Line_41" data-name="Line 41" class="cls-1" x1="1821.63" y1="517.54" x2="517.54" y2="1821.63"/>
    <line id="Line_42" data-name="Line 42" class="cls-1" x1="1760.82" y1="456.73" x2="456.73" y2="1760.82"/>
    <line id="Line_43" data-name="Line 43" class="cls-1" x1="1882.43" y1="578.34" x2="578.34" y2="1882.43"/>
    <line id="Line_44" data-name="Line 44" class="cls-1" x1="1912.83" y1="608.74" x2="608.74" y2="1912.83"/>
    <line id="Line_45" data-name="Line 45" class="cls-1" x1="1852.03" y1="547.94" x2="547.94" y2="1852.03"/>
    <line id="Line_46" data-name="Line 46" class="cls-1" x1="1973.64" y1="669.55" x2="669.54" y2="1973.64"/>
    <line id="Line_47" data-name="Line 47" class="cls-1" x1="2004.04" y1="699.95" x2="699.95" y2="2004.04"/>
    <line id="Line_48" data-name="Line 48" class="cls-1" x1="1943.23" y1="639.14" x2="639.14" y2="1943.23"/>
    <line id="Line_61" data-name="Line 61" class="cls-1" x1="1335.2" y1="31.11" x2="31.11" y2="1335.2"/>
    <line id="Line_62" data-name="Line 62" class="cls-1" x1="1365.6" y1="61.51" x2="61.51" y2="1365.6"/>
    <line id="Line_64" data-name="Line 64" class="cls-1" x1="1426.41" y1="122.31" x2="122.31" y2="1426.41"/>
    <line id="Line_65" data-name="Line 65" class="cls-1" x1="1456.81" y1="152.72" x2="152.72" y2="1456.81"/>
    <line id="Line_66" data-name="Line 66" class="cls-1" x1="1396" y1="91.91" x2="91.91" y2="1396"/>
    <line id="Line_67" data-name="Line 67" class="cls-1" x1="1517.61" y1="213.52" x2="213.52" y2="1517.61"/>
    <line id="Line_68" data-name="Line 68" class="cls-1" x1="1548.01" y1="243.92" x2="243.92" y2="1548.01"/>
    <line id="Line_69" data-name="Line 69" class="cls-1" x1="1487.21" y1="183.12" x2="183.12" y2="1487.21"/>
    <line id="Line_70" data-name="Line 70" class="cls-1" x1="1608.82" y1="304.72" x2="304.72" y2="1608.82"/>
    <line id="Line_71" data-name="Line 71" class="cls-1" x1="1639.22" y1="335.13" x2="335.13" y2="1639.22"/>
    <line id="Line_72" data-name="Line 72" class="cls-1" x1="1578.41" y1="274.32" x2="274.32" y2="1578.41"/>
    <line id="Line_63" data-name="Line 63" class="cls-1" x1="1304.8" y1=".71" x2=".71" y2="1304.8"/>
  </g>
</svg>