<?xml version="1.0" encoding="UTF-8"?>
<svg id="Layer_1" data-name="Layer 1" xmlns="http://www.w3.org/2000/svg" viewBox="0 0 198.04 198.04">
  <defs>
    <style>
      .cls-1, .cls-2 {
        fill: #fff;
      }

      .cls-1, .cls-2, .cls-3 {
        stroke: #231f20;
        stroke-miterlimit: 10;
      }

      .cls-1, .cls-3 {
        stroke-width: 9px;
      }

      .cls-2 {
        stroke-width: 5px;
      }

      .cls-3 {
        fill: none;
      }
    </style>
  </defs>
  <circle class="cls-1" cx="99.02" cy="99.02" r="94.52"/>
  <g>
    <path class="cls-2" d="m99.09,45.92l-53.57,20.69s-.04.08,0,.09l53.57,23.22,53.46-21.97s.03-.05,0-.06l-53.46-21.97Z"/>
    <path class="cls-2" d="m45.41,67.75v56.56l53.58,27.8s.03,0,.03-.02l.08-62.17-52.68-22.83c-.47-.21-1,.14-1,.66Z"/>
    <path class="cls-2" d="m152.63,69.37v56.46l-53.49,26.24c-.05.03-.12-.01-.12-.07l.08-62.08,52.19-21.45c.64-.26,1.34.21,1.34.9Z"/>
  </g>
  <line class="cls-3" x1="163.82" y1="34.22" x2="34.22" y2="163.82"/>
</svg>