<?xml version="1.0" encoding="UTF-8"?>
<svg id="Layer_1" data-name="Layer 1" xmlns="http://www.w3.org/2000/svg" viewBox="0 0 1139.57 183.66">
  <defs>
    <style>
      .cls-1 {
        fill: #e51b6c;
        stroke-width: 0px;
      }
    </style>
  </defs>
  <g id="stars_1" data-name="stars 1">
    <path id="Polygon_8" data-name="Polygon 8" class="cls-1" d="m96.26,0l30.3,59.66,65.94,10.49-47.18,47.36,10.42,66.15-59.48-30.39-59.49,30.39,10.43-66.15L0,70.15l65.94-10.49L96.26,0Z"/>
    <path id="Polygon_9" data-name="Polygon 9" class="cls-1" d="m333.03,0l30.3,59.66,65.94,10.49-47.18,47.36,10.42,66.15-59.48-30.39-59.49,30.39,10.43-66.15-47.2-47.36,65.94-10.49L333.03,0Z"/>
    <path id="Polygon_10" data-name="Polygon 10" class="cls-1" d="m569.79,0l30.3,59.66,65.94,10.49-47.18,47.36,10.42,66.15-59.48-30.39-59.49,30.39,10.43-66.15-47.2-47.36,65.94-10.49L569.79,0Z"/>
    <path id="Polygon_11" data-name="Polygon 11" class="cls-1" d="m806.56,0l30.3,59.66,65.94,10.49-47.18,47.36,10.42,66.15-59.48-30.39-59.49,30.39,10.43-66.15-47.2-47.36,65.94-10.49L806.56,0Z"/>
    <path id="Polygon_11-2" data-name="Polygon 11" class="cls-1" d="m1043.33,0l30.3,59.66,65.94,10.49-47.18,47.36,10.42,66.15-59.48-30.39-59.49,30.39,10.43-66.15-47.2-47.36,65.94-10.49,30.32-59.66Z"/>
  </g>
</svg>