<?xml version="1.0" encoding="UTF-8"?>
<svg id="Layer_1" data-name="Layer 1" xmlns="http://www.w3.org/2000/svg" viewBox="0 0 1139.58 183.66">
  <defs>
    <style>
      .cls-1 {
        fill: #e51b6c;
      }

      .cls-1, .cls-2 {
        stroke-width: 0px;
      }

      .cls-2 {
        fill: none;
      }
    </style>
  </defs>
  <g id="stars_1" data-name="stars 1">
    <path id="Polygon_8" data-name="Polygon 8" class="cls-1" d="m96.26,0l30.3,59.66,65.94,10.49-47.18,47.36,10.42,66.15-59.48-30.39-59.49,30.39,10.43-66.15L0,70.15l65.94-10.49L96.26,0Z"/>
    <path id="Polygon_9" data-name="Polygon 9" class="cls-1" d="m333.03,0l30.3,59.66,65.94,10.49-47.18,47.36,10.42,66.15-59.48-30.39-59.49,30.39,10.43-66.15-47.2-47.36,65.94-10.49L333.03,0Z"/>
    <path id="Polygon_10" data-name="Polygon 10" class="cls-1" d="m569.79,0l30.3,59.66,65.94,10.49-47.18,47.36,10.42,66.15-59.48-30.39-59.49,30.39,10.43-66.15-47.2-47.36,65.94-10.49L569.79,0Z"/>
    <path id="Polygon_11" data-name="Polygon 11" class="cls-1" d="m806.56,0l30.3,59.66,65.94,10.49-47.18,47.36,10.42,66.15-59.48-30.39-59.49,30.39,10.43-66.15-47.2-47.36,65.94-10.49L806.56,0Z"/>
    <g id="Polygon_12" data-name="Polygon 12">
      <path class="cls-2" d="m1043.33,0l30.3,59.66,65.94,10.49-47.18,47.36,10.42,66.15-59.48-30.39-59.49,30.39,10.43-66.15-47.2-47.36,65.94-10.49,30.32-59.66Z"/>
      <path class="cls-1" d="m1043.33,37.45l-19.11,37.61-41.69,6.63,29.85,29.95-6.58,41.75,37.54-19.18,37.54,19.18-6.58-41.75,29.85-29.95-41.69-6.63-19.11-37.61M1043.33,0l30.32,59.66,65.94,10.49-47.2,47.36,10.43,66.15-59.49-30.39-59.49,30.39,10.43-66.15-47.2-47.36,65.94-10.49L1043.33,0Z"/>
    </g>
  </g>
</svg>