<?xml version="1.0" encoding="UTF-8"?>
<svg id="Layer_1" data-name="Layer 1" xmlns="http://www.w3.org/2000/svg" viewBox="0 0 330.6 114.75">
  <defs>
    <style>
      .cls-1, .cls-2, .cls-3 {
        stroke-width: 0px;
      }

      .cls-2 {
        fill: #e51b6c;
      }

      .cls-3 {
        fill: #27aae1;
      }
    </style>
  </defs>
  <g>
    <path class="cls-2" d="m151.98,90.5l-.69,3.1h-8.03l-4.64,21.14h-4.95l4.64-21.14h-8.07l.69-3.1h21.04Z"/>
    <path class="cls-2" d="m161.22,93.57l-1.6,7.36h10.41l-.65,3.07h-10.41l-1.69,7.64h11.71l-.69,3.11h-16.66l5.34-24.28h16.66l-.69,3.1h-11.71Z"/>
    <path class="cls-2" d="m193.63,109.79h-12.62l-3.25,4.95h-5.16l16.14-24.28h5.73l5.47,24.28h-5.21l-1.08-4.95Zm-.65-3.11l-2.47-11.41-7.46,11.41h9.94Z"/>
  </g>
  <rect class="cls-2" x="159.61" y="-14.47" width="5.33" height="111.66" transform="translate(76.78 -102.63) rotate(45)"/>
  <rect class="cls-3" x="141.03" y="-4.2" width="2.74" height="111.66" transform="translate(78.21 -85.57) rotate(45)"/>
  <g>
    <polygon class="cls-3" points="0 32.44 13.76 32.44 13.76 73.07 28.27 73.07 28.27 32.44 42.18 32.44 42.18 20.9 0 20.9 0 32.44"/>
    <rect class="cls-3" x="47.58" y="20.9" width="14.5" height="52.17"/>
    <polygon class="cls-3" points="113.81 20.9 101.01 54.79 87.91 20.9 70.37 20.9 70.37 73.07 84.88 73.07 84.88 44.06 94.79 73.07 106.93 73.07 116.77 44.28 116.77 73.07 120.09 73.07 131.28 61.88 131.28 20.9 113.81 20.9"/>
    <polygon class="cls-3" points="139.56 20.9 139.56 53.59 154.07 39.09 154.07 32.51 160.64 32.51 172.26 20.9 139.56 20.9"/>
  </g>
  <g>
    <polygon class="cls-1" points="146.83 63.41 146.26 61.17 140.16 67.26 141.8 73.03 151.27 72.96 158.29 49.14 147.9 59.53 146.83 63.41"/>
    <polygon class="cls-1" points="178.58 63.19 171.54 35.88 165.05 42.37 173.54 72.96 183.09 72.96 198.33 21.53 189.31 21.53 178.58 63.19"/>
    <path class="cls-1" d="m211.68,21.45l-18.43,51.5h8.81l3.7-10.51h21.53l3.7,10.51h8.88l-18.43-51.5h-9.77Zm-3.55,34.11l8.44-23.9,8.36,23.9h-16.8Z"/>
    <path class="cls-1" d="m280.91,46.06c1.95-2.74,2.92-5.78,2.92-9.14,0-2.86-.68-5.45-2.04-7.77-1.36-2.32-3.4-4.17-6.14-5.55-2.74-1.38-6.08-2.07-10.03-2.07h-17.76v51.43h8.44v-20.57h6.44l11.84,20.57h10.06l-12.73-21.31c4.04-.99,7.04-2.85,8.99-5.59Zm-24.6-.41v-17.24h9.32c3.21,0,5.6.75,7.18,2.26,1.58,1.51,2.37,3.59,2.37,6.25s-.8,4.79-2.41,6.36c-1.6,1.58-3.98,2.37-7.14,2.37h-9.32Z"/>
    <path class="cls-1" d="m328.56,29.08c-1.36-2.32-3.4-4.16-6.14-5.51-2.74-1.36-6.08-2.04-10.03-2.04h-17.76v51.43h8.44v-20.87h9.32c4.24,0,7.72-.73,10.43-2.18,2.71-1.45,4.69-3.34,5.92-5.66,1.23-2.32,1.85-4.78,1.85-7.4,0-2.86-.68-5.45-2.04-7.77Zm-8.99,13.95c-1.58,1.46-3.97,2.18-7.18,2.18h-9.32v-16.8h9.32c6.36,0,9.55,2.81,9.55,8.44,0,2.66-.79,4.72-2.37,6.18Z"/>
  </g>
</svg>