<?xml version="1.0" encoding="UTF-8"?>
<svg id="Layer_1" data-name="Layer 1" xmlns="http://www.w3.org/2000/svg" viewBox="0 0 292.11 178.48">
  <defs>
    <style>
      .cls-1, .cls-2, .cls-3, .cls-4, .cls-5 {
        stroke-width: 0px;
      }

      .cls-2, .cls-6 {
        fill: #e51b6c;
      }

      .cls-3 {
        fill: none;
      }

      .cls-4 {
        fill: #27aae1;
      }

      .cls-5 {
        fill: #231f20;
      }

      .cls-6 {
        font-family: Poppins-MediumItalic, Poppins;
        font-size: 34.89px;
        font-style: italic;
        font-weight: 500;
      }
    </style>
  </defs>
  <text class="cls-6" transform="translate(107.33 158.18) scale(1.24 1)"><tspan x="0" y="0">TEA</tspan></text>
  <rect class="cls-2" x="121.12" y="27.6" width="5.33" height="111.66" transform="translate(95.25 -63.09) rotate(45)"/>
  <rect class="cls-4" x="141.03" y="-15.38" width="2.74" height="111.66" transform="translate(70.31 -88.85) rotate(45)"/>
  <g>
    <polygon class="cls-5" points="0 20.26 13.76 20.26 13.76 60.88 28.27 60.88 28.27 20.26 42.18 20.26 42.18 8.71 0 8.71 0 20.26"/>
    <rect class="cls-5" x="47.58" y="8.71" width="14.5" height="52.17"/>
    <polygon class="cls-5" points="113.81 8.71 101.01 42.61 87.91 8.71 70.37 8.71 70.37 60.88 84.88 60.88 84.88 31.88 94.79 60.88 106.93 60.88 116.77 32.1 116.77 60.88 120.09 60.88 131.28 49.7 131.28 8.71 113.81 8.71"/>
    <polygon class="cls-5" points="139.56 8.71 139.56 41.41 154.07 26.91 154.07 20.33 160.64 20.33 172.26 8.71 139.56 8.71"/>
  </g>
  <path class="cls-3" d="m236.68,78.99c0-2.66-.79-4.75-2.37-6.25-1.58-1.5-3.97-2.26-7.18-2.26h-9.32v17.24h9.32c3.16,0,5.54-.79,7.14-2.37,1.6-1.58,2.41-3.7,2.41-6.36Z"/>
  <polygon class="cls-3" points="109.41 101.6 107.77 103.24 108.34 105.48 109.41 101.6"/>
  <polygon class="cls-3" points="119.8 91.21 126.57 84.44 124.25 76.1 119.8 91.21"/>
  <polygon class="cls-3" points="169.64 97.64 186.44 97.64 178.08 73.73 169.64 97.64"/>
  <path class="cls-3" d="m273.9,70.48h-9.32v16.8h9.32c3.21,0,5.6-.73,7.18-2.18,1.58-1.45,2.37-3.52,2.37-6.18,0-5.62-3.18-8.44-9.55-8.44Z"/>
  <g>
    <polygon class="cls-1" points="108.34 105.48 107.77 103.24 101.68 109.33 103.31 115.1 112.78 115.03 119.8 91.21 109.41 101.6 108.34 105.48"/>
    <polygon class="cls-1" points="140.09 105.26 133.05 77.95 126.57 84.44 135.05 115.03 144.6 115.03 159.85 63.6 150.82 63.6 140.09 105.26"/>
    <path class="cls-1" d="m173.19,63.52l-18.43,51.5h8.81l3.7-10.51h21.53l3.7,10.51h8.88l-18.43-51.5h-9.77Zm-3.55,34.11l8.44-23.9,8.36,23.9h-16.8Z"/>
    <path class="cls-1" d="m242.42,88.13c1.95-2.74,2.92-5.78,2.92-9.14,0-2.86-.68-5.45-2.04-7.77-1.36-2.32-3.4-4.17-6.14-5.55-2.74-1.38-6.08-2.07-10.03-2.07h-17.76v51.43h8.44v-20.57h6.44l11.84,20.57h10.06l-12.73-21.31c4.04-.99,7.04-2.85,8.99-5.59Zm-24.6-.41v-17.24h9.32c3.21,0,5.6.75,7.18,2.26,1.58,1.51,2.37,3.59,2.37,6.25s-.8,4.79-2.41,6.36c-1.6,1.58-3.98,2.37-7.14,2.37h-9.32Z"/>
    <path class="cls-1" d="m290.07,71.14c-1.36-2.32-3.4-4.16-6.14-5.51-2.74-1.36-6.08-2.04-10.03-2.04h-17.76v51.43h8.44v-20.87h9.32c4.24,0,7.72-.73,10.43-2.18,2.71-1.45,4.69-3.34,5.92-5.66,1.23-2.32,1.85-4.78,1.85-7.4,0-2.86-.68-5.45-2.04-7.77Zm-8.99,13.95c-1.58,1.46-3.97,2.18-7.18,2.18h-9.32v-16.8h9.32c6.36,0,9.55,2.81,9.55,8.44,0,2.66-.79,4.72-2.37,6.18Z"/>
  </g>
</svg>