<?xml version="1.0" encoding="UTF-8"?>
<svg xmlns="http://www.w3.org/2000/svg" xmlns:xlink="http://www.w3.org/1999/xlink" viewBox="0 0 283.04 539.8">
  <defs>
    <style>
      .cls-1, .cls-2, .cls-3, .cls-4 {
        fill: none;
      }

      .cls-1, .cls-3, .cls-4 {
        stroke-miterlimit: 10;
      }

      .cls-1, .cls-4 {
        stroke: #231f20;
      }

      .cls-5 {
        fill: #818285;
        opacity: .19;
      }

      .cls-5, .cls-6, .cls-7, .cls-8, .cls-2, .cls-9, .cls-10, .cls-11, .cls-12, .cls-13, .cls-14, .cls-15, .cls-16, .cls-17, .cls-18 {
        stroke-width: 0px;
      }

      .cls-6, .cls-19 {
        fill: #29aae1;
      }

      .cls-20 {
        clip-path: url(#clippath-2);
      }

      .cls-7 {
        fill: #010101;
      }

      .cls-21 {
        isolation: isolate;
      }

      .cls-8 {
        fill: #f2f2f2;
      }

      .cls-8, .cls-11, .cls-12 {
        opacity: .81;
      }

      .cls-22 {
        clip-path: url(#clippath-1);
      }

      .cls-3 {
        stroke: #939598;
      }

      .cls-9 {
        fill: #fff;
      }

      .cls-10 {
        fill: #ededed;
      }

      .cls-11 {
        fill: #dce686;
      }

      .cls-23 {
        clip-path: url(#clippath-3);
      }

      .cls-12 {
        fill: #dde0b0;
      }

      .cls-13 {
        fill: #e31d6d;
      }

      .cls-14 {
        fill: #e53534;
      }

      .cls-15 {
        fill: #dce470;
      }

      .cls-16 {
        fill: #c9de74;
      }

      .cls-17 {
        fill: #e41d6d;
      }

      .cls-18 {
        fill: #2aa7df;
      }

      .cls-4 {
        stroke-width: .75px;
      }
    </style>
    <clipPath id="clippath-1">
      <path class="cls-2" d="m228.93,210.98c-56.79,4.17-174.82,0-174.82,0-3.75-64.24,30.82-112.99,30.82-112.99,0,0,48.93-9.07,112.86,0,0,0,31.23,33.22,31.23,110.92l-.09,2.07Z"/>
    </clipPath>
    <clipPath id="clippath-2">
      <path class="cls-2" d="m225.85,225.77c-92.19,7.26-168.67,0-168.67,0l2.25,165.96s74.76,30.12,164.17,0l2.25-165.96Z"/>
    </clipPath>
    <clipPath id="clippath-3">
      <path class="cls-2" d="m226.08,459.23c-9.39,41.14-84.56,40.05-84.56,40.05-84.05-2.51-84.56-40.05-84.56-40.05l1.13-56.02s73.79,30.79,166.87,0l1.12,56.02Z"/>
    </clipPath>
  </defs>
  <g id="Layer_4" data-name="Layer 4">
    <path class="cls-19" d="m194.13,52.58l-.16-3.88-1.04-3.92-2.47-26.15c-6.01-14.04-41.44-14.08-41.44-14.08h-15s-35.43.04-41.44,14.08l-2.47,26.15-1.04,3.92-.16,3.88s46.04-15.93,105.22,0Z"/>
    <path class="cls-10" d="m194.13,52.58c-57.43-16.08-105.22,0-105.22,0l1.8,2.1-1.8,2.7s51.96-15.9,105.22,0l-1.8-2.7,1.8-2.1Z"/>
    <path class="cls-2" d="m194.13,64.84c-57.99-14.4-105.22,0-105.22,0v5.74s49.71-16.76,105.22,0v-5.74Z"/>
    <path class="cls-4" d="m194.13,64.84c-60.69-14.62-105.22,0-105.22,0v5.74s43.41-16.31,105.22,0v-5.74Z"/>
    <path class="cls-12" d="m194.13,70.58c-57.09-16.53-105.22,0-105.22,0l6.3,2.4s43.64-11.43,92.62,0l6.3-2.4Z"/>
    <path class="cls-11" d="m187.83,72.98c-48.69-10.98-92.62,0-92.62,0l2.4,9.9s-3.77,3.04-12.68,15.11c0,0,52.98-9.07,112.86,0,0,0-7.8-11.85-12.36-15.11l2.4-9.9Z"/>
    <path class="cls-9" d="m228.93,210.98c-56.79,4.17-174.82,0-174.82,0-3.75-64.24,30.82-112.99,30.82-112.99,0,0,48.93-9.07,112.86,0,0,0,31.23,33.22,31.23,110.92l-.09,2.07Z"/>
    <g class="cls-22">
      <g>
        <path class="cls-3" d="m133.23,57.78C91.19,97.23,48.98,140.27,7.07,186.91"/>
        <path class="cls-3" d="m140.3,65.32c-42.02,39.04-84.23,81.69-126.18,127.93"/>
        <path class="cls-3" d="m147.37,72.93c-42,38.64-84.21,80.88-126.18,126.72"/>
        <path class="cls-3" d="m154.43,80.6c-41.97,38.24-84.19,80.07-126.18,125.51"/>
        <path class="cls-3" d="m161.49,88.35c-41.94,37.83-84.16,79.27-126.18,124.29"/>
        <path class="cls-3" d="m168.54,96.16c-41.91,37.43-84.12,78.46-126.16,123.08"/>
      </g>
    </g>
    <path class="cls-11" d="m225.85,225.77c-82.29,7.03-168.67,0-168.67,0,5.09-10.29-3.08-14.79-3.08-14.79,0,0,100.34,3.94,174.82,0,0,0-8.43,4.27-3.37,14.23l.29.56Z"/>
    <path class="cls-9" d="m225.85,225.77c-92.19,7.26-168.67,0-168.67,0l2.25,165.96s74.76,30.12,164.17,0l2.25-165.96Z"/>
    <g class="cls-20">
      <g>
        <g id="Pattern_3" data-name="Pattern 3">
          <path id="Ellipse_30" data-name="Ellipse 30" class="cls-15" d="m182.23,218.38c39.93-3.63,71.52,19.12,71.5,58.67.02,39.34-31.57,80.55-71.5,84.18-39.91,3.83-72.39-31.33-72.35-70.67-.04-39.55,32.44-68.35,72.35-72.18Z"/>
          <path id="Ellipse_27" data-name="Ellipse 27" class="cls-14" d="m116.27,314.7c27.4,1.63,49.64,21.93,49.63,49.02.01,27-22.23,50.56-49.63,48.93-27.41-1.54-49.39-27.67-49.38-54.67,0-27.1,21.98-44.82,49.38-43.28Z"/>
          <path id="Ellipse_28" data-name="Ellipse 28" class="cls-14" d="m169.74,294.31c33.06-2.07,59.47,18.4,59.46,51.1.01,32.56-26.39,64.98-59.46,67.05-33.06,2.21-59.88-26.76-59.86-59.31-.02-32.7,26.8-56.64,59.86-58.84Z"/>
          <path id="Ellipse_29" data-name="Ellipse 29" class="cls-16" d="m84.94,259.27c31.88,4.22,57.95,29.24,57.93,60.93.02,31.55-26.05,57.8-57.93,53.58-31.89-4.09-57.17-37.09-57.16-68.64,0-31.69,25.27-49.96,57.16-45.87Z"/>
          <path id="Ellipse_31" data-name="Ellipse 31" class="cls-14" d="m18.65,346.91c7.46,2.19,13.56,9.89,13.56,17.49,0,7.59-6.1,12.2-13.56,10.01-7.47-2.18-13.46-10.34-13.46-17.94,0-7.6,6-11.75,13.46-9.57Z"/>
          <path id="Ellipse_32" data-name="Ellipse 32" class="cls-14" d="m66.89,187.48c12.43,2.17,22.58,13.35,22.58,25.76,0,12.39-10.15,21.31-22.58,19.14-12.43-2.15-22.42-14.56-22.42-26.95,0-12.41,9.99-20.1,22.42-17.96Z"/>
          <path id="Ellipse_33" data-name="Ellipse 33" class="cls-14" d="m239.26,238.12c7.55-1.73,13.63,2.79,13.63,10.39,0,7.59-6.08,15.38-13.63,17.11-7.55,1.74-13.71-3.24-13.71-10.84,0-7.6,6.16-14.93,13.71-16.67Z"/>
          <path id="Ellipse_34" data-name="Ellipse 34" class="cls-14" d="m206.83,175.69c3.96-2.87,9.02-2.37,11.29,1.16,2.28,3.53.93,8.82-3.02,11.78-3.95,2.96-9.01,2.38-11.3-1.24-2.29-3.62-.93-8.83,3.03-11.7Z"/>
        </g>
        <path class="cls-5" d="m242.31,391.78c-65.84,15.61-134.42,15.71-200.29.31v-205.77c65.87,15.41,134.45,15.31,200.29-.31v205.77Z"/>
        <g>
          <path class="cls-13" d="m151.44,373.9c.32.31.64.62.96.93-6.72,6.8-13.44,13.44-20.16,19.92-.32-.32-.64-.65-.96-.97,6.72-6.47,13.44-13.1,20.16-19.88Z"/>
          <path class="cls-18" d="m144.72,376.37c.16.16.33.32.49.48-6.72,6.69-13.44,13.22-20.16,19.59-.16-.17-.33-.34-.49-.51,6.72-6.37,13.44-12.89,20.16-19.57Z"/>
          <g>
            <path class="cls-18" d="m98.58,379.63c1.17.12,2.33.23,3.5.33,0,3.41,0,6.82,0,10.23,1.23.11,2.46.22,3.69.32,0-3.41,0-6.82,0-10.23,1.18.1,2.36.19,3.54.28v-2.91c-3.58-.26-7.16-.57-10.74-.93v2.91Z"/>
            <path class="cls-18" d="m110.7,377.74c1.23.09,2.46.17,3.7.25v13.14c-1.23-.08-2.46-.16-3.7-.25v-13.14Z"/>
            <path class="cls-18" d="m127.59,378.61c-1.09,2.81-2.18,5.62-3.27,8.42-1.11-2.89-2.23-5.78-3.34-8.68-1.49-.07-2.98-.15-4.47-.23v13.14c1.23.07,2.47.14,3.7.2v-7.3c.84,2.48,1.69,4.95,2.53,7.42,1.03.04,2.07.09,3.1.12.84-2.39,1.67-4.77,2.51-7.17v7.25c.28,0,.56.02.85.02.95-.91,1.9-1.83,2.86-2.74v-10.32c-1.49-.03-2.97-.07-4.46-.12Z"/>
            <path class="cls-18" d="m134.16,378.77v8.24c1.23-1.2,2.47-2.4,3.7-3.61v-1.66c.56,0,1.12,0,1.68.01.99-.97,1.98-1.95,2.97-2.92-2.78,0-5.57-.01-8.35-.06Z"/>
          </g>
          <g>
            <path class="cls-7" d="m137.59,390.21c-.05-.19-.1-.38-.15-.57-.52.51-1.04,1.01-1.55,1.52.14.49.28.97.42,1.46.81,0,1.61,0,2.42,0,.6-2,1.19-3.99,1.79-5.99-.88.87-1.77,1.74-2.65,2.6-.09.32-.18.65-.27.97Z"/>
            <path class="cls-7" d="m145.69,390.16c-.6-2.29-1.2-4.58-1.8-6.86-.55.55-1.1,1.09-1.65,1.64.72,2.57,1.44,5.13,2.17,7.69.81,0,1.63-.01,2.44-.02,1.3-4.33,2.6-8.67,3.89-13.02-.77.02-1.54.03-2.31.04-.91,3.51-1.83,7.02-2.74,10.53Z"/>
            <path class="cls-7" d="m154.14,379.48c-1.57,4.37-3.14,8.73-4.7,13.08.75-.01,1.5-.03,2.25-.05.31-.89.63-1.78.94-2.67,1.83-.05,3.66-.1,5.5-.17.31.87.63,1.74.94,2.61.76-.03,1.51-.06,2.27-.1-1.57-4.25-3.14-8.51-4.7-12.78-.83.03-1.66.06-2.49.08,0,0,0,0,0,0Zm-.91,8.62c.72-2.03,1.44-4.05,2.15-6.08.71,1.98,1.42,3.97,2.13,5.95-1.43.05-2.86.1-4.29.14Z"/>
            <path class="cls-7" d="m171.8,384.81c.5-.72.74-1.51.74-2.35,0-.72-.17-1.36-.52-1.92-.35-.56-.87-.99-1.56-1.29-.7-.3-1.55-.42-2.56-.36-1.51.09-3.02.17-4.53.25v12.95c.72-.04,1.44-.07,2.15-.11,0-1.73,0-3.45,0-5.18.55-.03,1.09-.06,1.64-.09,1.01,1.67,2.01,3.33,3.02,4.99.85-.06,1.71-.11,2.56-.18-1.08-1.71-2.16-3.43-3.24-5.15,1.03-.32,1.79-.84,2.29-1.56,0,0,0,0,0,0Zm-6.27.29v-4.34c.79-.04,1.58-.09,2.38-.14.82-.05,1.43.1,1.83.45.4.35.6.86.6,1.53,0,.67-.2,1.22-.61,1.64-.41.42-1.01.66-1.82.71-.79.05-1.58.09-2.38.14t0,0Z"/>
            <path class="cls-7" d="m183.94,379.52c-.35-.55-.86-.96-1.56-1.24-.7-.28-1.55-.37-2.55-.28-1.51.13-3.01.26-4.52.37v12.95c.72-.06,1.43-.11,2.15-.17v-5.26c.79-.07,1.58-.13,2.37-.2,1.08-.1,1.97-.36,2.65-.79.69-.43,1.19-.95,1.51-1.57.31-.61.47-1.25.47-1.91,0-.72-.17-1.36-.52-1.91,0,0,0,0,0,0Zm-2.29,3.73c-.4.4-1.01.64-1.83.71-.79.07-1.58.14-2.37.2v-4.23c.79-.07,1.58-.13,2.37-.2,1.62-.14,2.43.49,2.43,1.9,0,.67-.2,1.21-.6,1.61Z"/>
          </g>
        </g>
        <g>
          <path class="cls-13" d="m251.04,360.06c.31.24.63.47.94.7-6.55,8.34-13.14,16.53-19.75,24.56-.32-.25-.63-.5-.95-.75,6.61-8.02,13.2-16.19,19.75-24.51Z"/>
          <path class="cls-18" d="m244.47,364.08c.16.12.32.25.48.37-6.57,8.23-13.18,16.31-19.8,24.23-.16-.13-.33-.26-.49-.39,6.63-7.91,13.23-15.98,19.81-24.2Z"/>
          <g>
            <path class="cls-18" d="m198.89,377.96c1.16-.15,2.33-.31,3.49-.48v10.23c1.23-.17,2.45-.35,3.68-.53v-10.23c1.17-.18,2.35-.36,3.52-.54v-2.91c-3.56.56-7.12,1.08-10.68,1.55,0,.97,0,1.94,0,2.91Z"/>
            <path class="cls-18" d="m210.95,373.28c1.22-.2,2.44-.4,3.66-.61v13.14c-1.22.21-2.44.41-3.66.61,0-4.38,0-8.76,0-13.14Z"/>
            <path class="cls-18" d="m227.65,370.26c-1.07,3.06-2.15,6.12-3.22,9.17-1.1-2.63-2.2-5.27-3.3-7.91-1.47.27-2.95.54-4.42.8,0,4.38,0,8.76,0,13.14,1.22-.21,2.44-.43,3.66-.66v-7.3c.83,2.28,1.67,4.56,2.5,6.84,1.02-.19,2.04-.39,3.06-.59.83-2.58,1.65-5.16,2.48-7.74,0,2.42,0,4.83,0,7.25.28-.06.56-.11.83-.17.94-1.13,1.87-2.26,2.81-3.4v-10.32c-1.46.31-2.93.61-4.39.91Z"/>
            <path class="cls-18" d="m234.12,368.91v8.24c1.21-1.48,2.43-2.97,3.64-4.46v-1.66c.55-.12,1.1-.25,1.65-.38.97-1.2,1.94-2.4,2.91-3.61-2.73.65-5.46,1.27-8.19,1.86Z"/>
          </g>
          <g>
            <path class="cls-7" d="m237.48,379.56c-.05-.18-.1-.35-.14-.53-.51.63-1.02,1.25-1.53,1.87.14.45.27.91.41,1.36.79-.18,1.58-.37,2.37-.55.59-2.13,1.17-4.27,1.76-6.4-.87,1.07-1.73,2.14-2.6,3.21-.09.35-.18.69-.27,1.04Z"/>
            <path class="cls-7" d="m245.42,377.64c-.59-2.15-1.17-4.3-1.76-6.45-.54.67-1.08,1.35-1.62,2.02.71,2.4,1.41,4.8,2.12,7.2.8-.19,1.59-.39,2.39-.58,1.27-4.63,2.54-9.27,3.8-13.91-.75.19-1.5.38-2.25.57-.89,3.72-1.79,7.44-2.68,11.16Z"/>
            <path class="cls-7" d="m253.67,365.02c-1.53,4.73-3.06,9.45-4.59,14.16.73-.19,1.46-.37,2.2-.56.31-.96.61-1.92.92-2.89,1.79-.47,3.57-.95,5.35-1.44.31.8.61,1.6.92,2.39.73-.2,1.47-.41,2.2-.62-1.52-3.89-3.05-7.79-4.58-11.7-.81.22-1.62.44-2.43.65,0,0,0,0,0,0Zm-.88,8.82c.7-2.19,1.4-4.38,2.1-6.58.69,1.82,1.39,3.64,2.08,5.46-1.39.38-2.78.76-4.18,1.12Z"/>
            <path class="cls-7" d="m270.83,366.29c.48-.84.72-1.68.72-2.53,0-.72-.17-1.32-.5-1.8-.34-.48-.84-.79-1.51-.93-.68-.14-1.5-.06-2.48.23-1.46.44-2.93.87-4.39,1.29,0,4.32,0,8.63,0,12.95.7-.2,1.39-.4,2.09-.61v-5.18c.53-.16,1.06-.31,1.59-.47.98,1.44,1.95,2.87,2.93,4.3.83-.25,1.65-.51,2.48-.77-1.05-1.46-2.09-2.93-3.14-4.4,1-.55,1.74-1.25,2.22-2.09,0,0,0,0,0,0Zm-6.08,1.73v-4.34c.77-.23,1.54-.45,2.3-.68.79-.24,1.38-.23,1.77.03.39.26.59.73.59,1.4,0,.67-.2,1.27-.59,1.78-.4.52-.98.9-1.76,1.13-.77.23-1.54.46-2.3.68t0,0Z"/>
            <path class="cls-7" d="m282.54,358.2c-.33-.47-.83-.76-1.5-.88-.67-.12-1.49-.01-2.46.31-1.45.48-2.91.95-4.37,1.42v12.95c.69-.22,1.38-.44,2.08-.67v-5.26c.76-.25,1.53-.5,2.29-.75,1.04-.34,1.89-.81,2.56-1.4.66-.59,1.15-1.23,1.45-1.92.3-.69.45-1.36.45-2.02,0-.72-.17-1.32-.5-1.79,0,0,0,0,0,0Zm-2.2,4.26c-.39.5-.97.88-1.76,1.14-.76.25-1.53.5-2.29.75v-4.23c.76-.25,1.53-.5,2.29-.75,1.56-.52,2.34-.07,2.34,1.34,0,.67-.19,1.25-.58,1.75Z"/>
          </g>
        </g>
        <g>
          <path class="cls-13" d="m51.45,364.62c.32.38.63.77.95,1.15-6.61,5.25-13.2,10.35-19.76,15.29-.31-.4-.63-.79-.94-1.19,6.56-4.93,13.14-10.01,19.75-15.24Z"/>
          <path class="cls-18" d="m44.84,365.56c.16.2.32.4.49.6-6.59,5.14-13.16,10.12-19.7,14.95-.16-.21-.32-.41-.48-.62,6.54-4.82,13.1-9.8,19.7-14.93Z"/>
          <g>
            <path class="cls-18" d="m0,358.18c1.12.38,2.25.76,3.37,1.14v10.23c1.19.4,2.37.79,3.56,1.17v-10.23c1.14.37,2.28.73,3.42,1.09v-2.91c-3.46-1.09-6.92-2.22-10.36-3.4v2.91Z"/>
            <path class="cls-18" d="m11.69,359.1c1.19.37,2.38.74,3.58,1.1v13.14c-1.19-.36-2.39-.73-3.58-1.1v-13.14Z"/>
            <path class="cls-18" d="m28.09,363.85c-1.06,2.56-2.12,5.12-3.18,7.67-1.08-3.15-2.17-6.3-3.25-9.45-1.45-.41-2.9-.83-4.34-1.26v13.14c1.2.35,2.39.7,3.59,1.05,0-2.43,0-4.87,0-7.3.82,2.67,1.64,5.34,2.46,8,1,.28,2.01.56,3.01.84.81-2.19,1.63-4.39,2.45-6.59v7.25c.28.07.55.15.83.22.93-.69,1.86-1.39,2.79-2.09v-10.32c-1.45-.37-2.9-.76-4.35-1.15Z"/>
            <path class="cls-18" d="m34.51,365.52v8.24c1.21-.91,2.41-1.83,3.62-2.75v-1.66c.55.13,1.09.27,1.64.4.97-.74,1.94-1.49,2.91-2.24-2.73-.63-5.45-1.29-8.17-1.98Z"/>
          </g>
          <g>
            <path class="cls-7" d="m37.85,377.75c-.05-.2-.09-.4-.14-.6-.51.39-1.01.77-1.52,1.16.14.52.27,1.04.41,1.55.79.19,1.58.38,2.37.56.58-1.86,1.17-3.72,1.76-5.58-.87.67-1.73,1.33-2.6,1.99-.09.3-.18.61-.27.91Z"/>
            <path class="cls-7" d="m45.79,379.56c-.59-2.42-1.18-4.85-1.76-7.28-.54.42-1.08.84-1.62,1.26.71,2.73,1.42,5.46,2.12,8.19.8.18,1.6.36,2.39.54,1.27-4.03,2.55-8.08,3.83-12.12-.76-.16-1.51-.32-2.27-.49-.9,3.3-1.79,6.6-2.69,9.9Z"/>
            <path class="cls-7" d="m54.1,370.83c-1.54,4.01-3.09,8.01-4.63,12,.74.16,1.47.32,2.21.47.31-.82.62-1.63.93-2.45,1.8.37,3.61.74,5.42,1.09.31.94.62,1.89.93,2.83.75.14,1.49.28,2.24.42-1.55-4.61-3.1-9.23-4.64-13.86-.82-.16-1.64-.33-2.46-.49,0,0,0,0,0,0Zm-.89,8.41c.71-1.86,1.41-3.72,2.12-5.59.7,2.15,1.4,4.29,2.1,6.44-1.41-.28-2.82-.56-4.23-.85Z"/>
            <path class="cls-7" d="m71.56,380.23c.49-.61.74-1.34.74-2.18,0-.72-.17-1.4-.52-2.04-.34-.64-.86-1.19-1.55-1.65-.69-.46-1.54-.78-2.53-.95-1.5-.26-2.99-.52-4.48-.79v12.95c.71.13,1.42.26,2.13.38,0-1.73,0-3.45,0-5.18.54.1,1.08.19,1.63.28,1,1.9,1.99,3.8,2.99,5.69.85.14,1.7.28,2.54.41-1.07-1.96-2.15-3.93-3.22-5.89,1.02-.08,1.78-.42,2.27-1.03,0,0,0,0,0,0Zm-6.21-1.16v-4.34c.78.14,1.57.28,2.35.41.81.14,1.41.43,1.81.88.4.45.6,1,.6,1.67,0,.67-.2,1.17-.61,1.5-.4.33-1.01.43-1.8.29-.78-.13-1.57-.27-2.35-.41t0,0Z"/>
            <path class="cls-7" d="m83.63,377.73c-.34-.63-.86-1.16-1.56-1.6-.69-.44-1.54-.73-2.54-.87-1.5-.22-3-.44-4.5-.67v12.95c.71.11,1.42.22,2.14.32v-5.26c.79.12,1.57.23,2.36.34,1.07.15,1.96.09,2.64-.18.69-.27,1.19-.68,1.5-1.22.31-.54.47-1.14.47-1.8,0-.72-.17-1.4-.52-2.03,0,0,0,0,0,0Zm-2.28,3.2c-.4.31-1.01.41-1.82.29-.79-.11-1.57-.23-2.36-.34v-4.23c.79.12,1.57.23,2.36.34,1.61.23,2.42,1.05,2.42,2.47,0,.67-.2,1.16-.6,1.47Z"/>
          </g>
        </g>
        <path class="cls-8" d="m242.31,357.12c-65.62,15.56-133.96,15.71-199.63.46,0-33.11,0-66.21,0-99.32,65.67,15.25,134.01,15.1,199.63-.46v99.32Z"/>
        <g>
          <g class="cls-21">
            <path class="cls-15" d="m140.93,327.32c-.1.44-.2.88-.3,1.31-1.14,0-2.29,0-3.43-.02-.66,2.97-1.32,5.95-1.98,8.92-.7-.01-1.41-.02-2.11-.04.66-2.97,1.32-5.94,1.98-8.91-1.15-.02-2.3-.04-3.45-.06.1-.44.2-.87.3-1.31,3,.07,6,.1,8.99.1Z"/>
            <path class="cls-15" d="m144.88,328.61c-.23,1.04-.46,2.08-.69,3.12,1.48,0,2.97-.03,4.45-.05-.09.43-.19.87-.28,1.3-1.48.02-2.97.04-4.45.05-.24,1.08-.48,2.16-.72,3.23,1.67,0,3.34-.02,5.01-.05-.1.44-.2.88-.3,1.32-2.37.03-4.75.05-7.12.05.76-3.42,1.52-6.84,2.28-10.27,2.37,0,4.75-.04,7.12-.08-.1.44-.2.88-.3,1.32-1.67.03-3.34.05-5.01.07Z"/>
            <path class="cls-15" d="m158.73,335.14c-1.8.07-3.6.13-5.39.18-.46.71-.93,1.42-1.39,2.13-.74.02-1.47.03-2.21.05,2.3-3.47,4.6-6.95,6.9-10.45.82-.03,1.63-.06,2.45-.09.78,3.39,1.56,6.78,2.33,10.17-.74.03-1.48.07-2.22.1-.15-.69-.31-1.38-.46-2.08Zm-.28-1.3c-.35-1.59-.7-3.19-1.06-4.78-1.06,1.65-2.13,3.29-3.19,4.93,1.42-.04,2.83-.09,4.25-.14Z"/>
          </g>
          <path class="cls-15" d="m153.06,288.33c.54.52,1.08,1.03,1.62,1.55-11.28,11.47-22.57,22.5-33.84,33.09-.54-.56-1.08-1.11-1.61-1.67,11.27-10.55,22.56-21.54,33.84-32.97Z"/>
          <path class="cls-14" d="m161.43,269.81c.28.26.55.52.83.78-11.27,11.66-22.56,22.89-33.84,33.68-.28-.28-.55-.56-.83-.84,11.28-10.77,22.57-21.97,33.84-33.62Z"/>
          <g>
            <path class="cls-14" d="m84.01,275.46c1.95.26,3.91.51,5.86.74v17.17c2.06.25,4.13.48,6.19.69v-17.17c1.98.21,3.96.4,5.94.58v-4.88c-6.01-.55-12.01-1.22-18-2.01,0,1.63,0,3.26,0,4.88Z"/>
            <path class="cls-14" d="m104.31,272.79c2.07.18,4.13.34,6.2.49,0,7.35,0,14.71,0,22.06-2.07-.15-4.14-.31-6.2-.49v-22.06Z"/>
            <path class="cls-14" d="m132.67,274.28c-1.83,4.74-3.66,9.47-5.49,14.19-1.87-4.84-3.74-9.69-5.61-14.55-2.5-.11-5.01-.25-7.51-.41v22.06c2.07.13,4.14.25,6.21.35,0-4.09,0-8.17,0-12.26,1.41,4.16,2.83,8.31,4.25,12.45,1.73.07,3.47.12,5.2.17,1.41-4.02,2.81-8.04,4.22-12.08v12.17c.47,0,.95.02,1.42.02,1.6-1.55,3.2-3.12,4.8-4.69v-17.33c-2.5,0-4.99-.04-7.49-.09Z"/>
            <path class="cls-14" d="m143.71,274.37v13.83c2.07-2.05,4.15-4.12,6.22-6.21,0-.93,0-1.85,0-2.78.94-.02,1.88-.04,2.82-.06,1.66-1.68,3.32-3.37,4.98-5.07-4.67.17-9.34.27-14.01.3Z"/>
          </g>
          <g>
            <path class="cls-7" d="m130.32,315.15c-.08-.32-.16-.64-.24-.95-.87.84-1.74,1.67-2.61,2.5.23.82.47,1.64.7,2.46,1.35.03,2.71.06,4.06.08,1-3.34,2.01-6.68,3.01-10.02-1.48,1.44-2.97,2.88-4.45,4.31-.15.54-.31,1.09-.46,1.63Z"/>
            <path class="cls-7" d="m143.93,315.19c-1.01-3.84-2.01-7.69-3.02-11.54-.93.91-1.85,1.82-2.78,2.73,1.21,4.32,2.42,8.64,3.64,12.95,1.36,0,2.73,0,4.09-.02,2.18-7.27,4.36-14.56,6.54-21.86-1.29.03-2.58.06-3.87.08-1.53,5.9-3.07,11.78-4.6,17.66Z"/>
            <path class="cls-7" d="m158.12,297.23c-2.63,7.36-5.26,14.69-7.9,22,1.26-.03,2.52-.06,3.78-.09.53-1.5,1.06-2.99,1.59-4.49,3.08-.1,6.15-.23,9.22-.39.53,1.45,1.06,2.91,1.58,4.36,1.27-.07,2.53-.15,3.8-.23-2.63-7.09-5.26-14.19-7.89-21.33-1.39.07-2.79.13-4.19.18,0,0,0,0,0,0Zm-1.52,14.48c1.21-3.41,2.41-6.83,3.62-10.25,1.19,3.32,2.39,6.63,3.58,9.94-2.4.12-4.8.23-7.2.31Z"/>
            <path class="cls-7" d="m187.73,305.5c.83-1.25,1.25-2.58,1.25-4,0-1.21-.29-2.27-.87-3.19s-1.45-1.61-2.62-2.07c-1.17-.47-2.6-.62-4.28-.46-2.53.23-5.06.44-7.59.63v21.75c1.2-.09,2.41-.18,3.61-.28v-8.7c.92-.08,1.84-.15,2.75-.23,1.69,2.75,3.37,5.49,5.06,8.22,1.43-.14,2.86-.29,4.29-.45-1.81-2.8-3.62-5.62-5.43-8.45,1.73-.59,3.01-1.51,3.84-2.75,0,0,0,0,0,0Zm-10.51.82v-7.29c1.33-.11,2.66-.22,3.98-.35,1.37-.13,2.39.09,3.07.66.67.57,1.01,1.42,1.01,2.54,0,1.12-.34,2.06-1.03,2.79-.68.74-1.7,1.17-3.05,1.29-1.33.12-2.66.24-3.98.35h0Z"/>
            <path class="cls-7" d="m208.03,295.68c-.58-.89-1.44-1.54-2.61-1.94-1.17-.4-2.59-.48-4.27-.25-2.52.35-5.04.67-7.57.98v21.75c1.2-.14,2.4-.29,3.6-.45,0-2.94,0-5.88,0-8.82,1.32-.17,2.65-.35,3.97-.53,1.8-.25,3.28-.77,4.44-1.56,1.15-.78,1.99-1.71,2.52-2.77.52-1.06.79-2.14.79-3.25,0-1.21-.29-2.26-.87-3.15,0,0,0,0,0,0Zm-3.82,6.47c-.67.71-1.69,1.17-3.05,1.35-1.32.18-2.65.36-3.97.53,0-2.37,0-4.74,0-7.1,1.32-.17,2.65-.35,3.97-.53,2.71-.37,4.06.61,4.06,2.99,0,1.12-.34,2.05-1.01,2.76Z"/>
          </g>
        </g>
        <g>
          <path class="cls-7" d="m118.84,356.82c-1.97-.1-3.95-.22-5.92-.35-.32.9-.63,1.8-.95,2.7-1.35-.09-2.7-.19-4.04-.29,1.91-5.08,3.82-10.16,5.74-15.26,1.49.1,2.98.18,4.47.26,1.91,5.32,3.83,10.64,5.74,15.94-1.36-.06-2.73-.12-4.09-.18-.32-.94-.63-1.88-.95-2.82Zm-.99-3c-.66-1.95-1.31-3.9-1.97-5.85-.65,1.87-1.3,3.75-1.94,5.62,1.3.08,2.61.16,3.91.23Z"/>
          <path class="cls-7" d="m137.09,352.02c-.42.75-1.07,1.35-1.95,1.79-.88.45-1.96.66-3.26.63-.8-.02-1.6-.04-2.4-.06v5.62c-1.29-.04-2.58-.08-3.87-.12v-15.67c2.09.08,4.18.14,6.27.18,1.27.03,2.34.26,3.21.71.87.44,1.53,1.05,1.97,1.81.44.76.66,1.63.66,2.62,0,.91-.21,1.74-.63,2.48Zm-3.85-1.09c.36-.33.54-.82.54-1.44,0-.63-.18-1.11-.54-1.46-.36-.35-.91-.53-1.65-.55-.7-.02-1.4-.03-2.1-.05v3.93c.7.02,1.4.04,2.1.05.74.02,1.29-.14,1.65-.48Z"/>
          <path class="cls-7" d="m151.21,351.93c-.42.76-1.07,1.38-1.95,1.86-.88.48-1.96.72-3.26.74-.8,0-1.6.01-2.4.02v5.62c-1.29,0-2.58,0-3.87,0v-15.67c2.09,0,4.18,0,6.27-.02,1.27-.01,2.34.19,3.21.6.87.42,1.53,1,1.97,1.75.44.75.66,1.61.66,2.6,0,.91-.21,1.74-.63,2.5Zm-3.85-.97c.36-.35.54-.83.54-1.46,0-.63-.18-1.11-.54-1.44-.36-.34-.91-.5-1.65-.49-.7,0-1.4.01-2.1.02v3.93c.7,0,1.4,0,2.1-.02.74,0,1.29-.18,1.65-.53Z"/>
          <path class="cls-7" d="m157.73,356.93c1.69-.06,3.38-.14,5.06-.22v2.95c-2.98.15-5.95.26-8.93.34,0-5.22,0-10.44,0-15.67,1.29-.04,2.58-.08,3.87-.13v12.72Z"/>
          <path class="cls-7" d="m168.51,346.73v3.17c1.72-.11,3.45-.22,5.17-.35v2.95c-1.72.13-3.45.24-5.17.35v3.44c1.95-.12,3.9-.25,5.85-.4v3.06c-3.24.24-6.47.45-9.71.62v-15.67c3.24-.17,6.48-.38,9.71-.62v3.06c-1.95.15-3.9.28-5.85.4Z"/>
        </g>
      </g>
    </g>
    <path class="cls-11" d="m224.95,403.21c-90.46,31.39-166.87,0-166.87,0,5.46-6.41,1.35-11.48,1.35-11.48,0,0,71.76,28.92,164.17,0,0,0-4.61,5.55,1,11.12l.35.36Z"/>
    <path class="cls-9" d="m226.08,459.23c-9.39,41.14-84.56,40.05-84.56,40.05-84.05-2.51-84.56-40.05-84.56-40.05l1.13-56.02s73.79,30.79,166.87,0l1.12,56.02Z"/>
    <g class="cls-23">
      <g>
        <path class="cls-3" d="m228.89,385.91c-40.56,43.35-81.33,82.76-121.72,118.23"/>
        <path class="cls-3" d="m235.96,392.45c-40.54,43.8-81.31,83.67-121.75,119.6"/>
        <path class="cls-3" d="m243.03,398.92c-40.51,44.26-81.28,84.59-121.76,120.98"/>
        <path class="cls-3" d="m250.09,405.3c-40.47,44.72-81.25,85.5-121.76,122.35"/>
        <path class="cls-3" d="m257.14,411.61c-40.44,45.18-81.21,86.42-121.75,123.72"/>
        <path class="cls-3" d="m264.19,417.83c-40.4,45.63-81.16,87.33-121.72,125.09"/>
      </g>
    </g>
    <path class="cls-6" d="m88.91,57.38v7.46s48.7-14.4,105.22,0v-7.46s-46.92-16.01-105.22,0Z"/>
  </g>
  <g id="Layer_3" data-name="Layer 3">
    <path class="cls-1" d="m149.02,499.28c76.71-5.32,77.06-40.05,77.06-40.05l-1.12-56.02c-6.01-5.88-1.35-11.48-1.35-11.48l2.25-165.96c-5.53-10.24,3.08-14.79,3.08-14.79,2.39-86.96-43.5-128.1-43.5-128.1l2.4-9.9,6.3-2.4v-13.2l-1.8-2.7,1.8-2.1-.16-3.88-1.04-3.92-2.47-26.15c-6.01-14.04-41.44-14.08-41.44-14.08h-15s-35.43.04-41.44,14.08l-2.47,26.15-1.04,3.92-.16,3.88,1.8,2.1-1.8,2.7v13.2s6.3,2.4,6.3,2.4l2.4,9.9s-45.89,41.14-43.5,128.1c0,0,8.61,4.55,3.08,14.79l2.25,165.96s4.66,5.59-1.35,11.47l-1.13,56.02s.35,34.73,77.06,40.05h15Z"/>
    <path class="cls-4" d="m88.91,52.58c34.44-9.42,70.78-9.42,105.22,0"/>
    <path class="cls-4" d="m88.91,57.38c34.44-9.42,70.78-9.42,105.22,0"/>
    <path class="cls-4" d="m95.21,72.98c30.55-6.33,62.07-6.33,92.62,0"/>
    <path class="cls-4" d="m88.91,70.58c34.44-9.42,70.78-9.42,105.22,0"/>
    <path class="cls-4" d="m88.91,64.84c34.58-8.3,70.64-8.3,105.22,0"/>
    <path class="cls-4" d="m84.93,97.99c37.43-5.33,75.43-5.33,112.86,0"/>
    <path class="cls-4" d="m59.43,391.73c53.35,17.34,110.82,17.34,164.17,0"/>
    <path class="cls-4" d="m58.08,403.21c54.08,18.52,112.79,18.52,166.87,0"/>
    <path class="cls-4" d="m54.11,210.98c58.24,2.75,116.58,2.75,174.82,0"/>
    <path class="cls-4" d="m57.18,225.77c56.14,4.42,112.53,4.42,168.67,0"/>
    <g>
      <path class="cls-4" d="m149.72,12.25c.11,7.29.22,14.58.33,21.88"/>
      <path class="cls-4" d="m146.43,12.12c.07,7.29.13,14.58.2,21.87"/>
      <path class="cls-4" d="m143.16,12.05c.02,7.29.04,14.58.07,21.87"/>
      <path class="cls-4" d="m139.87,12.05c-.02,7.29-.04,14.58-.07,21.87"/>
      <path class="cls-4" d="m162.81,13.48c.29,7.31.58,14.62.87,21.93"/>
      <path class="cls-4" d="m159.54,13.07c.25,7.3.49,14.61.74,21.91"/>
      <path class="cls-4" d="m156.29,12.73c.2,7.3.4,14.6.6,21.9"/>
      <path class="cls-4" d="m153.01,12.46c.16,7.29.31,14.59.47,21.88"/>
      <path class="cls-4" d="m120.07,13.5c-.29,7.31-.58,14.62-.88,21.93"/>
      <path class="cls-4" d="m116.83,13.97c-.34,7.32-.67,14.63-1.01,21.95"/>
      <path class="cls-4" d="m113.58,14.52c-.38,7.32-.76,14.65-1.14,21.97"/>
      <path class="cls-4" d="m136.46,12.12c-.07,7.29-.14,14.58-.21,21.87"/>
      <path class="cls-4" d="m133.17,12.26c-.11,7.29-.23,14.58-.34,21.88"/>
      <path class="cls-4" d="m129.91,12.47c-.16,7.3-.32,14.59-.47,21.89"/>
      <path class="cls-4" d="m126.62,12.74c-.2,7.3-.41,14.6-.61,21.9"/>
      <path class="cls-4" d="m123.35,13.09c-.25,7.3-.49,14.61-.74,21.91"/>
      <path class="cls-4" d="m172.59,15.11c.42,7.33.85,14.66,1.27,21.99"/>
      <path class="cls-4" d="m169.36,14.5c.38,7.32.76,14.65,1.14,21.97"/>
      <path class="cls-4" d="m166.1,13.96c.33,7.32.67,14.63,1,21.95"/>
      <path class="cls-4" d="m185.44,18.24c.6,7.37,1.2,14.75,1.79,22.12"/>
      <path class="cls-4" d="m182.26,17.36c.55,7.36,1.11,14.72,1.66,22.08"/>
      <path class="cls-4" d="m179.05,16.54c.51,7.35,1.02,14.7,1.53,22.05"/>
      <path class="cls-4" d="m175.82,15.79c.47,7.34.93,14.68,1.4,22.02"/>
      <path class="cls-4" d="m100.77,17.36c-.55,7.36-1.11,14.72-1.66,22.08"/>
      <path class="cls-4" d="m97.59,18.24c-.6,7.37-1.2,14.75-1.79,22.12"/>
      <path class="cls-4" d="m110.45,15.11c-.42,7.33-.85,14.66-1.27,21.99"/>
      <path class="cls-4" d="m107.21,15.79c-.47,7.34-.93,14.68-1.4,22.02"/>
      <path class="cls-4" d="m103.99,16.54c-.51,7.35-1.02,14.7-1.53,22.05"/>
    </g>
  </g>
  <g id="Layer_5" data-name="Layer 5">
    <g>
      <g class="cls-21">
        <g class="cls-21">
          <path class="cls-17" d="m135.35,187.46c-.11.48-.22.96-.34,1.44-1.27,0-2.54.02-3.81.03-.76,3.28-1.53,6.56-2.3,9.85-.79,0-1.58.02-2.37.03.78-3.28,1.55-6.57,2.32-9.85-1.28.01-2.55.03-3.83.05.12-.48.23-.97.35-1.45,3.32-.05,6.65-.08,9.97-.1Z"/>
          <path class="cls-17" d="m139.73,188.87c-.26,1.14-.51,2.28-.77,3.42,1.65,0,3.3,0,4.96,0-.1.48-.2.95-.31,1.43-1.65,0-3.31,0-4.96,0-.27,1.18-.54,2.37-.82,3.55,1.87,0,3.73,0,5.6,0-.11.48-.22.96-.33,1.44-2.66,0-5.31,0-7.97.02.87-3.77,1.73-7.53,2.59-11.29,2.63,0,5.26,0,7.9,0-.11.48-.22.96-.32,1.44-1.85,0-3.71,0-5.56,0Z"/>
          <path class="cls-17" d="m155.19,196.49c-2.01-.02-4.02-.04-6.03-.06-.51.76-1.03,1.53-1.54,2.29-.82,0-1.65,0-2.47-.01,2.56-3.75,5.1-7.5,7.62-11.23.9,0,1.81.02,2.71.03.91,3.77,1.82,7.55,2.74,11.32-.83-.01-1.66-.02-2.49-.03-.18-.77-.36-1.54-.54-2.31Zm-.33-1.45c-.41-1.77-.82-3.54-1.23-5.32-1.16,1.75-2.33,3.51-3.51,5.27,1.58.01,3.16.03,4.74.05Z"/>
        </g>
      </g>
      <path class="cls-17" d="m148.56,144.79c.58.59,1.16,1.18,1.74,1.76-12.02,12.13-24.4,24.46-37.14,37.01-.58-.57-1.16-1.14-1.74-1.7,12.74-12.57,25.12-24.92,37.14-37.07Z"/>
      <path class="cls-6" d="m157.26,124.87c.3.3.59.61.89.91-11.73,12.04-23.82,24.28-36.27,36.73-.3-.29-.59-.59-.89-.88,12.45-12.46,24.55-24.71,36.27-36.76Z"/>
      <g>
        <path class="cls-6" d="m75.04,136.72c2.09-.13,4.17-.26,6.26-.38-.31,6.3-.63,12.6-.94,18.9,2.23-.13,4.47-.25,6.7-.36.28-6.3.56-12.6.84-18.89,2.11-.11,4.22-.21,6.33-.3.07-1.79.14-3.58.21-5.37-6.37.28-12.74.63-19.1,1.03-.1,1.79-.2,3.58-.3,5.38Z"/>
        <path class="cls-6" d="m96.88,130.21c2.19-.09,4.38-.18,6.57-.26-.26,8.08-.51,16.17-.77,24.25-2.23.08-4.47.17-6.7.26.3-8.09.6-16.17.9-24.26Z"/>
        <path class="cls-6" d="m126.9,129.37c-2,5.28-4.02,10.56-6.07,15.85-1.92-5.21-3.81-10.42-5.67-15.62-2.65.07-5.3.14-7.95.23-.23,8.08-.46,16.17-.69,24.25,2.24-.07,4.47-.14,6.71-.2.1-4.49.21-8.99.31-13.48,1.41,4.45,2.83,8.91,4.27,13.37,1.87-.04,3.74-.08,5.61-.11,1.58-4.48,3.15-8.96,4.7-13.44-.05,4.46-.1,8.92-.15,13.37.51,0,1.02-.01,1.54-.02,1.74-1.75,3.48-3.5,5.2-5.24.04-6.35.07-12.7.11-19.05-2.64.02-5.28.04-7.92.08Z"/>
        <path class="cls-6" d="m138.58,129.27c-.01,5.06-.02,10.13-.04,15.19,2.23-2.25,4.44-4.5,6.64-6.73,0-1.02,0-2.04,0-3.06,1,0,1.99,0,2.99.01,1.75-1.79,3.5-3.57,5.24-5.35-4.94-.06-9.88-.08-14.83-.06Z"/>
      </g>
      <g>
        <path class="cls-7" d="m123.78,174.37c-.08-.35-.17-.69-.25-1.04-.97.96-1.94,1.92-2.91,2.88.24.89.48,1.78.72,2.67,1.49-.04,2.98-.07,4.47-.11,1.15-3.71,2.29-7.41,3.42-11.11-1.64,1.63-3.28,3.26-4.93,4.89-.18.6-.35,1.21-.53,1.81Z"/>
        <path class="cls-7" d="m138.71,174.13c-1.09-4.23-2.18-8.45-3.25-12.68-1.01,1.01-2.02,2.02-3.04,3.04,1.28,4.73,2.58,9.46,3.9,14.19,1.5,0,3.01-.01,4.51-.01,2.4-7.97,4.76-15.93,7.07-23.88-1.39,0-2.79-.01-4.18-.02-1.64,6.45-3.32,12.9-5.01,19.36Z"/>
        <path class="cls-7" d="m154.08,154.8c-2.76,7.94-5.58,15.9-8.45,23.86,1.39,0,2.77.01,4.16.02.57-1.62,1.14-3.25,1.71-4.87,3.37.03,6.75.08,10.12.14.61,1.64,1.21,3.28,1.83,4.92,1.4.03,2.79.06,4.19.09-3.07-8.05-6.08-16.08-9.03-24.1-1.51-.02-3.02-.04-4.52-.06,0,0,0,0,0,0Zm-1.5,15.83c1.29-3.69,2.56-7.37,3.82-11.06,1.34,3.72,2.69,7.44,4.05,11.17-2.63-.05-5.25-.08-7.88-.11Z"/>
        <path class="cls-7" d="m186.55,167.1c.86-1.24,1.26-2.63,1.2-4.19-.05-1.33-.41-2.55-1.08-3.65-.67-1.11-1.65-2-2.94-2.7-1.29-.69-2.85-1.07-4.67-1.13-2.74-.1-5.48-.18-8.22-.26.19,7.97.38,15.94.57,23.9,1.33.04,2.66.07,3.98.12-.09-3.19-.17-6.37-.26-9.56,1.01.03,2.01.06,3.02.1,1.94,3.25,3.9,6.5,5.87,9.76,1.58.06,3.16.13,4.75.19-2.13-3.39-4.24-6.77-6.33-10.15,1.88-.39,3.25-1.2,4.11-2.43,0,0,0,0,0,0Zm-11.5-.61c-.07-2.67-.14-5.34-.22-8.01,1.44.04,2.88.09,4.32.14,1.49.05,2.61.44,3.37,1.17.76.73,1.16,1.71,1.2,2.95.04,1.24-.3,2.21-1.02,2.91-.72.71-1.82,1.03-3.3.98-1.45-.05-2.9-.1-4.35-.14t0,0Z"/>
        <path class="cls-7" d="m208.36,160.34c-.69-1.12-1.68-2.03-2.98-2.74-1.3-.71-2.86-1.11-4.69-1.21-2.74-.15-5.48-.29-8.22-.42.33,7.97.66,15.95.99,23.92,1.33.06,2.65.13,3.98.2-.14-3.24-.29-6.47-.43-9.71,1.45.07,2.91.15,4.36.23,1.98.11,3.6-.14,4.83-.73,1.23-.6,2.11-1.42,2.62-2.47.51-1.04.74-2.17.67-3.39-.07-1.33-.46-2.56-1.15-3.68,0,0,0,0,0,0Zm-3.84,6.24c-.7.64-1.8.91-3.3.82-1.45-.08-2.9-.16-4.35-.23-.12-2.6-.23-5.21-.35-7.81,1.44.07,2.88.15,4.32.23,2.95.16,4.49,1.56,4.63,4.18.06,1.24-.25,2.17-.96,2.81Z"/>
      </g>
    </g>
  </g>
</svg>