<?xml version="1.0" encoding="UTF-8"?>
<svg xmlns="http://www.w3.org/2000/svg" xmlns:xlink="http://www.w3.org/1999/xlink" viewBox="0 0 321.97 539.8">
  <defs>
    <style>
      .cls-1, .cls-2, .cls-3, .cls-4 {
        fill: none;
      }

      .cls-1, .cls-3, .cls-4 {
        stroke-miterlimit: 10;
      }

      .cls-1, .cls-4 {
        stroke: #231f20;
      }

      .cls-5 {
        fill: #fcf7ba;
      }

      .cls-5, .cls-6, .cls-7, .cls-8, .cls-9, .cls-10, .cls-11, .cls-2, .cls-12, .cls-13, .cls-14, .cls-15, .cls-16, .cls-17, .cls-18, .cls-19 {
        stroke-width: 0px;
      }

      .cls-6 {
        fill: #818285;
        opacity: .19;
      }

      .cls-7, .cls-20 {
        fill: #29aae1;
      }

      .cls-21 {
        clip-path: url(#clippath-2);
      }

      .cls-8 {
        fill: #010101;
      }

      .cls-22, .cls-11, .cls-23 {
        isolation: isolate;
      }

      .cls-9 {
        fill: #f2f2f2;
      }

      .cls-9, .cls-10, .cls-12 {
        opacity: .81;
      }

      .cls-10 {
        fill: #eae495;
      }

      .cls-11, .cls-23 {
        opacity: .94;
      }

      .cls-11, .cls-17 {
        fill: #f9f17f;
      }

      .cls-12 {
        fill: #f1eb71;
      }

      .cls-24 {
        clip-path: url(#clippath-1);
      }

      .cls-3 {
        stroke: #939598;
      }

      .cls-13 {
        fill: #fff;
      }

      .cls-14 {
        fill: #ededed;
      }

      .cls-25 {
        clip-path: url(#clippath-3);
      }

      .cls-15 {
        fill: #f7ed46;
      }

      .cls-16 {
        fill: #e31d6d;
      }

      .cls-18 {
        fill: #e41d6d;
      }

      .cls-19 {
        fill: #2aa7df;
      }

      .cls-4 {
        stroke-width: .75px;
      }
    </style>
    <clipPath id="clippath-1">
      <path class="cls-2" d="m248.4,210.98c-56.79,4.17-174.82,0-174.82,0-3.75-64.24,30.82-112.99,30.82-112.99,0,0,48.93-9.07,112.86,0,0,0,31.23,33.22,31.23,110.92l-.09,2.07Z"/>
    </clipPath>
    <clipPath id="clippath-2">
      <path class="cls-2" d="m245.32,225.77c-92.19,7.26-168.67,0-168.67,0l2.25,165.96s74.76,30.12,164.17,0l2.25-165.96Z"/>
    </clipPath>
    <clipPath id="clippath-3">
      <path class="cls-2" d="m245.55,459.23c-9.39,41.14-84.56,40.05-84.56,40.05-84.05-2.51-84.56-40.05-84.56-40.05l1.13-56.02s73.79,30.79,166.87,0l1.12,56.02Z"/>
    </clipPath>
  </defs>
  <g id="Layer_4" data-name="Layer 4">
    <path class="cls-20" d="m213.6,52.58l-.16-3.88-1.04-3.92-2.47-26.15c-6.01-14.04-41.44-14.08-41.44-14.08h-15s-35.43.04-41.44,14.08l-2.47,26.15-1.04,3.92-.16,3.88s46.04-15.93,105.22,0Z"/>
    <path class="cls-14" d="m213.6,52.58c-57.43-16.08-105.22,0-105.22,0l1.8,2.1-1.8,2.7s51.96-15.9,105.22,0l-1.8-2.7,1.8-2.1Z"/>
    <path class="cls-2" d="m213.6,64.84c-57.99-14.4-105.22,0-105.22,0v5.74s49.71-16.76,105.22,0v-5.74Z"/>
    <path class="cls-4" d="m213.6,64.84c-60.69-14.62-105.22,0-105.22,0v5.74s43.41-16.31,105.22,0v-5.74Z"/>
    <path class="cls-10" d="m213.6,70.58c-57.09-16.53-105.22,0-105.22,0l6.3,2.4s43.64-11.43,92.62,0l6.3-2.4Z"/>
    <path class="cls-12" d="m207.3,72.98c-48.69-10.98-92.62,0-92.62,0l2.4,9.9s-3.77,3.04-12.68,15.11c0,0,52.98-9.07,112.86,0,0,0-7.8-11.85-12.36-15.11l2.4-9.9Z"/>
    <path class="cls-13" d="m248.4,210.98c-56.79,4.17-174.82,0-174.82,0-3.75-64.24,30.82-112.99,30.82-112.99,0,0,48.93-9.07,112.86,0,0,0,31.23,33.22,31.23,110.92l-.09,2.07Z"/>
    <g class="cls-24">
      <g>
        <path class="cls-3" d="m152.7,57.78c-42.04,39.45-84.25,82.49-126.16,129.14"/>
        <path class="cls-3" d="m159.77,65.32c-42.02,39.04-84.23,81.69-126.18,127.93"/>
        <path class="cls-3" d="m166.83,72.93c-42,38.64-84.21,80.88-126.18,126.72"/>
        <path class="cls-3" d="m173.89,80.6c-41.97,38.24-84.19,80.07-126.18,125.51"/>
        <path class="cls-3" d="m180.95,88.35c-41.94,37.83-84.16,79.27-126.18,124.29"/>
        <path class="cls-3" d="m188.01,96.16c-41.91,37.43-84.12,78.46-126.16,123.08"/>
      </g>
    </g>
    <path class="cls-12" d="m245.32,225.77c-82.29,7.03-168.67,0-168.67,0,5.09-10.29-3.08-14.79-3.08-14.79,0,0,100.34,3.94,174.82,0,0,0-8.43,4.27-3.37,14.23l.29.56Z"/>
    <path class="cls-13" d="m245.32,225.77c-92.19,7.26-168.67,0-168.67,0l2.25,165.96s74.76,30.12,164.17,0l2.25-165.96Z"/>
    <g class="cls-21">
      <g>
        <g id="Pattern_4" data-name="Pattern 4">
          <path id="Ellipse_35" data-name="Ellipse 35" class="cls-11" d="m152.18,358.74c-34.87-69.01-34.48-138.11.86-154.47,35.41-16.37,92.33,17.53,126.35,75.87,33.97,58.33,33.6,127.65-.84,154.7-34.51,27.05-91.45-7.08-126.37-76.09Z"/>
          <path id="Rectangle_7" data-name="Rectangle 7" class="cls-5" d="m192.05,215.84c33.11,15.3,66.06,27.28,98.34,35.94,5.72,1.52,7.88,8.07,4.85,14.73-17.11,37.51-34.42,74.08-51.85,109.71-3.09,6.33-10.31,9.67-16.15,7.36-32.93-12.94-66.2-29.2-99.3-48.77-5.87-3.48-8.09-10.88-4.98-16.42,17.57-31.36,35.2-63.65,52.8-96.88,3.12-5.88,10.41-8.37,16.28-5.67Z"/>
          <path id="Ellipse_36" data-name="Ellipse 36" class="cls-11" d="m52.69,288.88c30.06-36.05,67.45-58.6,82.98-47.35,15.54,11.17,3.26,55.23-27.29,95.4-30.58,40.25-67.38,58.04-82.41,42.75-15.02-15.37-3.32-54.67,26.72-90.8Z"/>
          <path id="Rectangle_6" data-name="Rectangle 6" class="cls-15" d="m67.8,299.1c25.22-7.47,50.73-16.92,76.29-28.33,5.98-2.66,13.19-.13,16.11,5.76,12.46,25.24,24.91,50.01,37.35,74.31,2.91,5.67.43,13.01-5.54,16.27-25.53,13.88-51.15,25.79-76.64,35.73-5.96,2.34-13.14-.95-16.04-7.22-12.38-26.77-24.72-54-36.99-81.71-2.87-6.49-.43-13.07,5.47-14.81Z"/>
        </g>
        <path class="cls-6" d="m275.64,391.09c-74.89,17.76-152.9,17.87-227.84.35v-234.07c74.93,17.53,152.94,17.41,227.84-.35v234.07Z"/>
        <g>
          <path class="cls-16" d="m172.27,370.75c.36.35.73.7,1.09,1.05-7.64,7.73-15.29,15.28-22.93,22.66-.36-.37-.73-.74-1.09-1.1,7.64-7.36,15.29-14.9,22.93-22.61Z"/>
          <path class="cls-19" d="m164.63,373.56c.19.18.38.37.56.55-7.64,7.6-15.29,15.03-22.93,22.28-.19-.19-.37-.38-.56-.58,7.64-7.24,15.29-14.66,22.93-22.26Z"/>
          <g>
            <path class="cls-19" d="m112.14,377.26c1.33.13,2.66.26,3.98.38v11.64c1.4.13,2.8.25,4.2.36v-11.64c1.34.11,2.69.21,4.03.31v-3.31c-4.08-.3-8.15-.65-12.22-1.05v3.31Z"/>
            <path class="cls-19" d="m125.92,375.12c1.4.1,2.8.19,4.2.28v14.95c-1.4-.09-2.8-.18-4.2-.28v-14.95Z"/>
            <path class="cls-19" d="m145.14,376.11c-1.24,3.2-2.48,6.39-3.72,9.58-1.27-3.29-2.53-6.58-3.8-9.88-1.7-.08-3.39-.17-5.09-.27v14.95c1.4.08,2.81.15,4.21.22v-8.31c.96,2.82,1.92,5.63,2.88,8.44,1.17.05,2.35.1,3.52.14.95-2.71,1.9-5.43,2.86-8.15v8.25c.32,0,.64.02.96.03,1.08-1.04,2.17-2.08,3.25-3.12v-11.74c-1.69-.04-3.38-.08-5.07-.14Z"/>
            <path class="cls-19" d="m152.62,376.29v9.37c1.4-1.36,2.81-2.73,4.21-4.1v-1.89c.64,0,1.27,0,1.91.01,1.13-1.1,2.25-2.21,3.38-3.33-3.17,0-6.33-.02-9.5-.07Z"/>
          </g>
          <g>
            <path class="cls-8" d="m156.51,389.31c-.06-.21-.11-.43-.17-.64-.59.58-1.18,1.15-1.77,1.73.16.55.32,1.11.47,1.66.92,0,1.83,0,2.75,0,.68-2.27,1.36-4.54,2.04-6.82-1.01.99-2.01,1.98-3.02,2.96-.1.37-.21.74-.31,1.11Z"/>
            <path class="cls-8" d="m165.73,389.24c-.68-2.6-1.36-5.2-2.04-7.81-.63.62-1.25,1.25-1.88,1.87.82,2.92,1.64,5.84,2.46,8.75.92,0,1.85-.01,2.77-.03,1.48-4.93,2.95-9.87,4.43-14.81-.87.02-1.75.03-2.62.05-1.04,3.99-2.08,7.99-3.12,11.97Z"/>
            <path class="cls-8" d="m175.34,377.1c-1.78,4.97-3.57,9.93-5.35,14.88.85-.02,1.71-.03,2.56-.05.36-1.01.72-2.02,1.07-3.04,2.08-.05,4.17-.12,6.25-.2.36.99.72,1.98,1.07,2.97.86-.03,1.72-.07,2.58-.11-1.78-4.84-3.57-9.68-5.35-14.54-.95.03-1.89.06-2.84.09,0,0,0,0,0,0Zm-1.03,9.8c.82-2.3,1.63-4.61,2.45-6.92.81,2.26,1.62,4.51,2.43,6.76-1.63.06-3.25.11-4.88.15Z"/>
            <path class="cls-8" d="m195.43,383.16c.57-.82.85-1.72.85-2.68,0-.82-.2-1.55-.59-2.18-.39-.64-.99-1.13-1.78-1.47-.79-.34-1.76-.48-2.91-.41-1.72.1-3.43.2-5.15.28v14.73c.82-.04,1.63-.08,2.45-.13,0-1.96,0-3.93,0-5.89.62-.03,1.25-.07,1.87-.11,1.14,1.9,2.29,3.79,3.43,5.68.97-.06,1.94-.13,2.92-.2-1.23-1.95-2.46-3.9-3.69-5.85,1.17-.36,2.04-.95,2.61-1.78,0,0,0,0,0,0Zm-7.13.33v-4.94c.9-.05,1.8-.1,2.7-.16.93-.06,1.62.11,2.08.52.46.4.69.98.69,1.75,0,.76-.23,1.39-.7,1.87-.46.48-1.15.75-2.07.81-.9.05-1.8.11-2.7.16h0Z"/>
            <path class="cls-8" d="m209.24,377.14c-.39-.63-.98-1.1-1.78-1.41-.79-.32-1.76-.42-2.9-.32-1.71.15-3.43.29-5.15.43v14.73c.82-.06,1.63-.13,2.45-.2v-5.98c.9-.07,1.8-.15,2.7-.23,1.23-.11,2.24-.41,3.02-.9.78-.49,1.36-1.09,1.71-1.79.36-.7.54-1.42.54-2.17,0-.82-.2-1.54-.59-2.17,0,0,0,0,0,0Zm-2.6,4.24c-.46.46-1.15.73-2.08.81-.9.08-1.8.16-2.7.23v-4.81c.9-.07,1.8-.15,2.7-.23,1.84-.16,2.77.55,2.77,2.17,0,.76-.23,1.37-.69,1.83Z"/>
          </g>
        </g>
        <g>
          <path class="cls-16" d="m285.57,355c.36.27.71.53,1.07.8-7.46,9.49-14.95,18.8-22.46,27.94-.36-.28-.72-.57-1.08-.85,7.52-9.12,15.01-18.41,22.47-27.89Z"/>
          <path class="cls-19" d="m278.1,359.58c.18.14.37.28.55.42-7.48,9.36-14.99,18.55-22.53,27.56-.18-.15-.37-.3-.55-.45,7.54-9,15.05-18.18,22.53-27.53Z"/>
          <g>
            <path class="cls-19" d="m226.25,375.36c1.32-.18,2.65-.36,3.97-.54,0,3.88,0,7.76,0,11.64,1.39-.2,2.79-.4,4.18-.61v-11.64c1.34-.2,2.67-.4,4-.61v-3.31c-4.05.64-8.1,1.23-12.15,1.76v3.31Z"/>
            <path class="cls-19" d="m239.96,370.04c1.39-.22,2.78-.45,4.17-.69v14.95c-1.39.24-2.78.47-4.17.69,0-4.98,0-9.96,0-14.95Z"/>
            <path class="cls-19" d="m258.96,366.6c-1.22,3.48-2.44,6.96-3.66,10.43-1.25-3-2.5-6-3.75-9-1.68.31-3.35.61-5.03.91v14.95c1.39-.24,2.78-.49,4.16-.75v-8.31c.95,2.6,1.89,5.19,2.84,7.78,1.16-.22,2.32-.44,3.48-.67.94-2.93,1.88-5.87,2.82-8.81v8.25c.32-.06.63-.13.95-.19,1.07-1.29,2.13-2.58,3.2-3.87v-11.74c-1.66.35-3.33.7-4.99,1.03Z"/>
            <path class="cls-19" d="m266.32,365.07v9.37c1.38-1.68,2.76-3.37,4.14-5.07v-1.89c.62-.14,1.25-.28,1.87-.43,1.1-1.36,2.21-2.73,3.31-4.1-3.1.74-6.21,1.44-9.32,2.12Z"/>
          </g>
          <g>
            <path class="cls-8" d="m270.14,377.19c-.05-.2-.11-.4-.16-.61-.58.71-1.16,1.42-1.74,2.13.16.52.31,1.03.46,1.55.9-.21,1.8-.42,2.7-.63.67-2.43,1.33-4.85,2-7.28-.99,1.22-1.97,2.44-2.96,3.65-.1.39-.2.79-.31,1.18Z"/>
            <path class="cls-8" d="m279.18,375.01c-.67-2.44-1.33-4.89-2-7.34-.61.77-1.23,1.53-1.84,2.3.8,2.73,1.61,5.46,2.41,8.19.9-.22,1.81-.44,2.71-.66,1.44-5.27,2.89-10.54,4.33-15.83-.85.22-1.71.44-2.56.65-1.01,4.23-2.03,8.46-3.05,12.69Z"/>
            <path class="cls-8" d="m288.57,360.65c-1.74,5.38-3.48,10.75-5.22,16.11.83-.21,1.67-.43,2.5-.64.35-1.09.7-2.19,1.05-3.28,2.03-.53,4.06-1.08,6.09-1.64.35.91.7,1.81,1.05,2.72.84-.23,1.67-.47,2.51-.7-1.73-4.43-3.47-8.86-5.2-13.31-.92.25-1.84.5-2.76.74,0,0,0,0,0,0Zm-1.01,10.04c.8-2.49,1.59-4.99,2.39-7.48.79,2.07,1.58,4.14,2.36,6.21-1.58.43-3.17.86-4.75,1.28Z"/>
            <path class="cls-8" d="m308.08,362.09c.55-.95.82-1.91.82-2.87,0-.82-.19-1.5-.57-2.05-.38-.55-.95-.9-1.72-1.06-.77-.16-1.71-.07-2.82.26-1.66.5-3.33.99-5,1.47,0,4.91,0,9.82,0,14.73.79-.23,1.59-.46,2.38-.69v-5.89c.6-.18,1.21-.36,1.81-.54,1.11,1.63,2.22,3.26,3.33,4.89.94-.29,1.88-.58,2.82-.87-1.19-1.66-2.38-3.33-3.57-5,1.13-.63,1.98-1.42,2.52-2.38,0,0,0,0,0,0Zm-6.91,1.97v-4.94c.87-.26,1.75-.52,2.62-.78.9-.27,1.57-.26,2.02.04.44.3.67.83.67,1.59,0,.76-.22,1.44-.68,2.03-.45.59-1.12,1.02-2.01,1.29-.87.26-1.75.52-2.62.78h0Z"/>
            <path class="cls-8" d="m321.4,352.89c-.38-.54-.95-.87-1.71-1-.76-.13-1.7-.01-2.8.35-1.65.55-3.31,1.08-4.97,1.61v14.73c.79-.25,1.58-.5,2.36-.76,0-1.99,0-3.99,0-5.98.87-.28,1.74-.57,2.6-.85,1.18-.39,2.16-.93,2.91-1.6.76-.67,1.31-1.4,1.65-2.18.34-.78.52-1.55.52-2.3,0-.82-.19-1.5-.57-2.03,0,0,0,0,0,0Zm-2.51,4.84c-.44.57-1.11,1-2,1.29-.87.29-1.74.57-2.6.85,0-1.6,0-3.21,0-4.81.87-.28,1.74-.57,2.6-.85,1.78-.59,2.67-.08,2.67,1.53,0,.76-.22,1.43-.66,1.99Z"/>
          </g>
        </g>
        <g>
          <path class="cls-16" d="m58.52,360.2c.36.44.72.87,1.08,1.31-7.52,5.97-15.02,11.77-22.48,17.39-.36-.45-.71-.9-1.07-1.36,7.46-5.6,14.95-11.38,22.47-17.34Z"/>
          <path class="cls-19" d="m51.01,361.26c.18.23.37.45.55.68-7.5,5.85-14.97,11.52-22.41,17.01-.18-.24-.36-.47-.55-.71,7.43-5.49,14.9-11.15,22.4-16.98Z"/>
          <g>
            <path class="cls-19" d="m0,352.87c1.28.44,2.56.87,3.84,1.3v11.64c1.35.45,2.7.89,4.05,1.33,0-3.88,0-7.76,0-11.64,1.3.42,2.6.83,3.89,1.24,0-1.1,0-2.21,0-3.31-3.94-1.24-7.87-2.53-11.79-3.87v3.31Z"/>
            <path class="cls-19" d="m13.3,353.91c1.36.42,2.71.84,4.07,1.25v14.95c-1.36-.41-2.72-.83-4.07-1.25v-14.95Z"/>
            <path class="cls-19" d="m31.96,359.32c-1.21,2.91-2.41,5.82-3.62,8.72-1.23-3.58-2.47-7.16-3.7-10.75-1.65-.47-3.3-.95-4.94-1.44v14.95c1.36.4,2.72.8,4.09,1.19v-8.31c.93,3.04,1.86,6.07,2.8,9.1,1.14.32,2.29.64,3.43.95.93-2.5,1.85-4.99,2.78-7.49v8.25c.31.08.63.17.94.25,1.06-.79,2.11-1.58,3.17-2.37v-11.74c-1.65-.43-3.3-.86-4.95-1.3Z"/>
            <path class="cls-19" d="m39.25,361.22c0,3.12,0,6.25,0,9.37,1.37-1.04,2.75-2.08,4.12-3.13v-1.89c.62.15,1.24.3,1.87.45,1.1-.85,2.2-1.7,3.31-2.55-3.1-.72-6.2-1.47-9.29-2.25Z"/>
          </g>
          <g>
            <path class="cls-8" d="m43.06,375.13c-.05-.23-.11-.45-.16-.68-.58.44-1.15.88-1.73,1.32.15.59.31,1.18.46,1.77.9.22,1.79.43,2.69.64.67-2.11,1.33-4.23,2-6.35-.99.76-1.97,1.51-2.95,2.27-.1.35-.2.69-.3,1.04Z"/>
            <path class="cls-8" d="m52.09,377.19c-.67-2.76-1.34-5.52-2.01-8.28-.62.48-1.23.96-1.85,1.43.8,3.11,1.61,6.22,2.42,9.32.91.21,1.81.41,2.72.61,1.45-4.59,2.9-9.19,4.35-13.79-.86-.18-1.72-.37-2.58-.55-1.02,3.76-2.04,7.51-3.06,11.26Z"/>
            <path class="cls-8" d="m61.54,367.26c-1.76,4.56-3.51,9.11-5.27,13.65.84.18,1.68.36,2.52.54.35-.93.7-1.86,1.06-2.79,2.05.43,4.1.84,6.16,1.24.35,1.07.71,2.14,1.06,3.22.85.16,1.7.32,2.54.48-1.76-5.25-3.52-10.5-5.28-15.77-.93-.18-1.86-.37-2.8-.56,0,0,0,0,0,0Zm-1.02,9.56c.8-2.12,1.61-4.23,2.41-6.36.8,2.44,1.59,4.88,2.39,7.32-1.6-.31-3.21-.64-4.81-.97Z"/>
            <path class="cls-8" d="m81.4,377.94c.56-.69.84-1.52.84-2.48,0-.82-.2-1.59-.59-2.32-.39-.73-.98-1.35-1.77-1.88-.79-.53-1.75-.88-2.88-1.08-1.7-.29-3.4-.59-5.1-.9v14.73c.81.15,1.61.29,2.42.44v-5.89c.62.11,1.23.22,1.85.32,1.13,2.16,2.27,4.32,3.4,6.47.96.16,1.93.32,2.89.47-1.22-2.23-2.44-4.47-3.66-6.7,1.16-.09,2.02-.48,2.58-1.18,0,0,0,0,0,0Zm-7.07-1.32v-4.94c.89.16,1.78.31,2.68.47.92.16,1.61.49,2.06,1,.45.51.68,1.14.68,1.9,0,.76-.23,1.33-.69,1.71-.46.38-1.14.49-2.05.33-.89-.15-1.78-.31-2.68-.47,0,0,0,0,0,0Z"/>
            <path class="cls-8" d="m95.13,375.11c-.39-.72-.98-1.32-1.77-1.82-.79-.5-1.75-.83-2.89-.99-1.71-.24-3.41-.5-5.12-.76v14.73c.81.12,1.62.25,2.43.37,0-1.99,0-3.99,0-5.98.89.13,1.79.26,2.69.39,1.22.18,2.23.11,3.01-.2.78-.31,1.35-.77,1.71-1.39.35-.62.53-1.3.53-2.05,0-.82-.2-1.59-.59-2.3,0,0,0,0,0,0Zm-2.59,3.64c-.46.35-1.14.47-2.07.33-.9-.13-1.79-.26-2.69-.39v-4.81c.89.13,1.79.26,2.69.39,1.83.26,2.75,1.19,2.75,2.8,0,.76-.23,1.32-.68,1.68Z"/>
          </g>
        </g>
        <path class="cls-9" d="m275.64,351.66c-74.65,17.7-152.39,17.87-227.09.52v-112.98c74.71,17.35,152.45,17.18,227.09-.52v112.98Z"/>
        <g>
          <g class="cls-22">
            <path class="cls-5" d="m160.31,317.76c-.11.5-.23,1-.34,1.49-1.3,0-2.6-.01-3.9-.02-.75,3.38-1.5,6.76-2.26,10.14-.8-.01-1.6-.03-2.4-.04.75-3.38,1.5-6.75,2.26-10.13-1.31-.02-2.62-.04-3.92-.07.11-.5.23-.99.34-1.49,3.41.07,6.82.11,10.23.12Z"/>
            <path class="cls-5" d="m164.8,319.22c-.26,1.18-.52,2.36-.78,3.55,1.69-.01,3.38-.03,5.06-.06-.11.49-.21.99-.32,1.48-1.69.03-3.38.04-5.06.05-.27,1.23-.55,2.45-.82,3.68,1.9,0,3.8-.03,5.7-.05-.11.5-.23,1-.34,1.5-2.7.04-5.4.06-8.1.05.86-3.89,1.73-7.79,2.59-11.68,2.7,0,5.4-.04,8.1-.09-.11.5-.23,1-.34,1.5-1.9.04-3.8.06-5.7.08Z"/>
            <path class="cls-5" d="m180.56,326.66c-2.04.08-4.09.15-6.14.2-.53.81-1.06,1.62-1.58,2.42-.84.02-1.67.04-2.51.05,2.62-3.94,5.23-7.91,7.85-11.89.93-.03,1.86-.07,2.78-.1.89,3.86,1.77,7.71,2.66,11.57-.84.04-1.69.07-2.53.11-.18-.79-.35-1.57-.53-2.36Zm-.32-1.48c-.4-1.81-.8-3.63-1.2-5.44-1.21,1.87-2.42,3.74-3.63,5.61,1.61-.05,3.22-.1,4.83-.16Z"/>
          </g>
          <path class="cls-5" d="m174.11,273.4c.61.59,1.22,1.18,1.84,1.76-12.83,13.05-25.67,25.59-38.49,37.64-.61-.63-1.22-1.27-1.84-1.9,12.82-12,25.66-24.5,38.49-37.5Z"/>
          <path class="cls-17" d="m183.63,252.35c.31.3.63.59.94.89-12.82,13.27-25.66,26.04-38.49,38.31-.31-.32-.63-.64-.94-.96,12.83-12.25,25.67-25,38.49-38.24Z"/>
          <g class="cls-23">
            <path class="cls-17" d="m95.56,258.76c2.22.3,4.45.57,6.67.84v19.54c2.35.28,4.69.54,7.04.79v-19.54c2.25.24,4.5.46,6.76.66v-5.56c-6.83-.62-13.66-1.38-20.47-2.29,0,1.85,0,3.7,0,5.56Z"/>
            <path class="cls-17" d="m118.66,255.73c2.35.2,4.7.38,7.05.55,0,8.36,0,16.73,0,25.09-2.35-.17-4.7-.35-7.05-.55v-25.09Z"/>
            <path class="cls-17" d="m150.92,257.43c-2.08,5.39-4.16,10.77-6.24,16.14-2.13-5.5-4.26-11.02-6.38-16.56-2.85-.13-5.7-.28-8.54-.46v25.09c2.36.15,4.71.28,7.07.39,0-4.65,0-9.3,0-13.95,1.61,4.73,3.22,9.45,4.83,14.16,1.97.08,3.94.14,5.92.2,1.6-4.57,3.2-9.15,4.8-13.74v13.84c.54,0,1.08.02,1.62.03,1.82-1.77,3.64-3.54,5.46-5.33v-19.72c-2.84,0-5.68-.04-8.52-.1Z"/>
            <path class="cls-17" d="m163.47,257.53v15.73c2.36-2.34,4.72-4.69,7.08-7.06v-3.16c1.07-.02,2.14-.04,3.2-.07,1.89-1.91,3.78-3.83,5.66-5.77-5.31.2-10.63.31-15.94.34Z"/>
          </g>
          <g>
            <path class="cls-8" d="m148.25,303.91c-.09-.36-.19-.72-.28-1.08-.99.95-1.98,1.9-2.97,2.84.26.93.53,1.87.79,2.8,1.54.04,3.08.06,4.62.09,1.14-3.79,2.28-7.59,3.42-11.4-1.69,1.64-3.38,3.27-5.07,4.9-.17.62-.35,1.24-.52,1.85Z"/>
            <path class="cls-8" d="m163.73,303.96c-1.14-4.37-2.29-8.75-3.43-13.13-1.05,1.04-2.11,2.07-3.16,3.11,1.38,4.92,2.76,9.82,4.14,14.73,1.55,0,3.1,0,4.66-.02,2.48-8.27,4.96-16.56,7.44-24.87-1.47.04-2.94.07-4.4.09-1.74,6.71-3.49,13.41-5.23,20.09Z"/>
            <path class="cls-8" d="m179.87,283.54c-2.99,8.37-5.99,16.71-8.98,25.03,1.43-.03,2.86-.06,4.3-.1.6-1.7,1.2-3.41,1.8-5.11,3.5-.11,7-.26,10.49-.45.6,1.65,1.2,3.3,1.8,4.96,1.44-.08,2.88-.17,4.32-.27-2.99-8.06-5.98-16.15-8.98-24.26-1.59.08-3.17.14-4.76.2,0,0,0,0,0,0Zm-1.73,16.47c1.37-3.88,2.74-7.76,4.11-11.65,1.36,3.77,2.72,7.54,4.07,11.3-2.73.14-5.46.26-8.19.35Z"/>
            <path class="cls-8" d="m213.56,292.94c.95-1.42,1.42-2.93,1.42-4.55,0-1.38-.33-2.58-.99-3.63-.66-1.05-1.65-1.83-2.98-2.36-1.33-.53-2.95-.7-4.87-.53-2.88.26-5.76.5-8.64.71,0,8.25,0,16.49,0,24.74,1.37-.1,2.74-.21,4.11-.32v-9.89c1.04-.09,2.09-.17,3.13-.27,1.92,3.13,3.84,6.25,5.75,9.35,1.63-.16,3.26-.33,4.89-.51-2.06-3.19-4.12-6.39-6.18-9.61,1.96-.67,3.42-1.72,4.37-3.13,0,0,0,0,0,0Zm-11.96.93v-8.29c1.51-.12,3.02-.25,4.53-.39,1.56-.14,2.72.11,3.49.76.77.65,1.15,1.61,1.15,2.89,0,1.28-.39,2.34-1.17,3.18-.78.84-1.93,1.33-3.47,1.47-1.51.14-3.02.27-4.53.39h0Z"/>
            <path class="cls-8" d="m236.64,281.77c-.66-1.01-1.64-1.75-2.97-2.2-1.33-.46-2.94-.55-4.85-.29-2.87.39-5.74.76-8.61,1.11,0,8.25,0,16.49,0,24.74,1.36-.16,2.73-.33,4.09-.51,0-3.35,0-6.69,0-10.04,1.51-.19,3.01-.39,4.51-.6,2.05-.28,3.74-.88,5.05-1.77,1.31-.89,2.27-1.95,2.86-3.16.59-1.21.89-2.44.89-3.7,0-1.38-.33-2.57-.99-3.58,0,0,0,0,0,0Zm-4.35,7.36c-.76.81-1.92,1.33-3.48,1.54-1.5.21-3.01.41-4.51.6,0-2.69,0-5.39,0-8.08,1.51-.19,3.01-.39,4.51-.6,3.08-.43,4.62.69,4.62,3.4,0,1.28-.38,2.33-1.15,3.14Z"/>
          </g>
        </g>
        <g>
          <path class="cls-8" d="m123.37,350.36c1.92.15,3.84.28,5.75.4v3.35c-3.38-.22-6.77-.47-10.15-.76v-17.82c1.46.12,2.93.24,4.39.35v14.47Z"/>
          <path class="cls-8" d="m135.63,340.15v3.6c1.96.1,3.93.19,5.89.27v3.35c-1.96-.08-3.93-.17-5.89-.27v3.91c2.22.11,4.44.21,6.66.3v3.48c-3.69-.14-7.37-.32-11.06-.54,0-5.94,0-11.88,0-17.82,3.68.22,7.37.4,11.06.54v3.48c-2.22-.08-4.44-.18-6.66-.3Z"/>
          <path class="cls-8" d="m165.61,337.29v17.82c-1.47.01-2.93.02-4.4.02v-10.69c-1.35,3.56-2.69,7.12-4.04,10.67-1.18,0-2.37-.02-3.55-.04-1.36-3.59-2.71-7.19-4.07-10.79v10.71c-1.47-.03-2.93-.07-4.4-.12,0-5.94,0-11.88,0-17.82,1.73.06,3.47.1,5.2.14,1.69,4.15,3.38,8.29,5.07,12.42,1.67-4.09,3.35-8.2,5.02-12.31,1.72,0,3.45,0,5.17-.02Z"/>
          <path class="cls-8" d="m172.65,354.01c-1.42-.75-2.54-1.81-3.37-3.19-.83-1.38-1.25-2.95-1.25-4.69,0-1.74.42-3.31,1.25-4.72.83-1.4,1.96-2.51,3.37-3.32,1.42-.81,2.97-1.24,4.67-1.3,1.7-.06,3.25.27,4.67.99,1.41.72,2.53,1.75,3.34,3.1.81,1.35,1.22,2.89,1.22,4.64,0,1.74-.41,3.33-1.23,4.77-.82,1.44-1.94,2.58-3.34,3.42-1.41.84-2.96,1.29-4.66,1.34-1.7.06-3.25-.29-4.67-1.04Zm8.13-4.47c.87-.98,1.3-2.25,1.3-3.81,0-1.57-.43-2.81-1.3-3.72-.87-.9-2.02-1.33-3.46-1.28-1.46.05-2.62.54-3.49,1.5-.87.95-1.3,2.22-1.3,3.82,0,1.57.43,2.82,1.3,3.74.87.92,2.03,1.35,3.49,1.31,1.44-.05,2.59-.57,3.46-1.55Z"/>
          <path class="cls-8" d="m205.13,353.17c-1.46.13-2.93.25-4.39.37-2.45-3.47-4.9-6.95-7.35-10.46v10.99c-1.46.1-2.93.18-4.39.27v-17.82c1.47-.08,2.93-.17,4.39-.27,2.45,3.52,4.9,7.02,7.35,10.51v-11.04c1.46-.12,2.93-.24,4.39-.37,0,5.94,0,11.88,0,17.82Z"/>
        </g>
      </g>
    </g>
    <path class="cls-12" d="m244.42,403.21c-90.46,31.39-166.87,0-166.87,0,5.46-6.41,1.35-11.48,1.35-11.48,0,0,71.76,28.92,164.17,0,0,0-4.61,5.55,1,11.12l.35.36Z"/>
    <path class="cls-13" d="m245.55,459.23c-9.39,41.14-84.56,40.05-84.56,40.05-84.05-2.51-84.56-40.05-84.56-40.05l1.13-56.02s73.79,30.79,166.87,0l1.12,56.02Z"/>
    <g class="cls-25">
      <g>
        <path class="cls-3" d="m248.36,385.91c-40.56,43.35-81.33,82.76-121.72,118.23"/>
        <path class="cls-3" d="m255.43,392.45c-40.54,43.8-81.31,83.67-121.75,119.6"/>
        <path class="cls-3" d="m262.49,398.92c-40.51,44.26-81.28,84.59-121.76,120.98"/>
        <path class="cls-3" d="m269.56,405.3c-40.47,44.72-81.25,85.5-121.76,122.35"/>
        <path class="cls-3" d="m276.61,411.61c-40.44,45.18-81.21,86.42-121.75,123.72"/>
        <path class="cls-3" d="m283.66,417.83c-40.4,45.63-81.16,87.33-121.72,125.09"/>
      </g>
    </g>
    <path class="cls-7" d="m108.37,57.38v7.46s48.7-14.4,105.22,0v-7.46s-46.92-16.01-105.22,0Z"/>
  </g>
  <g id="Layer_3" data-name="Layer 3">
    <path class="cls-1" d="m168.48,499.28c76.71-5.32,77.06-40.05,77.06-40.05l-1.12-56.02c-6.01-5.88-1.35-11.48-1.35-11.48l2.25-165.96c-5.53-10.24,3.08-14.79,3.08-14.79,2.39-86.96-43.5-128.1-43.5-128.1l2.4-9.9,6.3-2.4v-13.2l-1.8-2.7,1.8-2.1-.16-3.88-1.04-3.92-2.47-26.15c-6.01-14.04-41.44-14.08-41.44-14.08h-15s-35.43.04-41.44,14.08l-2.47,26.15-1.04,3.92-.16,3.88,1.8,2.1-1.8,2.7v13.2s6.3,2.4,6.3,2.4l2.4,9.9s-45.89,41.14-43.5,128.1c0,0,8.61,4.55,3.08,14.79l2.25,165.96s4.66,5.59-1.35,11.47l-1.13,56.02s.35,34.73,77.06,40.05h15Z"/>
    <path class="cls-4" d="m108.37,52.58c34.44-9.42,70.78-9.42,105.22,0"/>
    <path class="cls-4" d="m108.37,57.38c34.44-9.42,70.78-9.42,105.22,0"/>
    <path class="cls-4" d="m114.67,72.98c30.55-6.33,62.07-6.33,92.62,0"/>
    <path class="cls-4" d="m108.37,70.58c34.44-9.42,70.78-9.42,105.22,0"/>
    <path class="cls-4" d="m108.37,64.84c34.58-8.3,70.64-8.3,105.22,0"/>
    <path class="cls-4" d="m104.39,97.99c37.43-5.33,75.43-5.33,112.86,0"/>
    <path class="cls-4" d="m78.9,391.73c53.35,17.34,110.82,17.34,164.17,0"/>
    <path class="cls-4" d="m77.55,403.21c54.08,18.52,112.79,18.52,166.87,0"/>
    <path class="cls-4" d="m73.57,210.98c58.24,2.75,116.58,2.75,174.82,0"/>
    <path class="cls-4" d="m76.65,225.77c56.14,4.42,112.53,4.42,168.67,0"/>
    <g>
      <path class="cls-4" d="m169.18,12.25c.11,7.29.22,14.58.33,21.88"/>
      <path class="cls-4" d="m165.9,12.12c.07,7.29.13,14.58.2,21.87"/>
      <path class="cls-4" d="m162.63,12.05c.02,7.29.04,14.58.07,21.87"/>
      <path class="cls-4" d="m159.34,12.05c-.02,7.29-.04,14.58-.07,21.87"/>
      <path class="cls-4" d="m182.28,13.48c.29,7.31.58,14.62.87,21.93"/>
      <path class="cls-4" d="m179.01,13.07c.25,7.3.49,14.61.74,21.91"/>
      <path class="cls-4" d="m175.75,12.73c.2,7.3.4,14.6.6,21.9"/>
      <path class="cls-4" d="m172.47,12.46c.16,7.29.31,14.59.47,21.88"/>
      <path class="cls-4" d="m139.54,13.5c-.29,7.31-.58,14.62-.88,21.93"/>
      <path class="cls-4" d="m136.3,13.97c-.34,7.32-.67,14.63-1.01,21.95"/>
      <path class="cls-4" d="m133.04,14.52c-.38,7.32-.76,14.65-1.14,21.97"/>
      <path class="cls-4" d="m155.92,12.12c-.07,7.29-.14,14.58-.21,21.87"/>
      <path class="cls-4" d="m152.63,12.26c-.11,7.29-.23,14.58-.34,21.88"/>
      <path class="cls-4" d="m149.37,12.47c-.16,7.3-.32,14.59-.47,21.89"/>
      <path class="cls-4" d="m146.09,12.74c-.2,7.3-.41,14.6-.61,21.9"/>
      <path class="cls-4" d="m142.81,13.09c-.25,7.3-.49,14.61-.74,21.91"/>
      <path class="cls-4" d="m192.05,15.11c.42,7.33.85,14.66,1.27,21.99"/>
      <path class="cls-4" d="m188.83,14.5c.38,7.32.76,14.65,1.14,21.97"/>
      <path class="cls-4" d="m185.57,13.96c.33,7.32.67,14.63,1,21.95"/>
      <path class="cls-4" d="m204.91,18.24c.6,7.37,1.2,14.75,1.79,22.12"/>
      <path class="cls-4" d="m201.73,17.36c.55,7.36,1.11,14.72,1.66,22.08"/>
      <path class="cls-4" d="m198.52,16.54c.51,7.35,1.02,14.7,1.53,22.05"/>
      <path class="cls-4" d="m195.29,15.79c.47,7.34.93,14.68,1.4,22.02"/>
      <path class="cls-4" d="m120.24,17.36c-.55,7.36-1.11,14.72-1.66,22.08"/>
      <path class="cls-4" d="m117.06,18.24c-.6,7.37-1.2,14.75-1.79,22.12"/>
      <path class="cls-4" d="m129.92,15.11c-.42,7.33-.85,14.66-1.27,21.99"/>
      <path class="cls-4" d="m126.68,15.79c-.47,7.34-.93,14.68-1.4,22.02"/>
      <path class="cls-4" d="m123.45,16.54c-.51,7.35-1.02,14.7-1.53,22.05"/>
    </g>
  </g>
  <g id="Layer_5" data-name="Layer 5">
    <g>
      <g class="cls-22">
        <g class="cls-22">
          <path class="cls-18" d="m154.81,187.46c-.11.48-.22.96-.34,1.44-1.27,0-2.54.02-3.81.03-.76,3.28-1.53,6.56-2.3,9.85-.79,0-1.58.02-2.37.03.78-3.28,1.55-6.57,2.32-9.85-1.28.01-2.55.03-3.83.05.12-.48.23-.97.35-1.45,3.32-.05,6.65-.08,9.97-.1Z"/>
          <path class="cls-18" d="m159.19,188.87c-.26,1.14-.51,2.28-.77,3.42,1.65,0,3.3,0,4.96,0-.1.48-.2.95-.31,1.43-1.65,0-3.31,0-4.96,0-.27,1.18-.54,2.37-.82,3.55,1.87,0,3.73,0,5.6,0-.11.48-.22.96-.33,1.44-2.66,0-5.31,0-7.97.02.87-3.77,1.73-7.53,2.59-11.29,2.63,0,5.26,0,7.9,0-.11.48-.22.96-.32,1.44-1.85,0-3.71,0-5.56,0Z"/>
          <path class="cls-18" d="m174.65,196.49c-2.01-.02-4.02-.04-6.03-.06-.51.76-1.03,1.53-1.54,2.29-.82,0-1.65,0-2.47-.01,2.56-3.75,5.1-7.5,7.62-11.23.9,0,1.81.02,2.71.03.91,3.77,1.82,7.55,2.74,11.32-.83-.01-1.66-.02-2.49-.03-.18-.77-.36-1.54-.54-2.31Zm-.33-1.45c-.41-1.77-.82-3.54-1.23-5.32-1.16,1.75-2.33,3.51-3.51,5.27,1.58.01,3.16.03,4.74.05Z"/>
        </g>
      </g>
      <path class="cls-18" d="m168.02,144.79c.58.59,1.16,1.18,1.74,1.76-12.02,12.13-24.4,24.46-37.14,37.01-.58-.57-1.16-1.14-1.74-1.7,12.74-12.57,25.12-24.92,37.14-37.07Z"/>
      <path class="cls-7" d="m176.73,124.87c.3.3.59.61.89.91-11.73,12.04-23.82,24.28-36.27,36.73-.3-.29-.59-.59-.89-.88,12.45-12.46,24.55-24.71,36.27-36.76Z"/>
      <g>
        <path class="cls-7" d="m94.5,136.72c2.09-.13,4.17-.26,6.26-.38-.31,6.3-.63,12.6-.94,18.9,2.23-.13,4.47-.25,6.7-.36.28-6.3.56-12.6.84-18.89,2.11-.11,4.22-.21,6.33-.3.07-1.79.14-3.58.21-5.37-6.37.28-12.74.63-19.1,1.03-.1,1.79-.2,3.58-.3,5.38Z"/>
        <path class="cls-7" d="m116.35,130.21c2.19-.09,4.38-.18,6.57-.26-.26,8.08-.51,16.17-.77,24.25-2.23.08-4.47.17-6.7.26.3-8.09.6-16.17.9-24.26Z"/>
        <path class="cls-7" d="m146.37,129.37c-2,5.28-4.02,10.56-6.07,15.85-1.92-5.21-3.81-10.42-5.67-15.62-2.65.07-5.3.14-7.95.23-.23,8.08-.46,16.17-.69,24.25,2.24-.07,4.47-.14,6.71-.2.1-4.49.21-8.99.31-13.48,1.41,4.45,2.83,8.91,4.27,13.37,1.87-.04,3.74-.08,5.61-.11,1.58-4.48,3.15-8.96,4.7-13.44-.05,4.46-.1,8.92-.15,13.37.51,0,1.02-.01,1.54-.02,1.74-1.75,3.48-3.5,5.2-5.24.04-6.35.07-12.7.11-19.05-2.64.02-5.28.04-7.92.08Z"/>
        <path class="cls-7" d="m158.04,129.27c-.01,5.06-.02,10.13-.04,15.19,2.23-2.25,4.44-4.5,6.64-6.73,0-1.02,0-2.04,0-3.06,1,0,1.99,0,2.99.01,1.75-1.79,3.5-3.57,5.24-5.35-4.94-.06-9.88-.08-14.83-.06Z"/>
      </g>
      <g>
        <path class="cls-8" d="m143.25,174.37c-.08-.35-.17-.69-.25-1.04-.97.96-1.94,1.92-2.91,2.88.24.89.48,1.78.72,2.67,1.49-.04,2.98-.07,4.47-.11,1.15-3.71,2.29-7.41,3.42-11.11-1.64,1.63-3.28,3.26-4.93,4.89-.18.6-.35,1.21-.53,1.81Z"/>
        <path class="cls-8" d="m158.18,174.13c-1.09-4.23-2.18-8.45-3.25-12.68-1.01,1.01-2.02,2.02-3.04,3.04,1.28,4.73,2.58,9.46,3.9,14.19,1.5,0,3.01-.01,4.51-.01,2.4-7.97,4.76-15.93,7.07-23.88-1.39,0-2.79-.01-4.18-.02-1.64,6.45-3.32,12.9-5.01,19.36Z"/>
        <path class="cls-8" d="m173.55,154.8c-2.76,7.94-5.58,15.9-8.45,23.86,1.39,0,2.77.01,4.16.02.57-1.62,1.14-3.25,1.71-4.87,3.37.03,6.75.08,10.12.14.61,1.64,1.21,3.28,1.83,4.92,1.4.03,2.79.06,4.19.09-3.07-8.05-6.08-16.08-9.03-24.1-1.51-.02-3.02-.04-4.52-.06,0,0,0,0,0,0Zm-1.5,15.83c1.29-3.69,2.56-7.37,3.82-11.06,1.34,3.72,2.69,7.44,4.05,11.17-2.63-.05-5.25-.08-7.88-.11Z"/>
        <path class="cls-8" d="m206.01,167.1c.86-1.24,1.26-2.63,1.2-4.19-.05-1.33-.41-2.55-1.08-3.65-.67-1.11-1.65-2-2.94-2.7-1.29-.69-2.85-1.07-4.67-1.13-2.74-.1-5.48-.18-8.22-.26.19,7.97.38,15.94.57,23.9,1.33.04,2.66.07,3.98.12-.09-3.19-.17-6.37-.26-9.56,1.01.03,2.01.06,3.02.1,1.94,3.25,3.9,6.5,5.87,9.76,1.58.06,3.16.13,4.75.19-2.13-3.39-4.24-6.77-6.33-10.15,1.88-.39,3.25-1.2,4.11-2.43,0,0,0,0,0,0Zm-11.5-.61c-.07-2.67-.14-5.34-.22-8.01,1.44.04,2.88.09,4.32.14,1.49.05,2.61.44,3.37,1.17.76.73,1.16,1.71,1.2,2.95.04,1.24-.3,2.21-1.02,2.91-.72.71-1.82,1.03-3.3.98-1.45-.05-2.9-.1-4.35-.14t0,0Z"/>
        <path class="cls-8" d="m227.83,160.34c-.69-1.12-1.68-2.03-2.98-2.74-1.3-.71-2.86-1.11-4.69-1.21-2.74-.15-5.48-.29-8.22-.42.33,7.97.66,15.95.99,23.92,1.33.06,2.65.13,3.98.2-.14-3.24-.29-6.47-.43-9.71,1.45.07,2.91.15,4.36.23,1.98.11,3.6-.14,4.83-.73,1.23-.6,2.11-1.42,2.62-2.47.51-1.04.74-2.17.67-3.39-.07-1.33-.46-2.56-1.15-3.68,0,0,0,0,0,0Zm-3.84,6.24c-.7.64-1.8.91-3.3.82-1.45-.08-2.9-.16-4.35-.23-.12-2.6-.23-5.21-.35-7.81,1.44.07,2.88.15,4.32.23,2.95.16,4.49,1.56,4.63,4.18.06,1.24-.25,2.17-.96,2.81Z"/>
      </g>
    </g>
  </g>
</svg>