<?xml version="1.0" encoding="UTF-8"?>
<svg xmlns="http://www.w3.org/2000/svg" xmlns:xlink="http://www.w3.org/1999/xlink" viewBox="0 0 270.74 539.8">
  <defs>
    <style>
      .cls-1, .cls-2, .cls-3, .cls-4 {
        fill: none;
      }

      .cls-1, .cls-3, .cls-4 {
        stroke-miterlimit: 10;
      }

      .cls-1, .cls-4 {
        stroke: #231f20;
      }

      .cls-5 {
        fill: #6bc179;
      }

      .cls-5, .cls-6, .cls-7, .cls-8, .cls-9, .cls-2, .cls-10, .cls-11, .cls-12, .cls-13, .cls-14, .cls-15, .cls-16 {
        stroke-width: 0px;
      }

      .cls-6 {
        fill: #818285;
        opacity: .19;
      }

      .cls-7, .cls-17 {
        fill: #29aae1;
      }

      .cls-18 {
        clip-path: url(#clippath-2);
      }

      .cls-8 {
        fill: #010101;
      }

      .cls-19 {
        isolation: isolate;
      }

      .cls-9 {
        fill: #f2f2f2;
      }

      .cls-9, .cls-12, .cls-13 {
        opacity: .81;
      }

      .cls-20 {
        clip-path: url(#clippath-1);
      }

      .cls-3 {
        stroke: #939598;
      }

      .cls-10 {
        fill: #ee2d58;
      }

      .cls-11 {
        fill: #ededed;
      }

      .cls-12 {
        fill: #ef4754;
      }

      .cls-13 {
        fill: #e96374;
      }

      .cls-21 {
        clip-path: url(#clippath-3);
      }

      .cls-14 {
        fill: #e31d6d;
      }

      .cls-15 {
        fill: #e41d6d;
      }

      .cls-16 {
        fill: #2aa7df;
      }

      .cls-4 {
        stroke-width: .75px;
      }
    </style>
    <clipPath id="clippath-1">
      <path class="cls-2" d="m222.21,210.98c-56.79,4.17-174.82,0-174.82,0-3.75-64.24,30.82-112.99,30.82-112.99,0,0,48.93-9.07,112.86,0,0,0,31.23,33.22,31.23,110.92l-.09,2.07Z"/>
    </clipPath>
    <clipPath id="clippath-2">
      <path class="cls-2" d="m219.13,225.77c-92.19,7.26-168.67,0-168.67,0l2.25,165.96s74.76,30.12,164.17,0l2.25-165.96Z"/>
    </clipPath>
    <clipPath id="clippath-3">
      <path class="cls-2" d="m219.36,459.23c-9.39,41.14-84.56,40.05-84.56,40.05-84.05-2.51-84.56-40.05-84.56-40.05l1.13-56.02s73.79,30.79,166.87,0l1.12,56.02Z"/>
    </clipPath>
  </defs>
  <g id="Layer_4" data-name="Layer 4">
    <path class="cls-17" d="m187.41,52.58l-.16-3.88-1.04-3.92-2.47-26.15c-6.01-14.04-41.44-14.08-41.44-14.08h-15s-35.43.04-41.44,14.08l-2.47,26.15-1.04,3.92-.16,3.88s46.04-15.93,105.22,0Z"/>
    <path class="cls-11" d="m187.41,52.58c-57.43-16.08-105.22,0-105.22,0l1.8,2.1-1.8,2.7s51.96-15.9,105.22,0l-1.8-2.7,1.8-2.1Z"/>
    <path class="cls-2" d="m187.41,64.84c-57.99-14.4-105.22,0-105.22,0v5.74s49.71-16.76,105.22,0v-5.74Z"/>
    <path class="cls-4" d="m187.41,64.84c-60.69-14.62-105.22,0-105.22,0v5.74s43.41-16.31,105.22,0v-5.74Z"/>
    <path class="cls-13" d="m187.41,70.58c-57.09-16.53-105.22,0-105.22,0l6.3,2.4s43.64-11.43,92.62,0l6.3-2.4Z"/>
    <path class="cls-12" d="m181.11,72.98c-48.69-10.98-92.62,0-92.62,0l2.4,9.9s-3.77,3.04-12.68,15.11c0,0,52.98-9.07,112.86,0,0,0-7.8-11.85-12.36-15.11l2.4-9.9Z"/>
    <g class="cls-20">
      <g>
        <path class="cls-3" d="m126.51,57.78C84.47,97.23,42.26,140.27.35,186.91"/>
        <path class="cls-3" d="m133.58,65.32C91.56,104.36,49.35,147,7.41,193.24"/>
        <path class="cls-3" d="m140.65,72.93c-42,38.64-84.21,80.88-126.18,126.72"/>
        <path class="cls-3" d="m147.71,80.6c-41.97,38.24-84.19,80.07-126.18,125.51"/>
        <path class="cls-3" d="m154.77,88.35c-41.94,37.83-84.16,79.27-126.18,124.29"/>
        <path class="cls-3" d="m161.82,96.16c-41.91,37.43-84.12,78.46-126.16,123.08"/>
      </g>
    </g>
    <path class="cls-12" d="m219.13,225.77c-82.29,7.03-168.67,0-168.67,0,5.09-10.29-3.08-14.79-3.08-14.79,0,0,100.34,3.94,174.82,0,0,0-8.43,4.27-3.37,14.23l.29.56Z"/>
    <g class="cls-18">
      <g>
        <g id="Pattern_1" data-name="Pattern 1">
          <path id="Ellipse_26" data-name="Ellipse 26" class="cls-5" d="m84.85,276.61c25.1,3.15,45.6,23.24,45.59,48.17.01,24.84-20.49,45.09-45.59,41.95-25.11-3.06-45.12-28.35-45.12-53.19,0-24.93,20.01-40,45.12-36.93Z"/>
          <path id="Ellipse_22" data-name="Ellipse 22" class="cls-10" d="m86.62,287.9c32.83-25.82,76.68-33.92,97.46-14.73,20.77,19.1,11.13,64.02-21.79,96.98-32.98,33.04-76.72,35.84-97.35,9.61-20.61-26.32-11.09-65.94,21.68-91.85Z"/>
          <path id="Ellipse_24" data-name="Ellipse 24" class="cls-10" d="m111.74,360.99c-3.78-35.81,12.59-65.05,36.58-68.22,24-3.09,46.37,20.33,50.1,55.2,3.74,34.79-12.46,68.61-36.43,72.64-23.97,4.1-46.49-23.89-50.26-59.62Z"/>
          <path id="Ellipse_25" data-name="Ellipse 25" class="cls-5" d="m144.09,324.43c-4.75-29.53,11.56-56.24,36.28-62.71,24.73-6.39,48.25,8.91,52.87,37.22,4.62,28.24-11.22,59.77-35.83,67.38-24.6,7.68-48.59-12.44-53.32-41.89Z"/>
        </g>
        <path class="cls-6" d="m231.95,391.79c-62.71,14.87-128.02,14.97-190.77.29v-195.98c62.74,14.67,128.06,14.58,190.77-.29v195.98Z"/>
        <g>
          <path class="cls-14" d="m145.41,374.76c.31.29.61.59.92.88-6.4,6.47-12.8,12.8-19.2,18.97-.31-.31-.61-.62-.92-.92,6.4-6.16,12.8-12.47,19.2-18.93Z"/>
          <path class="cls-16" d="m139.01,377.12c.16.15.31.31.47.46-6.4,6.37-12.8,12.59-19.2,18.66-.16-.16-.31-.32-.47-.48,6.4-6.06,12.8-12.28,19.2-18.64Z"/>
          <g>
            <path class="cls-16" d="m95.06,380.22c1.11.11,2.22.21,3.33.32v9.74c1.17.11,2.35.21,3.52.3v-9.74c1.12.09,2.25.18,3.37.26v-2.77c-3.41-.25-6.82-.55-10.23-.88v2.77Z"/>
            <path class="cls-16" d="m106.6,378.42c1.17.08,2.35.16,3.52.23v12.51c-1.17-.07-2.35-.15-3.52-.23v-12.51Z"/>
            <path class="cls-16" d="m122.69,379.25c-1.04,2.68-2.07,5.35-3.11,8.02-1.06-2.75-2.12-5.51-3.18-8.27-1.42-.07-2.84-.14-4.26-.22v12.51c1.17.07,2.35.13,3.52.19v-6.96c.8,2.36,1.61,4.71,2.41,7.07.98.04,1.97.08,2.95.12.8-2.27,1.59-4.55,2.39-6.82v6.9c.27,0,.54.02.81.02.91-.87,1.81-1.74,2.72-2.61v-9.83c-1.42-.03-2.83-.07-4.25-.11Z"/>
            <path class="cls-16" d="m128.95,379.4v7.84c1.18-1.14,2.35-2.28,3.53-3.43v-1.58c.53,0,1.07,0,1.6.01.94-.92,1.88-1.85,2.83-2.78-2.65,0-5.3-.01-7.95-.06Z"/>
          </g>
          <g>
            <path class="cls-8" d="m132.21,390.3c-.05-.18-.09-.36-.14-.54-.49.48-.99.96-1.48,1.44.13.46.26.93.4,1.39.77,0,1.54,0,2.3,0,.57-1.9,1.14-3.8,1.71-5.71-.84.83-1.68,1.66-2.53,2.48-.09.31-.17.62-.26.93Z"/>
            <path class="cls-8" d="m139.93,390.25c-.57-2.18-1.14-4.36-1.71-6.54-.53.52-1.05,1.04-1.58,1.56.69,2.44,1.37,4.89,2.06,7.33.77,0,1.55-.01,2.32-.02,1.24-4.13,2.47-8.26,3.71-12.4-.73.02-1.46.03-2.2.04-.87,3.34-1.74,6.69-2.61,10.03Z"/>
            <path class="cls-8" d="m147.98,380.08c-1.49,4.16-2.99,8.31-4.48,12.46.71-.01,1.43-.03,2.14-.04.3-.85.6-1.69.9-2.54,1.74-.04,3.49-.1,5.23-.17.3.83.6,1.66.9,2.49.72-.03,1.44-.06,2.16-.09-1.49-4.05-2.99-8.11-4.48-12.17-.79.03-1.58.05-2.38.08,0,0,0,0,0,0Zm-.86,8.21c.68-1.93,1.37-3.86,2.05-5.79.68,1.89,1.35,3.78,2.03,5.66-1.36.05-2.72.09-4.08.13Z"/>
            <path class="cls-8" d="m164.8,385.16c.47-.69.71-1.44.71-2.24,0-.69-.16-1.3-.5-1.83-.33-.53-.83-.94-1.49-1.23-.67-.29-1.48-.4-2.44-.34-1.44.09-2.88.17-4.31.24v12.34c.68-.03,1.37-.07,2.05-.11v-4.93c.52-.03,1.04-.06,1.56-.09.96,1.59,1.92,3.17,2.88,4.76.81-.05,1.63-.11,2.44-.17-1.03-1.63-2.06-3.26-3.09-4.9.98-.3,1.71-.8,2.18-1.49,0,0,0,0,0,0Zm-5.97.27v-4.14c.75-.04,1.51-.09,2.26-.13.78-.05,1.36.1,1.74.43.38.34.58.82.58,1.46,0,.64-.19,1.16-.59,1.56-.39.4-.97.63-1.73.68-.75.05-1.51.09-2.26.13h0Z"/>
            <path class="cls-8" d="m176.35,380.12c-.33-.52-.82-.92-1.49-1.18-.66-.26-1.47-.35-2.43-.27-1.44.13-2.87.25-4.31.36v12.34c.68-.05,1.37-.11,2.05-.16,0-1.67,0-3.34,0-5.01.75-.06,1.51-.13,2.26-.19,1.03-.09,1.87-.34,2.53-.75.66-.41,1.14-.91,1.43-1.5.3-.59.45-1.19.45-1.82,0-.69-.16-1.29-.49-1.82,0,0,0,0,0,0Zm-2.18,3.55c-.38.39-.96.61-1.74.68-.75.07-1.51.13-2.26.19,0-1.34,0-2.69,0-4.03.75-.06,1.51-.13,2.26-.19,1.54-.14,2.32.46,2.32,1.81,0,.64-.19,1.15-.57,1.54Z"/>
          </g>
        </g>
        <g>
          <path class="cls-14" d="m240.27,361.58c.3.22.6.45.89.67-6.24,7.94-12.51,15.74-18.81,23.39-.3-.24-.6-.48-.9-.71,6.3-7.63,12.57-15.42,18.82-23.35Z"/>
          <path class="cls-16" d="m234.01,365.41c.15.12.31.24.46.35-6.26,7.84-12.55,15.53-18.86,23.07-.15-.12-.31-.25-.46-.37,6.31-7.54,12.6-15.22,18.86-23.05Z"/>
          <g>
            <path class="cls-16" d="m190.6,378.63c1.11-.15,2.22-.3,3.32-.45v9.74c1.17-.16,2.33-.33,3.5-.51v-9.74c1.12-.17,2.24-.34,3.35-.51v-2.77c-3.39.53-6.78,1.03-10.18,1.48v2.77Z"/>
            <path class="cls-16" d="m202.08,374.17c1.16-.19,2.33-.38,3.49-.58v12.51c-1.16.2-2.33.39-3.49.58v-12.51Z"/>
            <path class="cls-16" d="m217.99,371.29c-1.02,2.92-2.04,5.83-3.07,8.74-1.05-2.51-2.1-5.02-3.14-7.54-1.4.26-2.81.51-4.21.76,0,4.17,0,8.34,0,12.51,1.16-.2,2.33-.41,3.49-.62v-6.96c.79,2.17,1.59,4.34,2.38,6.51.97-.18,1.94-.37,2.91-.56.79-2.46,1.57-4.91,2.36-7.37v6.9c.27-.05.53-.11.8-.16.89-1.08,1.79-2.16,2.68-3.24v-9.83c-1.39.29-2.79.58-4.18.86Z"/>
            <path class="cls-16" d="m224.15,370.01v7.84c1.16-1.41,2.31-2.83,3.47-4.25v-1.58c.52-.12,1.05-.24,1.57-.36.92-1.14,1.85-2.29,2.77-3.43-2.6.62-5.2,1.21-7.8,1.77Z"/>
          </g>
          <g>
            <path class="cls-8" d="m227.35,380.16c-.05-.17-.09-.34-.14-.51-.48.6-.97,1.19-1.45,1.78.13.43.26.87.39,1.3.75-.17,1.51-.35,2.26-.53.56-2.03,1.12-4.06,1.67-6.1-.83,1.02-1.65,2.04-2.48,3.06-.09.33-.17.66-.26.99Z"/>
            <path class="cls-8" d="m234.92,378.33c-.56-2.05-1.12-4.1-1.68-6.14-.51.64-1.03,1.28-1.54,1.92.67,2.29,1.35,4.57,2.02,6.85.76-.18,1.51-.37,2.27-.56,1.21-4.41,2.42-8.83,3.62-13.25-.71.18-1.43.37-2.14.55-.85,3.54-1.7,7.09-2.55,10.63Z"/>
            <path class="cls-8" d="m242.78,366.31c-1.46,4.5-2.91,9-4.37,13.49.7-.18,1.39-.36,2.09-.54.29-.92.59-1.83.88-2.75,1.7-.45,3.4-.9,5.1-1.37.29.76.58,1.52.88,2.28.7-.19,1.4-.39,2.1-.59-1.45-3.71-2.9-7.42-4.36-11.14-.77.21-1.54.42-2.31.62,0,0,0,0,0,0Zm-.84,8.4c.67-2.09,1.33-4.17,2-6.27.66,1.73,1.32,3.47,1.98,5.2-1.33.36-2.65.72-3.98,1.07Z"/>
            <path class="cls-8" d="m259.11,367.51c.46-.8.69-1.6.69-2.41,0-.69-.16-1.26-.48-1.71-.32-.46-.8-.75-1.44-.89-.64-.13-1.43-.06-2.36.22-1.39.42-2.79.83-4.19,1.23v12.34c.66-.19,1.33-.38,1.99-.58v-4.93c.51-.15,1.01-.3,1.52-.45.93,1.37,1.86,2.73,2.79,4.09.79-.24,1.58-.48,2.36-.73-1-1.39-1.99-2.79-2.99-4.19.95-.53,1.66-1.19,2.11-1.99,0,0,0,0,0,0Zm-5.79,1.65v-4.14c.73-.22,1.46-.43,2.2-.65.76-.23,1.32-.22,1.69.03.37.25.56.69.56,1.33,0,.64-.19,1.21-.57,1.7-.38.49-.94.85-1.68,1.08-.73.22-1.46.44-2.2.65h0Z"/>
            <path class="cls-8" d="m270.27,359.81c-.32-.45-.79-.73-1.43-.84-.64-.11-1.42-.01-2.34.29-1.38.46-2.77.91-4.16,1.35,0,4.11,0,8.22,0,12.34.66-.21,1.32-.42,1.98-.64v-5.01c.73-.24,1.45-.47,2.18-.71.99-.33,1.8-.78,2.44-1.34.63-.56,1.09-1.17,1.38-1.83.29-.65.43-1.29.43-1.92,0-.69-.16-1.25-.48-1.7,0,0,0,0,0,0Zm-2.1,4.06c-.37.47-.93.83-1.68,1.08-.73.24-1.45.48-2.18.71v-4.03c.73-.24,1.45-.47,2.18-.71,1.49-.49,2.23-.07,2.23,1.28,0,.64-.18,1.19-.55,1.67Z"/>
          </g>
        </g>
        <g>
          <path class="cls-14" d="m50.17,365.93c.3.36.6.73.9,1.09-6.3,5-12.57,9.85-18.82,14.56-.3-.38-.6-.76-.89-1.14,6.24-4.69,12.52-9.53,18.81-14.52Z"/>
          <path class="cls-16" d="m43.88,366.81c.15.19.31.38.46.57-6.28,4.9-12.54,9.64-18.76,14.24-.15-.2-.31-.39-.46-.59,6.22-4.59,12.48-9.33,18.76-14.22Z"/>
          <g>
            <path class="cls-16" d="m1.17,359.79c1.07.37,2.14.73,3.21,1.09v9.74c1.13.38,2.26.75,3.39,1.12v-9.74c1.09.35,2.17.7,3.26,1.04v-2.77c-3.3-1.04-6.59-2.12-9.87-3.24v2.77Z"/>
            <path class="cls-16" d="m12.3,360.66c1.14.35,2.27.7,3.41,1.04v12.51c-1.14-.34-2.27-.69-3.41-1.04,0-4.17,0-8.34,0-12.51Z"/>
            <path class="cls-16" d="m27.92,365.19c-1.01,2.44-2.02,4.87-3.03,7.3-1.03-3-2.06-6-3.1-9-1.38-.39-2.76-.79-4.14-1.2v12.51c1.14.34,2.28.67,3.42,1v-6.96c.78,2.54,1.56,5.08,2.34,7.62.96.27,1.91.53,2.87.8.78-2.09,1.55-4.18,2.33-6.27v6.9c.26.07.52.14.79.21.88-.66,1.77-1.32,2.65-1.99v-9.83c-1.38-.36-2.76-.72-4.14-1.09Z"/>
            <path class="cls-16" d="m34.03,366.78v7.84c1.15-.87,2.3-1.74,3.45-2.62v-1.58c.52.13,1.04.25,1.56.38.92-.71,1.85-1.42,2.77-2.13-2.6-.6-5.19-1.23-7.78-1.89Z"/>
          </g>
          <g>
            <path class="cls-8" d="m37.22,378.43c-.05-.19-.09-.38-.14-.57-.48.37-.97.74-1.45,1.1.13.49.26.99.39,1.48.75.18,1.5.36,2.25.53.56-1.77,1.11-3.54,1.67-5.31-.82.64-1.65,1.27-2.47,1.9-.08.29-.17.58-.25.87Z"/>
            <path class="cls-8" d="m44.78,380.16c-.56-2.31-1.12-4.62-1.68-6.93-.52.4-1.03.8-1.55,1.2.67,2.6,1.35,5.2,2.02,7.8.76.17,1.52.34,2.28.51,1.21-3.84,2.43-7.69,3.64-11.55-.72-.15-1.44-.31-2.16-.46-.85,3.14-1.71,6.29-2.56,9.43Z"/>
            <path class="cls-8" d="m52.7,371.84c-1.47,3.82-2.94,7.63-4.41,11.43.7.15,1.4.3,2.11.45.3-.78.59-1.56.89-2.34,1.72.36,3.44.7,5.16,1.04.3.9.59,1.8.89,2.69.71.14,1.42.27,2.13.4-1.47-4.39-2.95-8.8-4.42-13.2-.78-.15-1.56-.31-2.34-.47,0,0,0,0,0,0Zm-.85,8.01c.67-1.77,1.35-3.55,2.02-5.32.67,2.05,1.34,4.09,2,6.13-1.34-.26-2.68-.53-4.02-.81Z"/>
            <path class="cls-8" d="m69.32,380.79c.47-.58.7-1.27.7-2.08,0-.69-.16-1.33-.49-1.94-.33-.61-.82-1.13-1.48-1.57-.66-.44-1.46-.74-2.41-.9-1.42-.24-2.85-.5-4.27-.75,0,4.11,0,8.22,0,12.34.68.12,1.35.24,2.03.36v-4.93c.52.09,1.03.18,1.55.27.95,1.81,1.9,3.61,2.85,5.42.81.13,1.61.27,2.42.39-1.02-1.87-2.04-3.74-3.06-5.61.97-.07,1.69-.4,2.16-.98,0,0,0,0,0,0Zm-5.92-1.1v-4.14c.75.13,1.49.26,2.24.39.77.13,1.35.41,1.73.83.38.43.57.96.57,1.59,0,.64-.19,1.12-.58,1.43-.39.31-.96.41-1.72.28-.75-.13-1.49-.26-2.24-.39h0Z"/>
            <path class="cls-8" d="m80.81,378.41c-.33-.6-.82-1.11-1.48-1.52-.66-.42-1.47-.69-2.42-.83-1.43-.2-2.86-.42-4.28-.64,0,4.11,0,8.22,0,12.34.68.1,1.36.21,2.03.31v-5.01c.75.11,1.5.22,2.25.33,1.02.15,1.86.09,2.52-.17.65-.26,1.13-.65,1.43-1.16.3-.52.45-1.09.45-1.72,0-.69-.16-1.33-.49-1.93,0,0,0,0,0,0Zm-2.17,3.05c-.38.3-.96.39-1.73.28-.75-.11-1.5-.22-2.25-.33v-4.03c.75.11,1.5.22,2.25.33,1.53.22,2.31,1,2.31,2.35,0,.64-.19,1.11-.57,1.4Z"/>
          </g>
        </g>
        <path class="cls-9" d="m231.95,358.78c-62.5,14.82-127.59,14.96-190.14.44v-94.59c62.55,14.53,127.64,14.38,190.14-.44v94.59Z"/>
        <g>
          <g class="cls-19">
            <path class="cls-10" d="m135.39,330.4c-.09.42-.19.83-.28,1.25-1.09,0-2.18,0-3.27-.02-.63,2.83-1.26,5.66-1.89,8.49-.67,0-1.34-.02-2.01-.03.63-2.83,1.26-5.65,1.89-8.48-1.1-.02-2.19-.04-3.29-.06.09-.41.19-.83.28-1.24,2.86.06,5.71.1,8.57.1Z"/>
            <path class="cls-10" d="m139.15,331.62c-.22.99-.44,1.98-.65,2.97,1.41,0,2.83-.02,4.24-.05-.09.41-.18.83-.26,1.24-1.41.02-2.83.04-4.24.04-.23,1.03-.46,2.05-.69,3.08,1.59,0,3.18-.02,4.77-.05-.09.42-.19.84-.28,1.26-2.26.03-4.52.05-6.78.04.72-3.26,1.45-6.52,2.17-9.78,2.26,0,4.52-.03,6.78-.08-.09.42-.19.84-.28,1.26-1.59.03-3.18.05-4.77.06Z"/>
            <path class="cls-10" d="m152.34,337.85c-1.71.07-3.42.12-5.14.17-.44.68-.88,1.35-1.32,2.03-.7.02-1.4.03-2.1.04,2.19-3.3,4.38-6.62,6.57-9.95.78-.03,1.55-.06,2.33-.09.74,3.23,1.48,6.46,2.22,9.68-.71.03-1.41.06-2.12.09-.15-.66-.29-1.32-.44-1.98Zm-.26-1.24c-.34-1.52-.67-3.04-1.01-4.56-1.01,1.57-2.02,3.13-3.04,4.69,1.35-.04,2.7-.08,4.04-.14Z"/>
          </g>
          <path class="cls-10" d="m146.95,293.26c.51.49,1.03.98,1.54,1.47-10.74,10.92-21.49,21.43-32.23,31.52-.51-.53-1.02-1.06-1.54-1.59,10.74-10.05,21.49-20.52,32.23-31.4Z"/>
          <path class="cls-5" d="m154.92,275.63c.26.25.53.5.79.74-10.74,11.11-21.49,21.8-32.23,32.08-.26-.27-.53-.54-.79-.8,10.74-10.26,21.49-20.93,32.23-32.02Z"/>
          <g>
            <path class="cls-5" d="m81.18,281c1.86.25,3.72.48,5.58.7v16.36c1.96.23,3.93.45,5.9.66v-16.36c1.89.2,3.77.38,5.66.55v-4.65c-5.72-.52-11.44-1.16-17.14-1.92v4.65Z"/>
            <path class="cls-5" d="m100.52,278.46c1.97.17,3.94.32,5.91.46v21.01c-1.97-.14-3.94-.29-5.91-.46v-21.01Z"/>
            <path class="cls-5" d="m127.53,279.88c-1.74,4.52-3.48,9.02-5.22,13.51-1.78-4.61-3.56-9.23-5.35-13.86-2.39-.11-4.77-.24-7.15-.39v21.01c1.97.12,3.94.23,5.92.33v-11.68c1.35,3.96,2.7,7.91,4.04,11.86,1.65.06,3.3.12,4.95.16,1.34-3.83,2.68-7.66,4.02-11.5v11.59c.45,0,.9.01,1.36.02,1.52-1.48,3.05-2.97,4.57-4.46v-16.51c-2.38,0-4.76-.04-7.13-.08Z"/>
            <path class="cls-5" d="m138.04,279.96v13.17c1.97-1.96,3.95-3.93,5.92-5.91v-2.65c.89-.02,1.79-.04,2.68-.06,1.58-1.6,3.16-3.21,4.74-4.83-4.45.17-8.9.26-13.35.28Z"/>
          </g>
          <g>
            <path class="cls-8" d="m125.29,318.8c-.08-.3-.16-.61-.23-.91-.83.8-1.66,1.59-2.49,2.38.22.78.44,1.56.67,2.34,1.29.03,2.58.05,3.87.07.96-3.18,1.91-6.36,2.87-9.54-1.41,1.37-2.83,2.74-4.24,4.1-.15.52-.29,1.03-.44,1.55Z"/>
            <path class="cls-8" d="m138.25,318.85c-.96-3.66-1.92-7.32-2.87-10.99-.88.87-1.76,1.74-2.65,2.6,1.15,4.12,2.31,8.23,3.46,12.33,1.3,0,2.6,0,3.9-.02,2.08-6.92,4.15-13.86,6.23-20.82-1.23.03-2.46.06-3.69.08-1.46,5.62-2.92,11.22-4.38,16.82Z"/>
            <path class="cls-8" d="m151.77,301.74c-2.51,7.01-5.01,13.99-7.52,20.96,1.2-.02,2.4-.05,3.6-.09.5-1.43,1.01-2.85,1.51-4.28,2.93-.09,5.86-.22,8.78-.38.5,1.38,1.01,2.77,1.51,4.15,1.21-.07,2.41-.14,3.62-.22-2.5-6.75-5.01-13.52-7.52-20.31-1.33.06-2.66.12-3.99.17,0,0,0,0,0,0Zm-1.45,13.79c1.15-3.25,2.3-6.5,3.44-9.76,1.14,3.16,2.27,6.31,3.41,9.46-2.28.12-4.57.21-6.85.29Z"/>
            <path class="cls-8" d="m179.97,309.62c.79-1.19,1.19-2.46,1.19-3.81,0-1.15-.28-2.16-.83-3.04-.55-.88-1.38-1.53-2.5-1.97-1.11-.44-2.47-.59-4.08-.44-2.41.22-4.82.42-7.23.6,0,6.9,0,13.81,0,20.71,1.15-.08,2.29-.17,3.44-.27v-8.28c.87-.07,1.75-.15,2.62-.22,1.61,2.62,3.21,5.23,4.82,7.83,1.36-.14,2.73-.28,4.09-.43-1.72-2.67-3.45-5.35-5.18-8.04,1.64-.56,2.86-1.44,3.66-2.62,0,0,0,0,0,0Zm-10.01.78c0-2.31,0-4.63,0-6.94,1.27-.1,2.53-.21,3.79-.33,1.31-.12,2.28.09,2.92.63.64.54.96,1.35.96,2.42,0,1.07-.33,1.96-.98,2.66-.65.7-1.62,1.11-2.91,1.23-1.26.12-2.53.22-3.79.33t0,0Z"/>
            <path class="cls-8" d="m199.3,300.26c-.55-.85-1.38-1.46-2.49-1.84-1.11-.38-2.46-.46-4.06-.24-2.4.33-4.8.64-7.21.93,0,6.9,0,13.81,0,20.71,1.14-.14,2.28-.28,3.43-.43,0-2.8,0-5.6,0-8.4,1.26-.16,2.52-.33,3.78-.5,1.72-.24,3.13-.74,4.23-1.48,1.1-.75,1.9-1.63,2.4-2.64.5-1.01.75-2.04.75-3.1,0-1.15-.28-2.15-.83-3,0,0,0,0,0,0Zm-3.64,6.16c-.64.68-1.61,1.11-2.91,1.29-1.26.17-2.52.34-3.78.5,0-2.26,0-4.51,0-6.77,1.26-.16,2.52-.33,3.78-.5,2.58-.36,3.87.58,3.87,2.85,0,1.07-.32,1.95-.96,2.63Z"/>
          </g>
        </g>
        <g>
          <path class="cls-8" d="m83.18,343.41c-1.31,4.81-2.61,9.61-3.92,14.4-1.48-.2-2.95-.41-4.43-.63-.8-3.39-1.6-6.79-2.39-10.18-.83,3.15-1.65,6.29-2.48,9.43-1.47-.24-2.94-.48-4.42-.73-1.26-5.19-2.53-10.39-3.79-15.59,1.3.24,2.6.46,3.9.69.72,3.74,1.44,7.49,2.15,11.23.89-3.47,1.78-6.95,2.67-10.43,1.34.21,2.68.42,4.02.62.85,3.75,1.71,7.49,2.57,11.24.73-3.52,1.45-7.04,2.18-10.56,1.31.18,2.63.35,3.94.52Z"/>
          <path class="cls-8" d="m94.4,356.98c-1.87-.19-3.75-.39-5.62-.6-.3.84-.6,1.69-.9,2.53-1.28-.15-2.56-.3-3.84-.46,1.81-4.75,3.63-9.5,5.44-14.27,1.42.16,2.83.31,4.25.46,1.82,5.16,3.64,10.31,5.46,15.44-1.3-.11-2.59-.24-3.89-.36-.3-.91-.6-1.82-.9-2.73Zm-.94-2.9c-.62-1.88-1.24-3.77-1.87-5.66-.62,1.76-1.23,3.51-1.85,5.26,1.24.14,2.47.27,3.71.4Z"/>
          <path class="cls-8" d="m111.7,346.06v2.91c-1.33-.08-2.67-.16-4-.25v12.01c-1.23-.08-2.45-.17-3.68-.27v-12.01c-1.33-.1-2.67-.21-4-.33v-2.91c3.89.34,7.78.62,11.68.85Z"/>
          <path class="cls-8" d="m117.24,349.26v3.02c1.64.07,3.29.14,4.93.19,0,.94,0,1.87,0,2.81-1.64-.05-3.29-.12-4.93-.19v3.27c1.86.08,3.72.15,5.58.21v2.91c-3.09-.1-6.18-.23-9.26-.4v-14.92c3.09.17,6.17.3,9.26.4v2.91c-1.86-.06-3.72-.13-5.58-.21Z"/>
          <path class="cls-8" d="m132.92,361.68c-1.05-1.89-2.1-3.77-3.15-5.67-.29,0-.59,0-.88-.01v5.63c-1.23-.02-2.46-.05-3.68-.08v-14.92c2.06.05,4.12.09,6.18.11,1.19.01,2.21.22,3.05.64.84.41,1.47.98,1.89,1.69.42.72.62,1.51.62,2.39,0,.99-.28,1.88-.85,2.66-.57.78-1.4,1.33-2.51,1.65,1.16,1.98,2.33,3.95,3.49,5.91-1.39,0-2.77,0-4.16,0Zm-4.03-8.25c.76.01,1.52.02,2.28.03.68,0,1.18-.15,1.52-.47.34-.32.51-.78.51-1.38,0-.57-.17-1.01-.51-1.34-.34-.33-.84-.5-1.52-.5-.76,0-1.52-.02-2.28-.03v3.7Z"/>
          <path class="cls-8" d="m156.38,346.27v14.92c-1.23.06-2.45.12-3.68.16v-8.95c-1.13,3.03-2.25,6.05-3.38,9.07-.99.03-1.98.06-2.97.08-1.14-2.96-2.27-5.93-3.41-8.9v8.97c-1.23.02-2.46.04-3.68.05v-14.92c1.45-.01,2.9-.03,4.35-.06,1.41,3.42,2.83,6.83,4.24,10.23,1.4-3.48,2.8-6.97,4.2-10.47,1.44-.06,2.89-.12,4.33-.19Z"/>
          <path class="cls-8" d="m162.71,348.82c0,1.01,0,2.01,0,3.02,1.64-.11,3.28-.22,4.93-.35,0,.94,0,1.87,0,2.81-1.64.13-3.28.24-4.93.35,0,1.09,0,2.18,0,3.27,1.86-.12,3.71-.25,5.57-.4v2.91c-3.08.24-6.17.45-9.25.62v-14.92c3.09-.17,6.17-.38,9.25-.62v2.91c-1.86.14-3.71.28-5.57.4Z"/>
          <path class="cls-8" d="m174.34,357.11c1.6-.15,3.21-.31,4.81-.47v2.81c-2.83.29-5.65.56-8.48.8v-14.92c1.23-.1,2.45-.21,3.67-.32v12.12Z"/>
          <path class="cls-8" d="m184.14,358.06c-1.18-.51-2.12-1.32-2.81-2.41-.69-1.09-1.04-2.37-1.04-3.83,0-1.46.35-2.81,1.04-4.05.69-1.24,1.63-2.25,2.81-3.04,1.18-.79,2.48-1.27,3.89-1.45,1.41-.18,2.71-.02,3.89.47,1.18.49,2.1,1.27,2.78,2.33.68,1.07,1.02,2.33,1.02,3.79,0,1.46-.34,2.82-1.03,4.09-.68,1.27-1.61,2.31-2.78,3.12-1.17.81-2.46,1.31-3.88,1.48-1.41.18-2.71,0-3.89-.51Zm6.77-4.37c.72-.89,1.08-1.99,1.08-3.29,0-1.32-.36-2.32-1.08-3.01-.72-.69-1.68-.96-2.88-.81-1.21.15-2.18.66-2.9,1.52-.72.86-1.08,1.96-1.08,3.29,0,1.32.36,2.33,1.08,3.03.72.7,1.69.98,2.9.82,1.2-.15,2.16-.67,2.88-1.56Z"/>
          <path class="cls-8" d="m211.14,354.84c-1.21.22-2.43.44-3.64.65-2.03-2.71-4.07-5.44-6.1-8.19v9.2c-1.22.19-2.43.38-3.65.56v-14.92c1.22-.18,2.44-.37,3.65-.56,2.04,2.76,4.07,5.5,6.1,8.23,0-3.08,0-6.16,0-9.25,1.21-.21,2.43-.43,3.64-.65v14.92Z"/>
        </g>
      </g>
    </g>
    <path class="cls-12" d="m218.24,403.21c-90.46,31.39-166.87,0-166.87,0,5.46-6.41,1.35-11.48,1.35-11.48,0,0,71.76,28.92,164.17,0,0,0-4.61,5.55,1,11.12l.35.36Z"/>
    <g class="cls-21">
      <g>
        <path class="cls-3" d="m222.17,385.91c-40.56,43.35-81.33,82.76-121.72,118.23"/>
        <path class="cls-3" d="m229.24,392.45c-40.54,43.8-81.31,83.67-121.75,119.6"/>
        <path class="cls-3" d="m236.31,398.92c-40.51,44.26-81.28,84.59-121.76,120.98"/>
        <path class="cls-3" d="m243.37,405.3c-40.47,44.72-81.25,85.5-121.76,122.35"/>
        <path class="cls-3" d="m250.42,411.61c-40.44,45.18-81.21,86.42-121.75,123.72"/>
        <path class="cls-3" d="m257.47,417.83c-40.4,45.63-81.16,87.33-121.72,125.09"/>
      </g>
    </g>
    <path class="cls-7" d="m82.19,57.38v7.46s48.7-14.4,105.22,0v-7.46s-46.92-16.01-105.22,0Z"/>
  </g>
  <g id="Layer_3" data-name="Layer 3">
    <path class="cls-1" d="m142.3,499.28c76.71-5.32,77.06-40.05,77.06-40.05l-1.12-56.02c-6.01-5.88-1.35-11.48-1.35-11.48l2.25-165.96c-5.53-10.24,3.08-14.79,3.08-14.79,2.39-86.96-43.5-128.1-43.5-128.1l2.4-9.9,6.3-2.4v-13.2l-1.8-2.7,1.8-2.1-.16-3.88-1.04-3.92-2.47-26.15c-6.01-14.04-41.44-14.08-41.44-14.08h-15s-35.43.04-41.44,14.08l-2.47,26.15-1.04,3.92-.16,3.88,1.8,2.1-1.8,2.7v13.2s6.3,2.4,6.3,2.4l2.4,9.9s-45.89,41.14-43.5,128.1c0,0,8.61,4.55,3.08,14.79l2.25,165.96s4.66,5.59-1.35,11.47l-1.13,56.02s.35,34.73,77.06,40.05h15Z"/>
    <path class="cls-4" d="m82.19,52.58c34.44-9.42,70.78-9.42,105.22,0"/>
    <path class="cls-4" d="m82.19,57.38c34.44-9.42,70.78-9.42,105.22,0"/>
    <path class="cls-4" d="m88.49,72.98c30.55-6.33,62.07-6.33,92.62,0"/>
    <path class="cls-4" d="m82.19,70.58c34.44-9.42,70.78-9.42,105.22,0"/>
    <path class="cls-4" d="m82.19,64.84c34.58-8.3,70.64-8.3,105.22,0"/>
    <path class="cls-4" d="m78.21,97.99c37.43-5.33,75.43-5.33,112.86,0"/>
    <path class="cls-4" d="m52.71,391.73c53.35,17.34,110.82,17.34,164.17,0"/>
    <path class="cls-4" d="m51.36,403.21c54.08,18.52,112.79,18.52,166.87,0"/>
    <path class="cls-4" d="m47.39,210.98c58.24,2.75,116.58,2.75,174.82,0"/>
    <path class="cls-4" d="m50.47,225.77c56.14,4.42,112.53,4.42,168.67,0"/>
    <g>
      <path class="cls-4" d="m143,12.25c.11,7.29.22,14.58.33,21.88"/>
      <path class="cls-4" d="m139.71,12.12c.07,7.29.13,14.58.2,21.87"/>
      <path class="cls-4" d="m136.44,12.05c.02,7.29.04,14.58.07,21.87"/>
      <path class="cls-4" d="m133.15,12.05c-.02,7.29-.04,14.58-.07,21.87"/>
      <path class="cls-4" d="m156.09,13.48c.29,7.31.58,14.62.87,21.93"/>
      <path class="cls-4" d="m152.82,13.07c.25,7.3.49,14.61.74,21.91"/>
      <path class="cls-4" d="m149.57,12.73c.2,7.3.4,14.6.6,21.9"/>
      <path class="cls-4" d="m146.29,12.46c.16,7.29.31,14.59.47,21.88"/>
      <path class="cls-4" d="m113.35,13.5c-.29,7.31-.58,14.62-.88,21.93"/>
      <path class="cls-4" d="m110.11,13.97c-.34,7.32-.67,14.63-1.01,21.95"/>
      <path class="cls-4" d="m106.86,14.52c-.38,7.32-.76,14.65-1.14,21.97"/>
      <path class="cls-4" d="m129.74,12.12c-.07,7.29-.14,14.58-.21,21.87"/>
      <path class="cls-4" d="m126.45,12.26c-.11,7.29-.23,14.58-.34,21.88"/>
      <path class="cls-4" d="m123.19,12.47c-.16,7.3-.32,14.59-.47,21.89"/>
      <path class="cls-4" d="m119.9,12.74c-.2,7.3-.41,14.6-.61,21.9"/>
      <path class="cls-4" d="m116.63,13.09c-.25,7.3-.49,14.61-.74,21.91"/>
      <path class="cls-4" d="m165.87,15.11c.42,7.33.85,14.66,1.27,21.99"/>
      <path class="cls-4" d="m162.64,14.5c.38,7.32.76,14.65,1.14,21.97"/>
      <path class="cls-4" d="m159.38,13.96c.33,7.32.67,14.63,1,21.95"/>
      <path class="cls-4" d="m178.72,18.24c.6,7.37,1.2,14.75,1.79,22.12"/>
      <path class="cls-4" d="m175.54,17.36c.55,7.36,1.11,14.72,1.66,22.08"/>
      <path class="cls-4" d="m172.33,16.54c.51,7.35,1.02,14.7,1.53,22.05"/>
      <path class="cls-4" d="m169.1,15.79c.47,7.34.93,14.68,1.4,22.02"/>
      <path class="cls-4" d="m94.05,17.36c-.55,7.36-1.11,14.72-1.66,22.08"/>
      <path class="cls-4" d="m90.87,18.24c-.6,7.37-1.2,14.75-1.79,22.12"/>
      <path class="cls-4" d="m103.73,15.11c-.42,7.33-.85,14.66-1.27,21.99"/>
      <path class="cls-4" d="m100.49,15.79c-.47,7.34-.93,14.68-1.4,22.02"/>
      <path class="cls-4" d="m97.27,16.54c-.51,7.35-1.02,14.7-1.53,22.05"/>
    </g>
  </g>
  <g id="Layer_5" data-name="Layer 5">
    <g>
      <g class="cls-19">
        <g class="cls-19">
          <path class="cls-15" d="m128.63,187.46c-.11.48-.22.96-.34,1.44-1.27,0-2.54.02-3.81.03-.76,3.28-1.53,6.56-2.3,9.85-.79,0-1.58.02-2.37.03.78-3.28,1.55-6.57,2.32-9.85-1.28.01-2.55.03-3.83.05.12-.48.23-.97.35-1.45,3.32-.05,6.65-.08,9.97-.1Z"/>
          <path class="cls-15" d="m133.01,188.87c-.26,1.14-.51,2.28-.77,3.42,1.65,0,3.3,0,4.96,0-.1.48-.2.95-.31,1.43-1.65,0-3.31,0-4.96,0-.27,1.18-.54,2.37-.82,3.55,1.87,0,3.73,0,5.6,0-.11.48-.22.96-.33,1.44-2.66,0-5.31,0-7.97.02.87-3.77,1.73-7.53,2.59-11.29,2.63,0,5.26,0,7.9,0-.11.48-.22.96-.32,1.44-1.85,0-3.71,0-5.56,0Z"/>
          <path class="cls-15" d="m148.47,196.49c-2.01-.02-4.02-.04-6.03-.06-.51.76-1.03,1.53-1.54,2.29-.82,0-1.65,0-2.47-.01,2.56-3.75,5.1-7.5,7.62-11.23.9,0,1.81.02,2.71.03.91,3.77,1.82,7.55,2.74,11.32-.83-.01-1.66-.02-2.49-.03-.18-.77-.36-1.54-.54-2.31Zm-.33-1.45c-.41-1.77-.82-3.54-1.23-5.32-1.16,1.75-2.33,3.51-3.51,5.27,1.58.01,3.16.03,4.74.05Z"/>
        </g>
      </g>
      <path class="cls-15" d="m141.84,144.79c.58.59,1.16,1.18,1.74,1.76-12.02,12.13-24.4,24.46-37.14,37.01-.58-.57-1.16-1.14-1.74-1.7,12.74-12.57,25.12-24.92,37.14-37.07Z"/>
      <path class="cls-7" d="m150.54,124.87c.3.3.59.61.89.91-11.73,12.04-23.82,24.28-36.27,36.73-.3-.29-.59-.59-.89-.88,12.45-12.46,24.55-24.71,36.27-36.76Z"/>
      <g>
        <path class="cls-7" d="m68.32,136.72c2.09-.13,4.17-.26,6.26-.38-.31,6.3-.63,12.6-.94,18.9,2.23-.13,4.47-.25,6.7-.36.28-6.3.56-12.6.84-18.89,2.11-.11,4.22-.21,6.33-.3.07-1.79.14-3.58.21-5.37-6.37.28-12.74.63-19.1,1.03-.1,1.79-.2,3.58-.3,5.38Z"/>
        <path class="cls-7" d="m90.16,130.21c2.19-.09,4.38-.18,6.57-.26-.26,8.08-.51,16.17-.77,24.25-2.23.08-4.47.17-6.7.26.3-8.09.6-16.17.9-24.26Z"/>
        <path class="cls-7" d="m120.18,129.37c-2,5.28-4.02,10.56-6.07,15.85-1.92-5.21-3.81-10.42-5.67-15.62-2.65.07-5.3.14-7.95.23-.23,8.08-.46,16.17-.69,24.25,2.24-.07,4.47-.14,6.71-.2.1-4.49.21-8.99.31-13.48,1.41,4.45,2.83,8.91,4.27,13.37,1.87-.04,3.74-.08,5.61-.11,1.58-4.48,3.15-8.96,4.7-13.44-.05,4.46-.1,8.92-.15,13.37.51,0,1.02-.01,1.54-.02,1.74-1.75,3.48-3.5,5.2-5.24.04-6.35.07-12.7.11-19.05-2.64.02-5.28.04-7.92.08Z"/>
        <path class="cls-7" d="m131.86,129.27c-.01,5.06-.02,10.13-.04,15.19,2.23-2.25,4.44-4.5,6.64-6.73,0-1.02,0-2.04,0-3.06,1,0,1.99,0,2.99.01,1.75-1.79,3.5-3.57,5.24-5.35-4.94-.06-9.88-.08-14.83-.06Z"/>
      </g>
      <g>
        <path class="cls-8" d="m117.06,174.37c-.08-.35-.17-.69-.25-1.04-.97.96-1.94,1.92-2.91,2.88.24.89.48,1.78.72,2.67,1.49-.04,2.98-.07,4.47-.11,1.15-3.71,2.29-7.41,3.42-11.11-1.64,1.63-3.28,3.26-4.93,4.89-.18.6-.35,1.21-.53,1.81Z"/>
        <path class="cls-8" d="m131.99,174.13c-1.09-4.23-2.18-8.45-3.25-12.68-1.01,1.01-2.02,2.02-3.04,3.04,1.28,4.73,2.58,9.46,3.9,14.19,1.5,0,3.01-.01,4.51-.01,2.4-7.97,4.76-15.93,7.07-23.88-1.39,0-2.79-.01-4.18-.02-1.64,6.45-3.32,12.9-5.01,19.36Z"/>
        <path class="cls-8" d="m147.36,154.8c-2.76,7.94-5.58,15.9-8.45,23.86,1.39,0,2.77.01,4.16.02.57-1.62,1.14-3.25,1.71-4.87,3.37.03,6.75.08,10.12.14.61,1.64,1.21,3.28,1.83,4.92,1.4.03,2.79.06,4.19.09-3.07-8.05-6.08-16.08-9.03-24.1-1.51-.02-3.02-.04-4.52-.06,0,0,0,0,0,0Zm-1.5,15.83c1.29-3.69,2.56-7.37,3.82-11.06,1.34,3.72,2.69,7.44,4.05,11.17-2.63-.05-5.25-.08-7.88-.11Z"/>
        <path class="cls-8" d="m179.83,167.1c.86-1.24,1.26-2.63,1.2-4.19-.05-1.33-.41-2.55-1.08-3.65-.67-1.11-1.65-2-2.94-2.7-1.29-.69-2.85-1.07-4.67-1.13-2.74-.1-5.48-.18-8.22-.26.19,7.97.38,15.94.57,23.9,1.33.04,2.66.07,3.98.12-.09-3.19-.17-6.37-.26-9.56,1.01.03,2.01.06,3.02.1,1.94,3.25,3.9,6.5,5.87,9.76,1.58.06,3.16.13,4.75.19-2.13-3.39-4.24-6.77-6.33-10.15,1.88-.39,3.25-1.2,4.11-2.43,0,0,0,0,0,0Zm-11.5-.61c-.07-2.67-.14-5.34-.22-8.01,1.44.04,2.88.09,4.32.14,1.49.05,2.61.44,3.37,1.17.76.73,1.16,1.71,1.2,2.95.04,1.24-.3,2.21-1.02,2.91-.72.71-1.82,1.03-3.3.98-1.45-.05-2.9-.1-4.35-.14t0,0Z"/>
        <path class="cls-8" d="m201.64,160.34c-.69-1.12-1.68-2.03-2.98-2.74-1.3-.71-2.86-1.11-4.69-1.21-2.74-.15-5.48-.29-8.22-.42.33,7.97.66,15.95.99,23.92,1.33.06,2.65.13,3.98.2-.14-3.24-.29-6.47-.43-9.71,1.45.07,2.91.15,4.36.23,1.98.11,3.6-.14,4.83-.73,1.23-.6,2.11-1.42,2.62-2.47.51-1.04.74-2.17.67-3.39-.07-1.33-.46-2.56-1.15-3.68,0,0,0,0,0,0Zm-3.84,6.24c-.7.64-1.8.91-3.3.82-1.45-.08-2.9-.16-4.35-.23-.12-2.6-.23-5.21-.35-7.81,1.44.07,2.88.15,4.32.23,2.95.16,4.49,1.56,4.63,4.18.06,1.24-.25,2.17-.96,2.81Z"/>
      </g>
    </g>
  </g>
</svg>