<?xml version="1.0" encoding="UTF-8"?>
<svg xmlns="http://www.w3.org/2000/svg" xmlns:xlink="http://www.w3.org/1999/xlink" viewBox="0 0 267.13 539.8">
  <defs>
    <style>
      .cls-1, .cls-2, .cls-3, .cls-4 {
        fill: none;
      }

      .cls-1, .cls-3, .cls-4 {
        stroke-miterlimit: 10;
      }

      .cls-1, .cls-4 {
        stroke: #231f20;
      }

      .cls-5 {
        fill: #f6946e;
      }

      .cls-5, .cls-6, .cls-7, .cls-8, .cls-9, .cls-10, .cls-2, .cls-11, .cls-12, .cls-13, .cls-14, .cls-15, .cls-16, .cls-17 {
        stroke-width: 0px;
      }

      .cls-6 {
        fill: #818285;
        opacity: .19;
      }

      .cls-7, .cls-18 {
        fill: #29aae1;
      }

      .cls-19 {
        clip-path: url(#clippath-2);
      }

      .cls-8 {
        fill: #010101;
      }

      .cls-20 {
        isolation: isolate;
      }

      .cls-9 {
        fill: #f2f2f2;
      }

      .cls-9, .cls-10, .cls-12 {
        opacity: .81;
      }

      .cls-10 {
        fill: #f68d5f;
      }

      .cls-21 {
        clip-path: url(#clippath-1);
      }

      .cls-11 {
        fill: #f15845;
      }

      .cls-3 {
        stroke: #939598;
      }

      .cls-12 {
        fill: #f49e80;
      }

      .cls-13 {
        fill: #fff;
      }

      .cls-14 {
        fill: #ededed;
      }

      .cls-22 {
        clip-path: url(#clippath-3);
      }

      .cls-15 {
        fill: #e31d6d;
      }

      .cls-16 {
        fill: #e41d6d;
      }

      .cls-17 {
        fill: #2aa7df;
      }

      .cls-4 {
        stroke-width: .75px;
      }
    </style>
    <clipPath id="clippath-1">
      <path class="cls-2" d="m222.21,210.98c-56.79,4.17-174.82,0-174.82,0-3.75-64.24,30.82-112.99,30.82-112.99,0,0,48.93-9.07,112.86,0,0,0,31.23,33.22,31.23,110.92l-.09,2.07Z"/>
    </clipPath>
    <clipPath id="clippath-2">
      <path class="cls-2" d="m219.13,225.77c-92.19,7.26-168.67,0-168.67,0l2.25,165.96s74.76,30.12,164.17,0l2.25-165.96Z"/>
    </clipPath>
    <clipPath id="clippath-3">
      <path class="cls-2" d="m219.36,459.23c-9.39,41.14-84.56,40.05-84.56,40.05-84.05-2.51-84.56-40.05-84.56-40.05l1.13-56.02s73.79,30.79,166.87,0l1.12,56.02Z"/>
    </clipPath>
  </defs>
  <g id="Layer_4" data-name="Layer 4">
    <path class="cls-18" d="m187.41,52.58l-.16-3.88-1.04-3.92-2.47-26.15c-6.01-14.04-41.44-14.08-41.44-14.08h-15s-35.43.04-41.44,14.08l-2.47,26.15-1.04,3.92-.16,3.88s46.04-15.93,105.22,0Z"/>
    <path class="cls-14" d="m187.41,52.58c-57.43-16.08-105.22,0-105.22,0l1.8,2.1-1.8,2.7s51.96-15.9,105.22,0l-1.8-2.7,1.8-2.1Z"/>
    <path class="cls-2" d="m187.41,64.84c-57.99-14.4-105.22,0-105.22,0v5.74s49.71-16.76,105.22,0v-5.74Z"/>
    <path class="cls-4" d="m187.41,64.84c-60.69-14.62-105.22,0-105.22,0v5.74s43.41-16.31,105.22,0v-5.74Z"/>
    <path class="cls-12" d="m187.41,70.58c-57.09-16.53-105.22,0-105.22,0l6.3,2.4s43.64-11.43,92.62,0l6.3-2.4Z"/>
    <path class="cls-10" d="m181.11,72.98c-48.69-10.98-92.62,0-92.62,0l2.4,9.9s-3.77,3.04-12.68,15.11c0,0,52.98-9.07,112.86,0,0,0-7.8-11.85-12.36-15.11l2.4-9.9Z"/>
    <path class="cls-13" d="m222.21,210.98c-56.79,4.17-174.82,0-174.82,0-3.75-64.24,30.82-112.99,30.82-112.99,0,0,48.93-9.07,112.86,0,0,0,31.23,33.22,31.23,110.92l-.09,2.07Z"/>
    <g class="cls-21">
      <g>
        <path class="cls-3" d="m126.51,57.78C84.47,97.23,42.26,140.27.35,186.91"/>
        <path class="cls-3" d="m133.58,65.32C91.56,104.36,49.35,147,7.41,193.24"/>
        <path class="cls-3" d="m140.65,72.93c-42,38.64-84.21,80.88-126.18,126.72"/>
        <path class="cls-3" d="m147.71,80.6c-41.97,38.24-84.19,80.07-126.18,125.51"/>
        <path class="cls-3" d="m154.77,88.35c-41.94,37.83-84.16,79.27-126.18,124.29"/>
        <path class="cls-3" d="m161.82,96.16c-41.91,37.43-84.12,78.46-126.16,123.08"/>
      </g>
    </g>
    <path class="cls-10" d="m219.13,225.77c-82.29,7.03-168.67,0-168.67,0,5.09-10.29-3.08-14.79-3.08-14.79,0,0,100.34,3.94,174.82,0,0,0-8.43,4.27-3.37,14.23l.29.56Z"/>
    <path class="cls-13" d="m219.13,225.77c-92.19,7.26-168.67,0-168.67,0l2.25,165.96s74.76,30.12,164.17,0l2.25-165.96Z"/>
    <g class="cls-19">
      <g>
        <g id="Pattern_2" data-name="Pattern 2">
          <path id="Polygon_3" data-name="Polygon 3" class="cls-11" d="m85.28,268.52c12.9-4.83,27.96,6.39,26.21,20.52-.98,7.9-1.95,15.8-2.93,23.69-1.65,13.41-17.23,19.1-28.4,9.71-6.23-5.18-12.44-10.49-18.63-15.96-11.1-9.93-9.91-26.44,2.19-30.32,7.16-2.36,14.36-4.9,21.56-7.65Z"/>
          <path id="Rectangle_4" data-name="Rectangle 4" class="cls-5" d="m56.55,296.33c20.39-9.27,41.01-20.11,61.68-32.52,3.39-2.03,7.92-.97,10.12,2.41,14.84,22.77,29.69,44.74,44.49,65.89,2.19,3.13,1.24,7.7-2.14,10.18-20.62,15.07-41.35,28.57-61.99,40.5-3.38,1.96-7.91.65-10.1-2.89-14.8-23.86-29.54-48.52-44.17-73.99-2.17-3.78-1.22-8.05,2.12-9.57Z"/>
          <path id="Rectangle_5" data-name="Rectangle 5" class="cls-5" d="m164.43,424.65c-14.29-17.71-28.62-36.17-42.94-55.38-2.67-3.59-1.96-8.52,1.58-11.05,19.48-13.92,38.99-29.24,58.38-45.94,3.53-3.03,8.53-2.99,11.18.12,14.21,16.71,28.34,32.68,42.33,47.88,2.61,2.83,1.92,7.98-1.55,11.48-19.05,19.22-38.35,37.04-57.76,53.47-3.53,3-8.55,2.72-11.22-.59Z"/>
          <path id="Polygon_2" data-name="Polygon 2" class="cls-11" d="m136.82,279.48c.74-19.43,23.28-30.63,39.27-20.99,8.16,5.02,16.3,9.8,24.41,14.33,14.99,8.17,13.01,31.52-3.65,42.38-8.49,5.42-17.02,10.58-25.56,15.46-16.79,9.73-36.31-2.77-35.61-21.27.38-9.97.75-19.94,1.13-29.91Z"/>
          <path id="Polygon_4" data-name="Polygon 4" class="cls-11" d="m105.27,370.19c4.49,7.15-.58,15.91-8.83,15.02-17.33-1.9-34.59-4.91-51.66-9.03-7.67-1.86-12.41-11.43-8.71-17.23,7.77-12.21,15.58-24.64,23.42-37.31,3.74-6.01,13.35-4.73,17.57,2.3,9.37,15.75,18.78,31.16,28.21,46.25Z"/>
        </g>
        <path class="cls-6" d="m229.05,393.08c-61.56,14.6-125.69,14.69-187.28.29v-192.41c61.6,14.41,125.72,14.31,187.28-.29v192.41Z"/>
        <g>
          <path class="cls-15" d="m144.08,376.35c.3.29.6.58.9.87-6.28,6.35-12.57,12.56-18.85,18.63-.3-.3-.6-.6-.9-.91,6.28-6.05,12.57-12.25,18.85-18.59Z"/>
          <path class="cls-17" d="m137.79,378.67c.15.15.31.3.46.45-6.28,6.25-12.57,12.36-18.85,18.32-.15-.16-.31-.32-.46-.47,6.28-5.95,12.56-12.05,18.85-18.3Z"/>
          <g>
            <path class="cls-17" d="m94.65,381.71c1.09.11,2.18.21,3.27.31v9.57c1.15.1,2.3.2,3.45.3v-9.57c1.1.09,2.21.18,3.31.26v-2.72c-3.35-.25-6.7-.54-10.04-.87v2.72Z"/>
            <path class="cls-17" d="m105.98,379.95c1.15.08,2.3.16,3.46.23v12.29c-1.15-.07-2.3-.15-3.46-.23v-12.29Z"/>
            <path class="cls-17" d="m121.78,380.76c-1.02,2.63-2.04,5.25-3.05,7.87-1.04-2.7-2.08-5.41-3.13-8.12-1.39-.07-2.79-.14-4.18-.22v12.29c1.15.07,2.31.13,3.46.18v-6.83c.79,2.31,1.58,4.63,2.36,6.94.97.04,1.93.08,2.9.11.78-2.23,1.57-4.46,2.35-6.7v6.78c.26,0,.53.02.79.02.89-.85,1.78-1.71,2.67-2.57v-9.65c-1.39-.03-2.78-.07-4.17-.11Z"/>
            <path class="cls-17" d="m127.92,380.91v7.7c1.15-1.12,2.31-2.24,3.46-3.37v-1.55c.52,0,1.05,0,1.57.01.92-.91,1.85-1.82,2.77-2.73-2.6,0-5.2-.01-7.81-.06Z"/>
          </g>
          <g>
            <path class="cls-8" d="m131.12,391.61c-.05-.18-.09-.35-.14-.53-.48.47-.97.95-1.45,1.42.13.45.26.91.39,1.36.75,0,1.51,0,2.26,0,.56-1.87,1.12-3.73,1.68-5.6-.83.81-1.65,1.62-2.48,2.43-.09.3-.17.61-.26.91Z"/>
            <path class="cls-8" d="m138.7,391.56c-.56-2.14-1.12-4.28-1.68-6.42-.52.51-1.03,1.02-1.55,1.53.67,2.4,1.35,4.8,2.02,7.2.76,0,1.52-.01,2.28-.02,1.21-4.05,2.43-8.11,3.64-12.17-.72.02-1.44.03-2.16.04-.85,3.28-1.71,6.56-2.56,9.84Z"/>
            <path class="cls-8" d="m146.6,381.58c-1.47,4.08-2.93,8.16-4.4,12.23.7-.01,1.4-.03,2.1-.04.29-.83.59-1.66.88-2.5,1.71-.04,3.43-.1,5.14-.16.29.81.59,1.63.88,2.44.71-.03,1.41-.06,2.12-.09-1.47-3.98-2.93-7.96-4.4-11.95-.78.03-1.55.05-2.33.07,0,0,0,0,0,0Zm-.85,8.06c.67-1.89,1.34-3.79,2.01-5.69.67,1.85,1.33,3.71,2,5.56-1.34.05-2.67.09-4.01.13Z"/>
            <path class="cls-8" d="m163.12,386.56c.46-.68.7-1.41.7-2.2,0-.67-.16-1.27-.49-1.8-.32-.52-.81-.93-1.46-1.21-.65-.28-1.45-.39-2.39-.34-1.41.09-2.82.16-4.24.23v12.11c.67-.03,1.34-.07,2.01-.11v-4.84c.51-.03,1.02-.06,1.54-.09.94,1.56,1.88,3.12,2.82,4.67.8-.05,1.6-.11,2.4-.16-1.01-1.6-2.02-3.2-3.03-4.81.96-.29,1.68-.78,2.14-1.46,0,0,0,0,0,0Zm-5.86.27v-4.06c.74-.04,1.48-.08,2.22-.13.77-.05,1.34.09,1.71.43.38.33.56.81.56,1.43,0,.63-.19,1.14-.57,1.54-.38.4-.95.62-1.7.66-.74.04-1.48.09-2.22.13h0Z"/>
            <path class="cls-8" d="m174.46,381.61c-.32-.51-.81-.9-1.46-1.16-.65-.26-1.45-.35-2.39-.26-1.41.12-2.82.24-4.23.35v12.11c.67-.05,1.34-.11,2.01-.16v-4.91c.74-.06,1.48-.12,2.22-.19,1.01-.09,1.84-.34,2.48-.74.64-.4,1.12-.89,1.41-1.47.29-.58.44-1.17.44-1.79,0-.67-.16-1.27-.49-1.78,0,0,0,0,0,0Zm-2.14,3.49c-.38.38-.94.6-1.71.67-.74.07-1.48.13-2.22.19v-3.96c.74-.06,1.48-.12,2.22-.19,1.51-.13,2.27.45,2.27,1.78,0,.63-.19,1.13-.56,1.51Z"/>
          </g>
        </g>
        <g>
          <path class="cls-15" d="m237.21,363.41c.29.22.59.44.88.66-6.13,7.8-12.28,15.45-18.46,22.96-.29-.23-.59-.47-.89-.7,6.18-7.5,12.34-15.14,18.47-22.92Z"/>
          <path class="cls-17" d="m231.07,367.18c.15.12.3.23.45.35-6.15,7.7-12.32,15.25-18.52,22.65-.15-.12-.3-.24-.46-.37,6.2-7.4,12.37-14.94,18.52-22.63Z"/>
          <g>
            <path class="cls-17" d="m188.45,380.15c1.09-.14,2.18-.29,3.26-.45,0,3.19,0,6.38,0,9.57,1.15-.16,2.29-.33,3.44-.5v-9.57c1.1-.16,2.19-.33,3.29-.51v-2.72c-3.33.52-6.66,1.01-9.99,1.45,0,.91,0,1.81,0,2.72Z"/>
            <path class="cls-17" d="m199.72,375.78c1.14-.18,2.29-.37,3.43-.57v12.29c-1.14.19-2.28.38-3.43.57v-12.29Z"/>
            <path class="cls-17" d="m215.34,372.95c-1,2.86-2.01,5.72-3.01,8.58-1.03-2.46-2.06-4.93-3.09-7.4-1.38.26-2.76.5-4.14.74v12.29c1.14-.2,2.28-.4,3.42-.61,0-2.28,0-4.55,0-6.83.78,2.13,1.56,4.26,2.34,6.39.95-.18,1.91-.36,2.86-.55.77-2.41,1.54-4.82,2.31-7.24v6.78c.26-.05.52-.11.78-.16.88-1.06,1.75-2.12,2.63-3.18v-9.65c-1.37.29-2.74.57-4.11.85Z"/>
            <path class="cls-17" d="m221.39,371.69v7.7c1.13-1.38,2.27-2.77,3.4-4.17,0-.52,0-1.03,0-1.55.51-.12,1.03-.23,1.54-.35.91-1.12,1.81-2.24,2.72-3.37-2.55.6-5.1,1.18-7.66,1.74Z"/>
          </g>
          <g>
            <path class="cls-8" d="m224.53,381.65c-.04-.17-.09-.33-.13-.5-.48.58-.95,1.17-1.43,1.75.13.42.25.85.38,1.27.74-.17,1.48-.34,2.22-.52.55-1.99,1.1-3.99,1.64-5.99-.81,1-1.62,2.01-2.43,3-.08.32-.17.65-.25.97Z"/>
            <path class="cls-8" d="m231.95,379.86c-.55-2.01-1.1-4.02-1.64-6.03-.5.63-1.01,1.26-1.52,1.89.66,2.24,1.32,4.49,1.98,6.73.74-.18,1.49-.36,2.23-.55,1.19-4.33,2.37-8.67,3.56-13.01-.7.18-1.4.36-2.11.54-.83,3.48-1.67,6.96-2.5,10.43Z"/>
            <path class="cls-8" d="m239.67,368.06c-1.43,4.42-2.86,8.84-4.29,13.24.68-.17,1.37-.35,2.05-.53.29-.9.57-1.8.86-2.7,1.67-.44,3.34-.89,5.01-1.35.29.75.57,1.49.86,2.24.69-.19,1.37-.38,2.06-.58-1.42-3.64-2.85-7.29-4.28-10.94-.76.21-1.51.41-2.27.61,0,0,0,0,0,0Zm-.83,8.25c.65-2.05,1.31-4.1,1.96-6.15.65,1.7,1.3,3.4,1.94,5.1-1.3.36-2.6.71-3.91,1.05Z"/>
            <path class="cls-8" d="m255.71,369.24c.45-.78.67-1.57.67-2.36,0-.67-.16-1.23-.47-1.68-.31-.45-.78-.74-1.42-.87-.63-.13-1.4-.06-2.32.21-1.37.41-2.74.81-4.11,1.21v12.11c.65-.19,1.3-.38,1.95-.57v-4.84c.5-.15.99-.29,1.49-.44.91,1.34,1.82,2.68,2.74,4.02.77-.24,1.55-.48,2.32-.72-.98-1.37-1.96-2.74-2.94-4.11.93-.52,1.62-1.17,2.07-1.95,0,0,0,0,0,0Zm-5.68,1.62v-4.06c.72-.21,1.44-.42,2.16-.64.74-.22,1.29-.21,1.66.03.36.24.55.68.55,1.3,0,.63-.18,1.18-.56,1.67-.37.48-.92.84-1.65,1.06-.72.22-1.44.43-2.16.64h0Z"/>
            <path class="cls-8" d="m266.66,361.67c-.31-.44-.78-.71-1.41-.82-.63-.11-1.39-.01-2.3.29-1.36.45-2.72.89-4.08,1.33v12.11c.65-.21,1.29-.41,1.94-.62v-4.91c.71-.23,1.43-.47,2.14-.7.97-.32,1.77-.76,2.39-1.31.62-.55,1.07-1.15,1.36-1.79.28-.64.42-1.27.42-1.89,0-.67-.16-1.23-.47-1.67,0,0,0,0,0,0Zm-2.06,3.98c-.36.47-.91.82-1.65,1.06-.71.24-1.43.47-2.14.7v-3.96c.71-.23,1.43-.47,2.14-.7,1.46-.48,2.19-.07,2.19,1.26,0,.63-.18,1.17-.54,1.64Z"/>
          </g>
        </g>
        <g>
          <path class="cls-15" d="m50.58,367.68c.3.36.59.72.89,1.07-6.18,4.91-12.34,9.67-18.48,14.29-.29-.37-.59-.74-.88-1.11,6.13-4.61,12.29-9.36,18.47-14.25Z"/>
          <path class="cls-17" d="m44.4,368.55c.15.19.3.37.45.56-6.17,4.81-12.31,9.47-18.42,13.98-.15-.19-.3-.39-.45-.58,6.11-4.51,12.25-9.16,18.42-13.96Z"/>
          <g>
            <path class="cls-17" d="m2.47,361.66c1.05.36,2.1.71,3.15,1.07v9.57c1.11.37,2.22.73,3.33,1.09v-9.57c1.07.35,2.13.69,3.2,1.02,0-.91,0-1.81,0-2.72-3.24-1.02-6.47-2.08-9.69-3.18v2.72Z"/>
            <path class="cls-17" d="m13.4,362.51c1.11.35,2.23.69,3.35,1.03v12.29c-1.12-.34-2.23-.68-3.35-1.03v-12.29Z"/>
            <path class="cls-17" d="m28.74,366.96c-.99,2.39-1.98,4.78-2.97,7.17-1.01-2.94-2.03-5.89-3.04-8.84-1.36-.39-2.71-.78-4.06-1.18v12.29c1.12.33,2.24.66,3.36.98v-6.83c.77,2.5,1.53,4.99,2.3,7.48.94.26,1.88.52,2.82.78.76-2.05,1.52-4.1,2.29-6.16v6.78c.26.07.51.14.77.21.87-.65,1.74-1.3,2.61-1.95v-9.65c-1.36-.35-2.71-.71-4.07-1.07Z"/>
            <path class="cls-17" d="m34.74,368.52v7.7c1.13-.85,2.26-1.71,3.39-2.57v-1.55c.51.12,1.02.25,1.54.37.91-.7,1.81-1.39,2.72-2.1-2.55-.59-5.1-1.21-7.64-1.85Z"/>
          </g>
          <g>
            <path class="cls-8" d="m37.86,379.96c-.04-.19-.09-.37-.13-.56-.47.36-.95.72-1.42,1.08.13.48.25.97.38,1.45.74.18,1.47.35,2.21.52.55-1.74,1.09-3.48,1.64-5.22-.81.62-1.62,1.24-2.43,1.86-.08.28-.17.57-.25.85Z"/>
            <path class="cls-8" d="m45.29,381.65c-.55-2.27-1.1-4.54-1.65-6.81-.51.39-1.01.79-1.52,1.18.66,2.56,1.32,5.11,1.99,7.66.75.17,1.49.34,2.24.5,1.19-3.77,2.38-7.55,3.58-11.33-.71-.15-1.41-.3-2.12-.46-.84,3.09-1.68,6.17-2.52,9.25Z"/>
            <path class="cls-8" d="m53.06,373.49c-1.44,3.75-2.89,7.49-4.33,11.22.69.15,1.38.3,2.07.44.29-.76.58-1.53.87-2.29,1.69.35,3.37.69,5.06,1.02.29.88.58,1.76.87,2.64.7.13,1.39.27,2.09.4-1.45-4.31-2.89-8.63-4.34-12.96-.77-.15-1.53-.31-2.3-.46,0,0,0,0,0,0Zm-.83,7.86c.66-1.74,1.32-3.48,1.98-5.22.66,2.01,1.31,4.01,1.97,6.02-1.32-.26-2.64-.52-3.95-.8Z"/>
            <path class="cls-8" d="m69.38,382.27c.46-.57.69-1.25.69-2.04,0-.67-.16-1.31-.48-1.91-.32-.6-.8-1.11-1.45-1.54-.65-.43-1.44-.73-2.37-.89-1.4-.24-2.79-.49-4.19-.74v12.11c.66.12,1.33.24,1.99.36,0-1.61,0-3.23,0-4.84.51.09,1.01.18,1.52.27.93,1.78,1.86,3.55,2.8,5.32.79.13,1.59.26,2.38.39-1-1.83-2.01-3.67-3.01-5.51.95-.07,1.66-.4,2.12-.97,0,0,0,0,0,0Zm-5.81-1.08v-4.06c.73.13,1.47.26,2.2.38.76.13,1.32.4,1.7.82.37.42.56.94.56,1.57,0,.63-.19,1.1-.57,1.4-.38.31-.94.4-1.69.27-.73-.13-1.47-.25-2.2-.38t0,0Z"/>
            <path class="cls-8" d="m80.67,379.94c-.32-.59-.81-1.09-1.46-1.49-.65-.41-1.44-.68-2.38-.81-1.4-.2-2.8-.41-4.21-.63,0,4.04,0,8.07,0,12.11.67.1,1.33.2,2,.3v-4.91c.74.11,1.47.22,2.21.32,1,.14,1.83.09,2.47-.17.64-.25,1.11-.64,1.4-1.14.29-.51.44-1.07.44-1.68,0-.67-.16-1.3-.48-1.89,0,0,0,0,0,0Zm-2.13,2.99c-.37.29-.94.38-1.7.27-.74-.11-1.47-.21-2.21-.32v-3.96c.74.11,1.47.22,2.21.32,1.51.22,2.26.98,2.26,2.31,0,.63-.19,1.09-.56,1.38Z"/>
          </g>
        </g>
        <path class="cls-9" d="m229.05,360.67c-61.36,14.55-125.26,14.69-186.67.43v-92.87c61.41,14.26,125.31,14.12,186.67-.43v92.87Z"/>
        <g>
          <g class="cls-20">
            <path class="cls-11" d="m134.24,332.8c-.09.41-.18.82-.28,1.23-1.07,0-2.14,0-3.21-.02-.62,2.78-1.24,5.56-1.86,8.34-.66,0-1.32-.02-1.98-.03.62-2.77,1.24-5.55,1.86-8.33-1.08-.02-2.15-.04-3.23-.06.09-.41.18-.81.28-1.22,2.8.06,5.61.09,8.41.1Z"/>
            <path class="cls-11" d="m137.94,334c-.21.97-.43,1.94-.64,2.91,1.39,0,2.77-.02,4.16-.05-.09.41-.17.81-.26,1.22-1.39.02-2.77.04-4.16.04-.23,1.01-.45,2.02-.68,3.02,1.56,0,3.12-.02,4.68-.04-.09.41-.19.82-.28,1.23-2.22.03-4.44.05-6.66.04.71-3.2,1.42-6.4,2.13-9.6,2.22,0,4.44-.03,6.66-.08-.09.41-.18.82-.28,1.23-1.56.03-3.12.05-4.68.06Z"/>
            <path class="cls-11" d="m150.89,340.11c-1.68.07-3.36.12-5.04.17-.43.66-.87,1.33-1.3,1.99-.69.02-1.38.03-2.06.04,2.15-3.24,4.3-6.5,6.45-9.77.76-.03,1.53-.05,2.29-.09.73,3.17,1.46,6.34,2.18,9.51-.69.03-1.39.06-2.08.09-.14-.65-.29-1.29-.43-1.94Zm-.26-1.22c-.33-1.49-.66-2.98-.99-4.47-.99,1.54-1.99,3.08-2.98,4.61,1.32-.04,2.65-.08,3.97-.13Z"/>
          </g>
          <path class="cls-11" d="m145.59,296.34c.5.48,1.01.97,1.51,1.45-10.55,10.72-21.1,21.04-31.64,30.94-.5-.52-1.01-1.04-1.51-1.56,10.54-9.87,21.09-20.14,31.64-30.83Z"/>
          <path class="cls-5" d="m153.41,279.03c.26.24.52.49.78.73-10.54,10.91-21.1,21.4-31.64,31.49-.26-.26-.52-.53-.78-.79,10.55-10.07,21.1-20.55,31.64-31.43Z"/>
          <g>
            <path class="cls-5" d="m81.02,284.31c1.83.24,3.65.47,5.48.69v16.06c1.93.23,3.86.45,5.79.65v-16.06c1.85.19,3.7.37,5.56.54v-4.57c-5.62-.51-11.23-1.14-16.83-1.88v4.57Z"/>
            <path class="cls-5" d="m100.01,281.81c1.93.17,3.86.32,5.8.45v20.63c-1.93-.14-3.87-.29-5.8-.45,0-6.88,0-13.75,0-20.63Z"/>
            <path class="cls-5" d="m126.52,283.21c-1.71,4.43-3.42,8.86-5.13,13.27-1.75-4.53-3.5-9.06-5.25-13.61-2.34-.11-4.68-.23-7.02-.38v20.63c1.94.12,3.87.23,5.81.32,0-3.82,0-7.64,0-11.47,1.32,3.89,2.65,7.77,3.97,11.64,1.62.06,3.24.12,4.86.16,1.31-3.76,2.63-7.52,3.94-11.29v11.38c.44,0,.89.01,1.33.02,1.5-1.45,2.99-2.91,4.49-4.38v-16.21c-2.33,0-4.67-.03-7-.08Z"/>
            <path class="cls-5" d="m136.84,283.29v12.93c1.94-1.92,3.88-3.86,5.82-5.8v-2.6c.88-.02,1.76-.04,2.63-.06,1.55-1.57,3.1-3.15,4.66-4.74-4.37.16-8.74.25-13.1.28Z"/>
          </g>
          <g>
            <path class="cls-8" d="m124.33,321.42c-.08-.3-.15-.59-.23-.89-.81.78-1.63,1.56-2.44,2.34.22.77.44,1.53.65,2.3,1.26.03,2.53.05,3.79.07.94-3.12,1.88-6.24,2.81-9.37-1.39,1.35-2.78,2.69-4.16,4.03-.14.51-.29,1.02-.43,1.52Z"/>
            <path class="cls-8" d="m137.06,321.46c-.94-3.59-1.88-7.19-2.82-10.79-.87.85-1.73,1.71-2.6,2.55,1.13,4.04,2.27,8.08,3.4,12.11,1.28,0,2.55,0,3.83-.02,2.04-6.8,4.07-13.61,6.11-20.44-1.21.03-2.41.05-3.62.07-1.43,5.51-2.87,11.02-4.3,16.52Z"/>
            <path class="cls-8" d="m150.32,304.67c-2.46,6.88-4.92,13.74-7.39,20.58,1.18-.02,2.35-.05,3.53-.09.49-1.4.99-2.8,1.48-4.2,2.88-.09,5.75-.22,8.62-.37.49,1.36.99,2.72,1.48,4.07,1.19-.07,2.37-.14,3.55-.22-2.46-6.63-4.92-13.27-7.38-19.94-1.3.06-2.61.12-3.91.17h0Zm-1.42,13.54c1.13-3.19,2.25-6.38,3.38-9.58,1.12,3.1,2.23,6.2,3.35,9.29-2.24.11-4.49.21-6.73.29Z"/>
            <path class="cls-8" d="m178.01,312.4c.78-1.17,1.17-2.41,1.17-3.74,0-1.13-.27-2.12-.81-2.98-.54-.86-1.36-1.5-2.45-1.94-1.09-.43-2.43-.58-4.01-.43-2.37.22-4.73.41-7.1.59v20.33c1.13-.08,2.25-.17,3.38-.26,0-2.71,0-5.42,0-8.13.86-.07,1.72-.14,2.57-.22,1.58,2.57,3.15,5.13,4.73,7.69,1.34-.13,2.68-.27,4.02-.42-1.69-2.62-3.39-5.25-5.08-7.9,1.61-.55,2.81-1.41,3.59-2.58,0,0,0,0,0,0Zm-9.83.76v-6.82c1.24-.1,2.48-.21,3.73-.32,1.28-.12,2.24.09,2.87.62.63.53.95,1.33.95,2.38,0,1.05-.32,1.93-.96,2.61-.64.69-1.59,1.09-2.85,1.21-1.24.11-2.48.22-3.73.32h0Z"/>
            <path class="cls-8" d="m196.99,303.21c-.54-.83-1.35-1.44-2.44-1.81-1.09-.38-2.42-.45-3.99-.24-2.36.32-4.71.63-7.07.91v20.33c1.12-.13,2.24-.27,3.36-.42,0-2.75,0-5.5,0-8.25,1.24-.16,2.47-.32,3.71-.49,1.69-.23,3.07-.72,4.15-1.46,1.08-.73,1.86-1.6,2.35-2.59.49-.99.73-2,.73-3.04,0-1.13-.27-2.11-.81-2.95,0,0,0,0,0,0Zm-3.57,6.05c-.63.67-1.58,1.09-2.86,1.27-1.24.17-2.47.34-3.71.49,0-2.21,0-4.43,0-6.64,1.24-.16,2.47-.32,3.71-.49,2.53-.35,3.8.57,3.8,2.8,0,1.05-.31,1.91-.94,2.58Z"/>
          </g>
        </g>
        <g>
          <path class="cls-8" d="m111.82,355.27c-.39.68-1,1.21-1.82,1.59-.82.38-1.83.53-3.04.45-.75-.05-1.49-.1-2.24-.16v5.26c-1.2-.09-2.41-.18-3.61-.28v-14.65c1.95.16,3.9.31,5.85.44,1.18.08,2.18.35,3,.8.82.45,1.43,1.04,1.84,1.78.41.73.61,1.56.61,2.48,0,.85-.2,1.61-.59,2.29Zm-3.59-1.19c.34-.3.51-.74.51-1.32,0-.58-.17-1.05-.51-1.39-.34-.34-.85-.54-1.54-.58-.65-.05-1.31-.09-1.96-.14v3.67c.65.05,1.31.1,1.96.14.69.05,1.2-.08,1.54-.38Z"/>
          <path class="cls-8" d="m117.9,351.38v2.96c1.61.07,3.23.12,4.84.17v2.75c-1.61-.05-3.23-.1-4.84-.17v3.21c1.83.08,3.65.14,5.48.19v2.86c-3.03-.08-6.06-.2-9.09-.36v-14.65c3.03.15,6.06.27,9.09.36v2.86c-1.83-.05-3.65-.11-5.48-.19Z"/>
          <path class="cls-8" d="m134.97,360.94c-1.85,0-3.7-.01-5.54-.04-.3.86-.59,1.72-.89,2.58-1.26-.02-2.52-.04-3.79-.08,1.79-4.84,3.58-9.69,5.37-14.55,1.4.02,2.79.02,4.19.03,1.79,4.89,3.58,9.76,5.37,14.62-1.28.02-2.55.02-3.83.03-.3-.86-.59-1.72-.89-2.59Zm-.93-2.76c-.61-1.79-1.23-3.58-1.84-5.37-.61,1.78-1.21,3.57-1.82,5.35,1.22.01,2.44.02,3.66.02Z"/>
          <path class="cls-8" d="m141.66,352.25c.63-1.14,1.52-2.04,2.65-2.7,1.14-.66,2.42-1.01,3.86-1.06,1.76-.06,3.27.34,4.53,1.2,1.25.86,2.09,2.07,2.52,3.64-1.32.07-2.65.13-3.98.18-.3-.6-.72-1.05-1.26-1.35-.54-.3-1.16-.44-1.85-.42-1.11.04-2.02.44-2.71,1.23-.69.78-1.04,1.81-1.04,3.09,0,1.28.35,2.29,1.04,3.04.69.75,1.59,1.11,2.71,1.07.69-.02,1.31-.2,1.85-.55.54-.34.96-.82,1.26-1.45,1.33-.05,2.65-.11,3.98-.18-.42,1.61-1.26,2.9-2.52,3.86-1.26.97-2.76,1.48-4.53,1.54-1.44.05-2.72-.23-3.86-.84-1.13-.61-2.02-1.47-2.65-2.59-.64-1.12-.95-2.4-.95-3.85,0-1.45.32-2.74.95-3.89Z"/>
          <path class="cls-8" d="m170.27,347.33v14.65c-1.2.1-2.41.2-3.61.3v-6.03c-1.87.15-3.74.28-5.62.4v6.03c-1.2.08-2.41.15-3.61.22v-14.65c1.2-.07,2.41-.14,3.61-.22v5.74c1.87-.12,3.75-.25,5.62-.4v-5.74c1.2-.09,2.41-.19,3.61-.3Z"/>
        </g>
      </g>
    </g>
    <path class="cls-10" d="m218.24,403.21c-90.46,31.39-166.87,0-166.87,0,5.46-6.41,1.35-11.48,1.35-11.48,0,0,71.76,28.92,164.17,0,0,0-4.61,5.55,1,11.12l.35.36Z"/>
    <path class="cls-13" d="m219.36,459.23c-9.39,41.14-84.56,40.05-84.56,40.05-84.05-2.51-84.56-40.05-84.56-40.05l1.13-56.02s73.79,30.79,166.87,0l1.12,56.02Z"/>
    <g class="cls-22">
      <g>
        <path class="cls-3" d="m222.17,385.91c-40.56,43.35-81.33,82.76-121.72,118.23"/>
        <path class="cls-3" d="m229.24,392.45c-40.54,43.8-81.31,83.67-121.75,119.6"/>
        <path class="cls-3" d="m236.31,398.92c-40.51,44.26-81.28,84.59-121.76,120.98"/>
        <path class="cls-3" d="m243.37,405.3c-40.47,44.72-81.25,85.5-121.76,122.35"/>
        <path class="cls-3" d="m250.42,411.61c-40.44,45.18-81.21,86.42-121.75,123.72"/>
        <path class="cls-3" d="m257.47,417.83c-40.4,45.63-81.16,87.33-121.72,125.09"/>
      </g>
    </g>
    <path class="cls-7" d="m82.19,57.38v7.46s48.7-14.4,105.22,0v-7.46s-46.92-16.01-105.22,0Z"/>
  </g>
  <g id="Layer_3" data-name="Layer 3">
    <path class="cls-1" d="m142.3,499.28c76.71-5.32,77.06-40.05,77.06-40.05l-1.12-56.02c-6.01-5.88-1.35-11.48-1.35-11.48l2.25-165.96c-5.53-10.24,3.08-14.79,3.08-14.79,2.39-86.96-43.5-128.1-43.5-128.1l2.4-9.9,6.3-2.4v-13.2l-1.8-2.7,1.8-2.1-.16-3.88-1.04-3.92-2.47-26.15c-6.01-14.04-41.44-14.08-41.44-14.08h-15s-35.43.04-41.44,14.08l-2.47,26.15-1.04,3.92-.16,3.88,1.8,2.1-1.8,2.7v13.2s6.3,2.4,6.3,2.4l2.4,9.9s-45.89,41.14-43.5,128.1c0,0,8.61,4.55,3.08,14.79l2.25,165.96s4.66,5.59-1.35,11.47l-1.13,56.02s.35,34.73,77.06,40.05h15Z"/>
    <path class="cls-4" d="m82.19,52.58c34.44-9.42,70.78-9.42,105.22,0"/>
    <path class="cls-4" d="m82.19,57.38c34.44-9.42,70.78-9.42,105.22,0"/>
    <path class="cls-4" d="m88.49,72.98c30.55-6.33,62.07-6.33,92.62,0"/>
    <path class="cls-4" d="m82.19,70.58c34.44-9.42,70.78-9.42,105.22,0"/>
    <path class="cls-4" d="m82.19,64.84c34.58-8.3,70.64-8.3,105.22,0"/>
    <path class="cls-4" d="m78.21,97.99c37.43-5.33,75.43-5.33,112.86,0"/>
    <path class="cls-4" d="m52.71,391.73c53.35,17.34,110.82,17.34,164.17,0"/>
    <path class="cls-4" d="m51.36,403.21c54.08,18.52,112.79,18.52,166.87,0"/>
    <path class="cls-4" d="m47.39,210.98c58.24,2.75,116.58,2.75,174.82,0"/>
    <path class="cls-4" d="m50.47,225.77c56.14,4.42,112.53,4.42,168.67,0"/>
    <g>
      <path class="cls-4" d="m143,12.25c.11,7.29.22,14.58.33,21.88"/>
      <path class="cls-4" d="m139.71,12.12c.07,7.29.13,14.58.2,21.87"/>
      <path class="cls-4" d="m136.44,12.05c.02,7.29.04,14.58.07,21.87"/>
      <path class="cls-4" d="m133.15,12.05c-.02,7.29-.04,14.58-.07,21.87"/>
      <path class="cls-4" d="m156.09,13.48c.29,7.31.58,14.62.87,21.93"/>
      <path class="cls-4" d="m152.82,13.07c.25,7.3.49,14.61.74,21.91"/>
      <path class="cls-4" d="m149.57,12.73c.2,7.3.4,14.6.6,21.9"/>
      <path class="cls-4" d="m146.29,12.46c.16,7.29.31,14.59.47,21.88"/>
      <path class="cls-4" d="m113.35,13.5c-.29,7.31-.58,14.62-.88,21.93"/>
      <path class="cls-4" d="m110.11,13.97c-.34,7.32-.67,14.63-1.01,21.95"/>
      <path class="cls-4" d="m106.86,14.52c-.38,7.32-.76,14.65-1.14,21.97"/>
      <path class="cls-4" d="m129.74,12.12c-.07,7.29-.14,14.58-.21,21.87"/>
      <path class="cls-4" d="m126.45,12.26c-.11,7.29-.23,14.58-.34,21.88"/>
      <path class="cls-4" d="m123.19,12.47c-.16,7.3-.32,14.59-.47,21.89"/>
      <path class="cls-4" d="m119.9,12.74c-.2,7.3-.41,14.6-.61,21.9"/>
      <path class="cls-4" d="m116.63,13.09c-.25,7.3-.49,14.61-.74,21.91"/>
      <path class="cls-4" d="m165.87,15.11c.42,7.33.85,14.66,1.27,21.99"/>
      <path class="cls-4" d="m162.64,14.5c.38,7.32.76,14.65,1.14,21.97"/>
      <path class="cls-4" d="m159.38,13.96c.33,7.32.67,14.63,1,21.95"/>
      <path class="cls-4" d="m178.72,18.24c.6,7.37,1.2,14.75,1.79,22.12"/>
      <path class="cls-4" d="m175.54,17.36c.55,7.36,1.11,14.72,1.66,22.08"/>
      <path class="cls-4" d="m172.33,16.54c.51,7.35,1.02,14.7,1.53,22.05"/>
      <path class="cls-4" d="m169.1,15.79c.47,7.34.93,14.68,1.4,22.02"/>
      <path class="cls-4" d="m94.05,17.36c-.55,7.36-1.11,14.72-1.66,22.08"/>
      <path class="cls-4" d="m90.87,18.24c-.6,7.37-1.2,14.75-1.79,22.12"/>
      <path class="cls-4" d="m103.73,15.11c-.42,7.33-.85,14.66-1.27,21.99"/>
      <path class="cls-4" d="m100.49,15.79c-.47,7.34-.93,14.68-1.4,22.02"/>
      <path class="cls-4" d="m97.27,16.54c-.51,7.35-1.02,14.7-1.53,22.05"/>
    </g>
  </g>
  <g id="Layer_5" data-name="Layer 5">
    <g>
      <g class="cls-20">
        <g class="cls-20">
          <path class="cls-16" d="m128.63,187.46c-.11.48-.22.96-.34,1.44-1.27,0-2.54.02-3.81.03-.76,3.28-1.53,6.56-2.3,9.85-.79,0-1.58.02-2.37.03.78-3.28,1.55-6.57,2.32-9.85-1.28.01-2.55.03-3.83.05.12-.48.23-.97.35-1.45,3.32-.05,6.65-.08,9.97-.1Z"/>
          <path class="cls-16" d="m133.01,188.87c-.26,1.14-.51,2.28-.77,3.42,1.65,0,3.3,0,4.96,0-.1.48-.2.95-.31,1.43-1.65,0-3.31,0-4.96,0-.27,1.18-.54,2.37-.82,3.55,1.87,0,3.73,0,5.6,0-.11.48-.22.96-.33,1.44-2.66,0-5.31,0-7.97.02.87-3.77,1.73-7.53,2.59-11.29,2.63,0,5.26,0,7.9,0-.11.48-.22.96-.32,1.44-1.85,0-3.71,0-5.56,0Z"/>
          <path class="cls-16" d="m148.47,196.49c-2.01-.02-4.02-.04-6.03-.06-.51.76-1.03,1.53-1.54,2.29-.82,0-1.65,0-2.47-.01,2.56-3.75,5.1-7.5,7.62-11.23.9,0,1.81.02,2.71.03.91,3.77,1.82,7.55,2.74,11.32-.83-.01-1.66-.02-2.49-.03-.18-.77-.36-1.54-.54-2.31Zm-.33-1.45c-.41-1.77-.82-3.54-1.23-5.32-1.16,1.75-2.33,3.51-3.51,5.27,1.58.01,3.16.03,4.74.05Z"/>
        </g>
      </g>
      <path class="cls-16" d="m141.84,144.79c.58.59,1.16,1.18,1.74,1.76-12.02,12.13-24.4,24.46-37.14,37.01-.58-.57-1.16-1.14-1.74-1.7,12.74-12.57,25.12-24.92,37.14-37.07Z"/>
      <path class="cls-7" d="m150.54,124.87c.3.3.59.61.89.91-11.73,12.04-23.82,24.28-36.27,36.73-.3-.29-.59-.59-.89-.88,12.45-12.46,24.55-24.71,36.27-36.76Z"/>
      <g>
        <path class="cls-7" d="m68.32,136.72c2.09-.13,4.17-.26,6.26-.38-.31,6.3-.63,12.6-.94,18.9,2.23-.13,4.47-.25,6.7-.36.28-6.3.56-12.6.84-18.89,2.11-.11,4.22-.21,6.33-.3.07-1.79.14-3.58.21-5.37-6.37.28-12.74.63-19.1,1.03-.1,1.79-.2,3.58-.3,5.38Z"/>
        <path class="cls-7" d="m90.16,130.21c2.19-.09,4.38-.18,6.57-.26-.26,8.08-.51,16.17-.77,24.25-2.23.08-4.47.17-6.7.26.3-8.09.6-16.17.9-24.26Z"/>
        <path class="cls-7" d="m120.18,129.37c-2,5.28-4.02,10.56-6.07,15.85-1.92-5.21-3.81-10.42-5.67-15.62-2.65.07-5.3.14-7.95.23-.23,8.08-.46,16.17-.69,24.25,2.24-.07,4.47-.14,6.71-.2.1-4.49.21-8.99.31-13.48,1.41,4.45,2.83,8.91,4.27,13.37,1.87-.04,3.74-.08,5.61-.11,1.58-4.48,3.15-8.96,4.7-13.44-.05,4.46-.1,8.92-.15,13.37.51,0,1.02-.01,1.54-.02,1.74-1.75,3.48-3.5,5.2-5.24.04-6.35.07-12.7.11-19.05-2.64.02-5.28.04-7.92.08Z"/>
        <path class="cls-7" d="m131.86,129.27c-.01,5.06-.02,10.13-.04,15.19,2.23-2.25,4.44-4.5,6.64-6.73,0-1.02,0-2.04,0-3.06,1,0,1.99,0,2.99.01,1.75-1.79,3.5-3.57,5.24-5.35-4.94-.06-9.88-.08-14.83-.06Z"/>
      </g>
      <g>
        <path class="cls-8" d="m117.06,174.37c-.08-.35-.17-.69-.25-1.04-.97.96-1.94,1.92-2.91,2.88.24.89.48,1.78.72,2.67,1.49-.04,2.98-.07,4.47-.11,1.15-3.71,2.29-7.41,3.42-11.11-1.64,1.63-3.28,3.26-4.93,4.89-.18.6-.35,1.21-.53,1.81Z"/>
        <path class="cls-8" d="m131.99,174.13c-1.09-4.23-2.18-8.45-3.25-12.68-1.01,1.01-2.02,2.02-3.04,3.04,1.28,4.73,2.58,9.46,3.9,14.19,1.5,0,3.01-.01,4.51-.01,2.4-7.97,4.76-15.93,7.07-23.88-1.39,0-2.79-.01-4.18-.02-1.64,6.45-3.32,12.9-5.01,19.36Z"/>
        <path class="cls-8" d="m147.36,154.8c-2.76,7.94-5.58,15.9-8.45,23.86,1.39,0,2.77.01,4.16.02.57-1.62,1.14-3.25,1.71-4.87,3.37.03,6.75.08,10.12.14.61,1.64,1.21,3.28,1.83,4.92,1.4.03,2.79.06,4.19.09-3.07-8.05-6.08-16.08-9.03-24.1-1.51-.02-3.02-.04-4.52-.06,0,0,0,0,0,0Zm-1.5,15.83c1.29-3.69,2.56-7.37,3.82-11.06,1.34,3.72,2.69,7.44,4.05,11.17-2.63-.05-5.25-.08-7.88-.11Z"/>
        <path class="cls-8" d="m179.83,167.1c.86-1.24,1.26-2.63,1.2-4.19-.05-1.33-.41-2.55-1.08-3.65-.67-1.11-1.65-2-2.94-2.7-1.29-.69-2.85-1.07-4.67-1.13-2.74-.1-5.48-.18-8.22-.26.19,7.97.38,15.94.57,23.9,1.33.04,2.66.07,3.98.12-.09-3.19-.17-6.37-.26-9.56,1.01.03,2.01.06,3.02.1,1.94,3.25,3.9,6.5,5.87,9.76,1.58.06,3.16.13,4.75.19-2.13-3.39-4.24-6.77-6.33-10.15,1.88-.39,3.25-1.2,4.11-2.43,0,0,0,0,0,0Zm-11.5-.61c-.07-2.67-.14-5.34-.22-8.01,1.44.04,2.88.09,4.32.14,1.49.05,2.61.44,3.37,1.17.76.73,1.16,1.71,1.2,2.95.04,1.24-.3,2.21-1.02,2.91-.72.71-1.82,1.03-3.3.98-1.45-.05-2.9-.1-4.35-.14t0,0Z"/>
        <path class="cls-8" d="m201.64,160.34c-.69-1.12-1.68-2.03-2.98-2.74-1.3-.71-2.86-1.11-4.69-1.21-2.74-.15-5.48-.29-8.22-.42.33,7.97.66,15.95.99,23.92,1.33.06,2.65.13,3.98.2-.14-3.24-.29-6.47-.43-9.71,1.45.07,2.91.15,4.36.23,1.98.11,3.6-.14,4.83-.73,1.23-.6,2.11-1.42,2.62-2.47.51-1.04.74-2.17.67-3.39-.07-1.33-.46-2.56-1.15-3.68,0,0,0,0,0,0Zm-3.84,6.24c-.7.64-1.8.91-3.3.82-1.45-.08-2.9-.16-4.35-.23-.12-2.6-.23-5.21-.35-7.81,1.44.07,2.88.15,4.32.23,2.95.16,4.49,1.56,4.63,4.18.06,1.24-.25,2.17-.96,2.81Z"/>
      </g>
    </g>
  </g>
</svg>